<svg xmlns="http://www.w3.org/2000/svg" version="1.1" xmlns:xlink="http://www.w3.org/1999/xlink" xmlns:svgjs="http://svgjs.dev/svgjs" viewBox="0 0 800 800"><defs><linearGradient x1="50%" y1="0%" x2="50%" y2="100%" id="ccchaos-grad"><stop stop-color="hsl(206, 75%, 49%)" stop-opacity="1" offset="0%"></stop><stop stop-color="hsl(331, 90%, 56%)" stop-opacity="1" offset="100%"></stop></linearGradient></defs><g stroke-width="2" stroke="url(#ccchaos-grad)" fill="none" stroke-linecap="round"><path d="M380.7 104.43C390.12 102.75 399.54 101.9 408.94 101.88 418.36 102.25 427.79 103.48 437.22 105.53 446.7 107.97 456.21 111.19 465.76 115.15 475.4 119.42 485.11 124.33 494.9 129.83 504.81 135.51 514.83 141.68 524.94 148.26 535.2 154.9 545.56 161.86 555.99 169.08 566.53 176.23 577.11 183.59 587.66 191.11 598.22 198.48 608.64 205.98 618.83 213.58 628.84 221.01 638.46 228.53 647.53 236.14 656.2 243.57 664.12 251.11 671.15 258.77 677.53 266.26 682.85 273.91 686.97 281.71 690.29 289.38 692.34 297.24 693.07 305.3 693.04 313.27 691.77 321.47 689.34 329.91 686.42 338.3 682.6 346.94 678.06 355.86 673.54 364.74 668.69 373.92 663.73 383.38 659.41 392.83 655.38 402.59 651.84 412.65 649.43 422.71 647.78 432.85 646.89 443.03 647.2 453.22 648.15 463.45 649.63 473.7 652 483.95 654.59 494.19 657.21 504.39 660.24 514.57 662.93 524.67 665.13 534.62 667.24 544.51 668.55 554.21 668.97 563.64 668.93 572.92 667.84 581.86 665.69 590.38 662.93 598.65 659.09 606.41 654.22 613.56 648.77 620.37 642.39 626.49 635.19 631.84 627.52 636.79 619.18 640.92 610.26 644.19 601.06 647.06 591.43 649.09 581.48 650.29 571.4 651.2 561.1 651.4 550.67 650.94 540.21 650.44 529.68 649.5 519.16 648.21 508.66 647.24 498.18 646.19 487.77 645.2 477.39 644.88 467.09 644.85 456.87 645.22 446.69 646.51 436.59 648.33 426.59 650.7 416.61 654.03 406.71 657.84 396.91 662.06 387.11 666.98 377.63 671.92 368.45 676.69 359.26 681.67 350.37 686.12 341.78 689.89 333.15 693.38 324.81 695.9 316.75 697.36 308.64 698.2 300.79 697.83 293.21 696.26 285.56 693.94 278.14 690.42 270.97 685.78 263.68 680.45 256.61 674.11 249.74 666.89 242.73 659.17 235.9 650.73 229.24 641.72 222.42 632.43 215.75 622.72 209.25 612.72 202.57 602.64 196.04 592.39 189.68 582.05 183.17 571.76 176.84 561.46 170.74 551.19 164.52 541.05 158.55 530.95 152.88 520.94 147.17 511.06 141.8 501.24 136.84 491.49 131.92 481.85 127.46 472.25 123.5 462.68 119.68 453.19 116.42 443.7 113.75 434.21 111.29 424.76 109.46 415.29 108.3 405.8 107.37 396.32 107.11 386.8 107.57 377.26 108.23 367.73 109.56 358.39 111.5 349.28 113.59 340.17 116.23 331.29 119.38 322.66 122.58 314.04 126.22 305.7 130.25 297.64 134.24 289.61 138.57 281.89 143.18 274.51 147.67 267.16 152.41 260.15 157.36 253.51 162.13 246.89 167.1 240.63 172.24 234.75 177.18 228.86 182.31 223.32 187.61 218.14 192.72 212.91 198.03 207.99 203.54 203.37 208.9 198.63 214.49 194.13 220.33 189.87 226.06 185.41 232.06 181.11 238.33 176.97 244.55 172.55 251.07 168.24 257.88 164.02 264.66 159.49 271.75 155.03 279.14 150.66 286.53 145.98 294.21 141.42 302.17 137 310.14 132.35 318.38 127.92 326.88 123.77 335.37 119.54 344.12 115.69 353.1 112.33 362.07 109.06 371.27 106.4 380.69 104.43" stroke-dasharray="8 8" transform="rotate(0, 400, 400)" opacity="0.44"></path><path d="M383.44 115.15C392.56 113.48 401.71 112.61 410.88 112.53 420.06 112.82 429.29 113.92 438.55 115.82 447.85 118.08 457.21 121.11 466.63 124.83 476.12 128.87 485.69 133.54 495.34 138.78 505.09 144.21 514.93 150.13 524.85 156.47 534.87 162.88 544.95 169.63 555.06 176.66 565.24 183.66 575.38 190.87 585.44 198.26 595.45 205.53 605.26 212.95 614.77 220.48 624.07 227.85 632.93 235.33 641.2 242.91 649.05 250.32 656.16 257.84 662.38 265.46 667.99 272.94 672.57 280.55 676.04 288.29 678.77 295.92 680.34 303.71 680.71 311.68 680.41 319.56 679.01 327.65 676.56 335.94 673.72 344.18 670.08 352.65 665.8 361.36 661.58 370.04 657.07 378.98 652.46 388.18 648.46 397.36 644.71 406.82 641.37 416.55 639.07 426.28 637.43 436.05 636.47 445.85 636.59 455.64 637.29 465.46 638.47 475.25 640.47 485.03 642.69 494.78 644.97 504.45 647.66 514.08 650.09 523.59 652.11 532.93 654.1 542.19 655.41 551.22 655.95 559.95 656.13 568.53 655.38 576.74 653.67 584.5 651.44 592.04 648.23 599.04 644.06 605.45 639.36 611.55 633.78 616.99 627.4 621.69 620.58 626.04 613.07 629.64 604.98 632.44 596.59 634.92 587.74 636.64 578.52 637.63 569.14 638.4 559.5 638.55 549.67 638.14 539.79 637.76 529.79 636.99 519.74 635.96 509.69 635.26 499.63 634.51 489.6 633.83 479.59 633.8 469.62 634.03 459.72 634.63 449.85 636.08 440.05 637.99 430.33 640.37 420.63 643.63 411.01 647.31 401.49 651.33 391.96 656 382.74 660.66 373.82 665.16 364.88 669.86 356.23 674.08 347.87 677.68 339.47 681.06 331.35 683.55 323.49 685.09 315.57 686.09 307.9 685.99 300.49 684.78 292.98 682.91 285.7 679.92 278.64 675.87 271.47 671.19 264.49 665.54 257.7 659.03 250.77 652.03 244.01 644.31 237.41 636 230.65 627.38 224.04 618.32 217.59 608.91 210.97 599.38 204.51 589.62 198.22 579.73 191.79 569.84 185.54 559.88 179.52 549.92 173.4 540.03 167.54 530.17 161.97 520.36 156.39 510.65 151.14 500.98 146.29 491.39 141.51 481.89 137.16 472.42 133.32 463.02 129.61 453.67 126.45 444.35 123.87 435.06 121.5 425.81 119.74 416.56 118.64 407.32 117.77 398.1 117.56 388.88 118.03 379.68 118.72 370.48 120.06 361.5 121.99 352.77 124.06 344.04 126.68 335.56 129.8 327.34 132.96 319.13 136.56 311.2 140.54 303.56 144.49 295.94 148.76 288.62 153.32 281.64 157.76 274.66 162.45 268.01 167.35 261.72 172.07 255.42 176.99 249.46 182.08 243.85 186.97 238.2 192.04 232.88 197.28 227.88 202.32 222.8 207.55 218 212.97 213.47 218.22 208.8 223.69 204.35 229.38 200.1 234.95 195.64 240.77 191.33 246.85 187.16 252.84 182.72 259.11 178.37 265.65 174.12 272.15 169.57 278.94 165.09 286.02 160.71 293.07 156.05 300.41 151.51 308.02 147.12 315.62 142.54 323.5 138.17 331.65 134.1 339.78 129.95 348.17 126.19 356.81 122.9 365.44 119.71 374.31 117.1 383.43 115.15" stroke-dasharray="10 6" transform="rotate(4.04, 400, 400)" opacity="0.71"></path><path d="M386.87 125.88C395.69 124.22 404.58 123.33 413.51 123.19 422.45 123.4 431.46 124.38 440.51 126.13 449.61 128.22 458.78 131.03 468.01 134.53 477.3 138.33 486.68 142.74 496.12 147.71 505.64 152.89 515.23 158.54 524.86 164.62 534.56 170.79 544.29 177.31 553.99 184.12 563.71 190.92 573.36 197.96 582.85 205.18 592.25 212.33 601.4 219.62 610.2 227.04 618.77 234.34 626.85 241.75 634.32 249.25 641.38 256.62 647.69 264.1 653.15 271.66 658.03 279.1 661.94 286.66 664.81 294.34 667.03 301.91 668.18 309.63 668.24 317.49 667.73 325.28 666.23 333.24 663.8 341.39 661.06 349.48 657.61 357.77 653.6 366.28 649.68 374.75 645.5 383.45 641.23 392.38 637.53 401.3 634.04 410.45 630.91 419.83 628.71 429.22 627.09 438.62 626.07 448 626.02 457.39 626.49 466.76 627.38 476.07 629.05 485.37 630.92 494.6 632.86 503.71 635.22 512.78 637.37 521.7 639.18 530.4 641.03 539.02 642.3 547.38 642.9 555.41 643.23 563.3 642.74 570.8 641.4 577.84 639.63 584.67 636.95 590.98 633.4 596.7 629.39 602.14 624.54 606.95 618.92 611.08 612.9 614.91 606.2 618.04 598.91 620.46 591.33 622.61 583.26 624.1 574.79 624.93 566.14 625.62 557.19 625.78 548.01 625.45 538.75 625.2 529.33 624.64 519.81 623.86 510.27 623.42 500.67 622.97 491.07 622.59 481.48 622.82 471.89 623.3 462.36 624.1 452.84 625.68 443.36 627.66 433.96 630.05 424.57 633.24 415.24 636.78 406 640.61 396.75 645.03 387.8 649.42 379.13 653.65 370.44 658.08 362.02 662.07 353.88 665.49 345.7 668.74 337.77 671.2 330.09 672.78 322.35 673.91 314.84 674.04 307.56 673.16 300.2 671.68 293.04 669.17 286.08 665.68 279.01 661.6 272.12 656.61 265.4 650.78 258.55 644.49 251.85 637.48 245.31 629.87 238.62 621.94 232.07 613.54 225.68 604.76 219.14 595.82 212.75 586.62 206.53 577.23 200.2 567.8 194.05 558.26 188.13 548.68 182.13 539.13 176.39 529.56 170.94 520.03 165.49 510.56 160.39 501.12 155.66 491.74 151.02 482.43 146.81 473.16 143.08 463.96 139.51 454.8 136.46 445.68 133.98 436.62 131.7 427.58 130.03 418.57 128.99 409.61 128.17 400.65 128 391.73 128.5 382.85 129.21 373.97 130.54 365.34 132.46 356.97 134.51 348.6 137.1 340.49 140.16 332.65 143.29 324.82 146.84 317.26 150.76 310.01 154.65 302.75 158.86 295.79 163.36 289.16 167.75 282.52 172.38 276.19 177.22 270.19 181.9 264.17 186.77 258.46 191.8 253.07 196.65 247.63 201.67 242.49 206.84 237.62 211.83 232.67 217 227.96 222.33 223.49 227.5 218.87 232.87 214.44 238.44 210.19 243.88 205.73 249.55 201.4 255.44 197.2 261.25 192.73 267.31 188.36 273.63 184.07 279.89 179.52 286.41 175.04 293.21 170.66 299.97 166.03 307 161.52 314.31 157.19 321.59 152.67 329.14 148.39 336.96 144.39 344.76 140.34 352.82 136.67 361.15 133.45 369.46 130.34 378.03 127.79 386.86 125.88" stroke-dasharray="7 8" transform="rotate(8.08, 400, 400)" opacity="0.47"></path><path d="M390.83 136.6C399.37 134.96 407.99 134.05 416.66 133.86 425.35 133.99 434.12 134.86 442.94 136.45 451.8 138.37 460.73 140.99 469.72 144.25 478.77 147.8 487.88 151.96 497.05 156.65 506.26 161.56 515.53 166.94 524.8 172.74 534.11 178.65 543.41 184.91 552.63 191.47 561.83 198.05 570.91 204.88 579.78 211.91 588.54 218.89 597 226.03 605.07 233.31 612.88 240.49 620.18 247.79 626.88 255.2 633.17 262.49 638.73 269.88 643.46 277.36 647.67 284.74 650.97 292.23 653.31 299.81 655.07 307.31 655.86 314.93 655.67 322.68 655 330.36 653.44 338.2 651.06 346.18 648.43 354.12 645.19 362.23 641.45 370.52 637.82 378.78 633.97 387.24 630.03 395.88 626.61 404.52 623.38 413.35 620.44 422.38 618.35 431.41 616.76 440.41 615.68 449.38 615.49 458.34 615.74 467.24 616.37 476.06 617.72 484.86 619.26 493.56 620.88 502.1 622.91 510.6 624.77 518.91 626.36 526.98 628.04 534.97 629.23 542.67 629.83 550.02 630.26 557.24 629.96 564.06 628.91 570.42 627.52 576.58 625.31 582.24 622.3 587.33 618.89 592.18 614.71 596.44 609.8 600.06 604.52 603.44 598.58 606.18 592.06 608.28 585.26 610.18 577.95 611.49 570.23 612.23 562.32 612.89 554.08 613.08 545.57 612.87 536.96 612.78 528.15 612.43 519.2 611.91 510.22 611.73 501.13 611.56 492.01 611.46 482.88 611.94 473.72 612.64 464.58 613.62 455.45 615.31 446.34 617.35 437.27 619.74 428.22 622.84 419.21 626.25 410.26 629.88 401.31 634.06 392.63 638.19 384.21 642.15 375.78 646.32 367.59 650.08 359.65 653.32 351.68 656.44 343.94 658.83 336.43 660.44 328.86 661.67 321.5 661.99 314.35 661.38 307.12 660.26 300.07 658.19 293.21 655.2 286.24 651.69 279.43 647.31 272.78 642.14 266.02 636.53 259.39 630.21 252.91 623.3 246.3 616.06 239.82 608.34 233.5 600.21 227.05 591.9 220.75 583.28 214.62 574.45 208.4 565.54 202.37 556.48 196.56 547.33 190.7 538.18 185.1 528.99 179.79 519.79 174.49 510.63 169.53 501.49 164.96 492.38 160.47 483.33 156.4 474.31 152.81 465.35 149.37 456.43 146.44 447.55 144.07 438.73 141.9 429.94 140.31 421.2 139.33 412.52 138.58 403.84 138.45 395.22 138.97 386.66 139.69 378.1 141.02 369.8 142.9 361.78 144.94 353.75 147.48 345.98 150.49 338.5 153.56 331.01 157.05 323.8 160.89 316.88 164.72 309.96 168.87 303.32 173.29 296.99 177.62 290.64 182.19 284.59 186.96 278.85 191.6 273.06 196.41 267.57 201.39 262.36 206.2 257.09 211.17 252.08 216.28 247.33 221.23 242.47 226.33 237.82 231.59 233.39 236.7 228.81 241.98 224.39 247.44 220.12 252.78 215.66 258.32 211.31 264.07 207.07 269.72 202.59 275.61 198.19 281.73 193.89 287.78 189.33 294.08 184.86 300.63 180.5 307.13 175.91 313.9 171.46 320.93 167.18 327.92 162.75 335.19 158.55 342.71 154.64 350.2 150.7 357.97 147.13 365.99 143.99 374 140.97 382.28 138.48 390.82 136.6" stroke-dasharray="1 0" transform="rotate(12.12, 400, 400)" opacity="0.33"></path><path d="M395.18 147.32C403.44 145.71 411.78 144.79 420.18 144.55 428.59 144.6 437.09 145.36 445.64 146.8 454.22 148.55 462.88 150.96 471.58 154 480.32 157.31 489.12 161.19 497.94 165.61 506.79 170.23 515.66 175.32 524.51 180.83 533.36 186.46 542.16 192.44 550.85 198.73 559.48 205.07 567.95 211.65 576.17 218.45 584.24 225.23 591.99 232.18 599.32 239.28 606.38 246.31 612.93 253.47 618.88 260.73 624.43 267.91 629.29 275.19 633.36 282.56 636.95 289.84 639.7 297.22 641.56 304.69 642.93 312.09 643.42 319.6 643.02 327.21 642.23 334.76 640.65 342.45 638.35 350.26 635.86 358.03 632.83 365.95 629.36 374.01 626.02 382.04 622.48 390.24 618.85 398.59 615.71 406.93 612.72 415.44 609.97 424.09 607.99 432.75 606.43 441.35 605.31 449.88 604.99 458.4 605.05 466.83 605.44 475.15 606.5 483.44 607.72 491.6 609.02 499.57 610.73 507.5 612.32 515.21 613.68 522.66 615.16 530.02 616.23 537.09 616.8 543.79 617.18 553.46 614.27 570.36 610.81 577.42 606.14 583.64 592.85 592.93 584.44 595.99 578.38 597.7 571.82 598.88 564.83 599.57 557.65 600.24 550.11 600.52 542.28 600.44 534.34 600.52 526.17 600.39 517.82 600.12 509.41 600.2 500.88 600.29 492.26 600.46 483.63 601.16 474.94 602.05 466.23 603.19 457.52 604.98 448.8 607.06 440.1 609.43 431.41 612.45 422.73 615.71 414.1 619.16 405.46 623.1 397.06 626.97 388.9 630.68 380.72 634.59 372.77 638.12 365.04 641.18 357.28 644.15 349.72 646.47 342.38 648.08 334.98 649.38 327.77 649.85 320.74 649.48 313.64 648.68 306.71 646.99 299.94 644.47 293.08 641.48 286.36 637.67 279.79 633.11 273.11 628.15 266.57 622.5 260.16 616.27 253.65 609.72 247.26 602.67 241.02 595.2 234.68 587.54 228.49 579.55 222.48 571.3 216.39 562.95 210.49 554.42 204.82 545.76 199.12 537.08 193.67 528.31 188.51 519.52 183.39 510.73 178.59 501.94 174.18 493.16 169.85 484.42 165.95 475.7 162.5 467.03 159.21 458.39 156.41 449.8 154.15 441.26 152.09 432.75 150.59 424.29 149.69 415.9 148.99 407.52 148.9 399.2 149.43 390.96 150.17 382.72 151.48 374.75 153.34 367.05 155.34 359.34 157.83 351.9 160.77 344.74 163.78 337.57 167.19 330.67 170.96 324.06 174.71 317.43 178.78 311.08 183.12 305.02 187.38 298.93 191.88 293.11 196.58 287.58 201.15 282 205.91 276.68 210.82 271.62 215.58 266.48 220.5 261.58 225.56 256.91 230.46 252.12 235.51 247.53 240.7 243.12 245.75 238.56 250.96 234.14 256.33 229.86 261.58 225.39 267.01 221.02 272.64 216.76 278.16 212.27 283.9 207.87 289.84 203.55 295.72 199.01 301.82 194.57 308.16 190.23 314.45 185.7 320.98 181.32 327.76 177.11 334.5 172.77 341.5 168.67 348.74 164.86 355.97 161.03 363.45 157.56 371.19 154.52 378.92 151.59 386.91 149.17 395.17 147.33" stroke-dasharray="7 2" transform="rotate(16.16, 400, 400)" opacity="0.39"></path><path d="M399.73 158.05C407.69 156.46 415.74 155.53 423.85 155.24 431.97 155.23 440.17 155.88 448.42 157.17 456.69 158.76 465.02 160.97 473.38 163.77 481.77 166.84 490.19 170.46 498.61 174.59 507.05 178.92 515.47 183.71 523.83 188.91 532.17 194.24 540.42 199.93 548.53 205.93 556.55 211.99 564.37 218.31 571.91 224.85 579.3 231.39 586.33 238.12 592.93 245 599.27 251.84 605.09 258.82 610.31 265.9 615.18 272.92 619.38 280.05 622.84 287.27 625.88 294.42 628.15 301.66 629.6 308.98 630.63 316.25 630.87 323.61 630.32 331.06 629.45 338.46 627.88 345.98 625.68 353.59 623.34 361.17 620.53 368.87 617.32 376.69 614.27 384.48 611.03 392.41 607.71 400.45 604.83 408.48 602.07 416.64 599.51 424.92 597.63 433.19 596.11 441.37 594.95 449.45 594.52 457.53 594.41 465.48 594.59 473.29 595.37 481.07 596.3 488.69 597.3 496.1 598.7 503.46 600.01 510.59 601.13 517.44 602.4 524.2 603.32 530.66 603.83 536.76 604.24 545.53 601.91 560.74 599 567.04 595.03 572.59 583.5 580.87 576.08 583.62 570.72 585.19 564.86 586.31 558.56 587 552.09 587.72 545.25 588.09 538.09 588.18 530.82 588.44 523.29 588.53 515.55 588.51 507.75 588.83 499.79 589.16 491.7 589.57 483.6 590.47 475.4 591.54 467.14 592.82 458.89 594.68 450.59 596.79 442.28 599.14 433.97 602.05 425.66 605.17 417.35 608.44 409.05 612.14 400.95 615.77 393.05 619.23 385.14 622.88 377.43 626.18 369.91 629.06 362.37 631.87 355.01 634.11 347.83 635.7 340.61 637.04 333.55 637.63 326.65 637.47 319.7 636.93 312.88 635.59 306.22 633.48 299.48 630.96 292.86 627.68 286.38 623.7 279.82 619.34 273.37 614.34 267.06 608.76 260.66 602.88 254.38 596.5 248.25 589.7 242.04 582.69 235.98 575.33 230.1 567.7 224.17 559.95 218.42 551.98 212.91 543.86 207.38 535.68 202.11 527.4 197.13 519.05 192.19 510.7 187.57 502.31 183.33 493.92 179.19 485.54 175.45 477.17 172.16 468.84 169.03 460.52 166.37 452.25 164.23 444.03 162.28 435.83 160.88 427.67 160.04 419.6 159.41 411.53 159.36 403.52 159.9 395.6 160.64 387.68 161.94 380.02 163.75 372.63 165.71 365.24 168.14 358.11 171.01 351.25 173.95 344.37 177.27 337.76 180.94 331.42 184.62 325.06 188.6 318.96 192.84 313.13 197.02 307.27 201.43 301.66 206.05 296.3 210.56 290.89 215.24 285.71 220.09 280.77 224.8 275.75 229.66 270.94 234.65 266.32 239.5 261.59 244.5 257.03 249.63 252.64 254.62 248.09 259.76 243.67 265.05 239.38 270.22 234.9 275.57 230.53 281.08 226.25 286.49 221.77 292.09 217.37 297.89 213.06 303.62 208.55 309.55 204.14 315.7 199.86 321.79 195.4 328.12 191.09 334.67 186.97 341.18 182.74 347.94 178.75 354.93 175.05 361.9 171.34 369.12 167.98 376.58 165.04 384.04 162.2 391.75 159.85 399.72 158.05" stroke-dasharray="10 5" transform="rotate(20.200000000000003, 400, 400)" opacity="0.83"></path><path d="M404.28 168.77C411.95 167.22 419.7 166.28 427.49 165.95 435.3 165.87 443.17 166.42 451.08 167.57 459 168.99 466.96 171.01 474.94 173.58 482.93 176.4 490.93 179.76 498.9 183.6 506.87 187.63 514.79 192.12 522.62 197 530.42 202.02 538.09 207.4 545.57 213.08 552.97 218.84 560.12 224.87 566.98 231.12 573.67 237.39 580 243.86 585.89 250.49 591.53 257.1 596.66 263.85 601.21 270.72 605.45 277.55 609.04 284.49 611.96 291.51 614.51 298.49 616.35 305.55 617.45 312.69 618.2 319.79 618.24 326.97 617.58 334.23 616.67 341.45 615.15 348.77 613.06 356.16 610.89 363.52 608.29 370.99 605.36 378.53 602.58 386.07 599.62 393.7 596.59 401.42 593.96 409.13 591.42 416.93 589.04 424.81 587.27 432.69 585.78 440.45 584.61 448.08 584.08 455.7 583.82 463.17 583.8 470.47 584.33 477.75 584.99 484.84 585.72 491.7 586.83 498.52 587.86 505.09 588.73 511.36 590.17 520.51 591.33 536.94 590.74 544.1 589.4 550.64 583.55 561.27 579.01 565.31 573.56 568.73 559.71 573.29 551.47 574.57 545.67 575.35 539.5 575.85 532.99 576.1 526.38 576.55 519.49 576.85 512.36 577.07 505.17 577.61 497.78 578.18 490.25 578.81 482.68 579.88 475 581.11 467.22 582.5 459.44 584.41 451.58 586.53 443.68 588.84 435.78 591.66 427.85 594.63 419.89 597.71 411.94 601.19 404.15 604.57 396.53 607.79 388.91 611.19 381.45 614.27 374.16 616.96 366.85 619.62 359.69 621.75 352.69 623.31 345.65 624.66 338.76 625.35 332.01 625.36 325.21 625.04 318.53 624.01 311.99 622.27 305.38 620.17 298.89 617.37 292.53 613.92 286.09 610.13 279.77 605.73 273.57 600.77 267.31 595.54 261.17 589.81 255.17 583.66 249.12 577.31 243.22 570.59 237.49 563.58 231.74 556.45 226.17 549.07 220.83 541.51 215.5 533.89 210.42 526.13 205.63 518.27 200.9 510.4 196.48 502.46 192.43 494.49 188.48 486.53 184.92 478.55 181.8 470.6 178.83 462.65 176.32 454.73 174.31 446.85 172.48 438.99 171.17 431.17 170.4 423.42 169.83 415.68 169.82 408 170.37 400.4 171.11 392.8 172.38 385.46 174.15 378.37 176.06 371.28 178.42 364.44 181.2 357.86 184.06 351.26 187.29 344.92 190.86 338.82 194.44 332.71 198.31 326.83 202.45 321.2 206.54 315.53 210.86 310.1 215.37 304.89 219.8 299.63 224.41 294.58 229.17 289.73 233.81 284.8 238.6 280.06 243.53 275.49 248.32 270.81 253.26 266.28 258.32 261.9 263.25 257.37 268.33 252.95 273.54 248.65 278.64 244.18 283.89 239.81 289.3 235.53 294.62 231.06 300.11 226.69 305.77 222.41 311.36 217.95 317.14 213.6 323.12 209.37 329.04 205 335.17 200.79 341.52 196.77 347.82 192.66 354.35 188.79 361.1 185.2 367.83 181.62 374.79 178.38 381.99 175.54 389.17 172.8 396.6 170.52 404.27 168.77" stroke-dasharray="7 7" transform="rotate(24.24, 400, 400)" opacity="0.69"></path><path d="M408.66 179.49C416.03 177.98 423.45 177.04 430.91 176.67 438.37 176.53 445.89 176.98 453.42 178 460.96 179.26 468.52 181.08 476.07 183.43 483.63 186.01 491.16 189.1 498.65 192.65 506.11 196.39 513.5 200.56 520.77 205.12 527.99 209.82 535.05 214.86 541.9 220.21 548.65 225.65 555.15 231.36 561.33 237.3 567.34 243.27 572.99 249.45 578.19 255.79 583.17 262.14 587.66 268.63 591.59 275.25 595.24 281.84 598.3 288.54 600.73 295.33 602.85 302.1 604.32 308.95 605.14 315.87 605.66 322.76 605.55 329.73 604.83 336.76 603.91 343.76 602.45 350.84 600.49 357.98 598.49 365.11 596.12 372.31 593.45 379.56 590.93 386.81 588.26 394.13 585.5 401.51 583.11 408.88 580.78 416.31 578.57 423.78 576.9 431.25 575.47 438.59 574.28 445.76 573.67 452.93 573.28 459.93 573.09 466.73 573.39 473.52 573.8 480.09 574.27 486.43 575.48 495.74 577.62 512.86 578.21 520.56 577.64 533.96 571.77 549.73 567.84 553.41 563.1 556.57 550.91 560.94 543.59 562.28 538.42 563.16 532.87 563.79 526.99 564.23 521.01 564.85 514.74 565.37 508.21 565.81 501.62 566.56 494.81 567.33 487.83 568.15 480.82 569.39 473.65 570.74 466.37 572.23 459.07 574.18 451.67 576.29 444.2 578.55 436.73 581.26 429.19 584.09 421.6 586.99 414.02 590.24 406.56 593.39 399.25 596.38 391.93 599.53 384.74 602.39 377.69 604.9 370.63 607.39 363.69 609.41 356.89 610.92 350.06 612.26 343.35 613.01 336.76 613.15 330.14 613.03 323.62 612.25 317.22 610.83 310.78 609.11 304.43 606.75 298.21 603.78 291.93 600.51 285.76 596.67 279.71 592.3 273.61 587.68 267.63 582.58 261.8 577.07 255.93 571.35 250.21 565.28 244.67 558.89 239.11 552.38 233.75 545.61 228.61 538.64 223.5 531.59 218.63 524.37 214.05 517.05 209.53 509.68 205.33 502.23 201.48 494.73 197.73 487.22 194.37 479.67 191.42 472.13 188.62 464.59 186.26 457.06 184.38 449.56 182.67 442.06 181.46 434.6 180.76 427.2 180.26 419.8 180.28 412.46 180.83 405.19 181.57 397.92 182.82 390.89 184.53 384.1 186.39 377.31 188.68 370.75 191.36 364.43 194.13 358.1 197.26 352 200.71 346.13 204.18 340.23 207.94 334.56 211.95 329.12 215.93 323.63 220.14 318.34 224.55 313.27 228.88 308.14 233.39 303.19 238.06 298.43 242.62 293.59 247.33 288.9 252.18 284.38 256.91 279.74 261.77 275.24 266.75 270.87 271.62 266.36 276.62 261.96 281.75 257.66 286.78 253.22 291.95 248.86 297.26 244.59 302.48 240.16 307.86 235.82 313.39 231.59 318.86 227.2 324.49 222.92 330.31 218.78 336.07 214.51 342.02 210.41 348.17 206.5 354.28 202.52 360.59 198.78 367.1 195.32 373.6 191.87 380.31 188.76 387.23 186.02 394.15 183.39 401.29 181.2 408.65 179.5" stroke-dasharray="10 7" transform="rotate(28.28, 400, 400)" opacity="0.78"></path><path d="M412.68 190.22C419.72 188.74 426.81 187.8 433.91 187.4 441.01 187.21 448.14 187.57 455.27 188.45 462.4 189.56 469.53 191.2 476.63 193.33 483.72 195.67 490.76 198.49 497.72 201.75 504.66 205.19 511.49 209.05 518.17 213.28 524.8 217.64 531.25 222.35 537.47 227.35 543.58 232.45 549.43 237.82 554.95 243.42 560.31 249.07 565.3 254.92 569.87 260.95 574.23 266.99 578.12 273.19 581.5 279.51 584.62 285.83 587.21 292.26 589.21 298.78 590.96 305.29 592.13 311.88 592.7 318.55 593.05 325.19 592.84 331.91 592.08 338.68 591.18 345.43 589.8 352.24 587.99 359.1 586.17 365.96 584.02 372.86 581.6 379.81 579.34 386.75 576.93 393.73 574.44 400.75 572.28 407.77 570.15 414.81 568.11 421.87 566.54 428.93 565.15 435.83 563.97 442.56 563.29 449.27 562.79 455.8 562.44 462.13 562.64 471.48 563.79 488.92 564.45 496.94 565.26 504.58 565.76 518.13 565.2 523.98 561.98 533.72 552.21 544.46 547.18 546.75 541.49 548.75 527.91 551.57 520.14 552.57 514.75 553.37 509.07 554.08 503.12 554.73 497.12 555.67 490.88 556.63 484.44 557.62 477.97 558.98 471.33 560.44 464.54 562 457.74 563.97 450.81 566.06 443.79 568.27 436.75 570.86 429.63 573.54 422.43 576.27 415.22 579.3 408.12 582.22 401.12 584.98 394.12 587.9 387.23 590.55 380.44 592.87 373.65 595.19 366.96 597.09 360.38 598.54 353.77 599.85 347.27 600.64 340.88 600.88 334.45 600.9 328.12 600.35 321.9 599.21 315.64 597.82 309.47 595.84 303.42 593.31 297.32 590.52 291.33 587.19 285.46 583.37 279.55 579.32 273.77 574.82 268.13 569.91 262.47 564.81 256.96 559.36 251.63 553.59 246.3 547.7 241.17 541.54 236.26 535.16 231.38 528.69 226.74 522.05 222.39 515.27 218.11 508.44 214.13 501.51 210.49 494.5 206.96 487.47 203.8 480.39 201.03 473.29 198.41 466.18 196.21 459.07 194.46 451.96 192.88 444.87 191.76 437.79 191.14 430.75 190.69 423.71 190.74 416.72 191.3 409.78 192.03 402.85 193.24 396.13 194.9 389.64 196.69 383.14 198.9 376.86 201.48 370.79 204.15 364.71 207.16 358.85 210.48 353.19 213.83 347.51 217.46 342.02 221.34 336.74 225.2 331.42 229.29 326.28 233.56 321.33 237.79 316.31 242.19 311.46 246.74 306.78 251.21 302.01 255.82 297.39 260.56 292.91 265.21 288.32 269.99 283.86 274.88 279.51 279.67 275.04 284.59 270.66 289.63 266.39 294.58 261.98 299.65 257.65 304.86 253.42 309.98 249.05 315.25 244.78 320.65 240.6 326 236.3 331.49 232.12 337.15 228.07 342.76 223.93 348.53 219.95 354.48 216.17 360.4 212.34 366.5 208.74 372.78 205.41 379.04 202.11 385.5 199.12 392.15 196.5 398.79 193.97 405.63 191.87 412.67 190.22" stroke-dasharray="4 5" transform="rotate(32.32, 400, 400)" opacity="0.15"></path><path d="M416.18 200.94C422.88 199.51 429.61 198.58 436.33 198.15 443.05 197.91 449.77 198.18 456.48 198.94 463.18 199.9 469.85 201.35 476.46 203.27 483.06 205.38 489.59 207.94 496.01 210.92 502.4 214.06 508.67 217.6 514.76 221.49 520.8 225.52 526.63 229.88 532.23 234.52 537.72 239.27 542.94 244.28 547.83 249.52 552.57 254.82 556.96 260.33 560.94 266.01 564.73 271.72 568.08 277.59 570.96 283.59 573.62 289.59 575.79 295.71 577.43 301.93 578.87 308.14 579.78 314.44 580.17 320.81 580.39 327.16 580.11 333.59 579.35 340.06 578.49 346.52 577.22 353.04 575.56 359.59 573.93 366.14 572 372.72 569.82 379.33 567.81 385.94 565.65 392.57 563.41 399.21 561.46 405.86 559.53 412.51 557.64 419.15 556.17 425.79 554.84 432.26 553.67 438.54 552.94 444.81 552.34 450.89 551.86 456.75 551.78 465.4 552.25 481.45 552.59 488.79 553.12 501.95 551.58 518.36 549.87 522.59 544.31 529.44 531.52 536.76 525.75 538.35 519.45 539.9 505.09 542.56 497.14 543.84 491.68 544.95 485.99 546.06 480.09 547.2 474.15 548.66 468.03 550.2 461.74 551.81 455.43 553.79 448.98 555.85 442.4 557.98 435.82 560.46 429.12 563 422.32 565.54 415.52 568.37 408.78 571.07 402.13 573.61 395.47 576.3 388.89 578.73 382.39 580.87 375.89 583.02 369.46 584.79 363.13 586.16 356.78 587.43 350.52 588.23 344.34 588.55 338.15 588.69 332.04 588.31 326.02 587.41 319.97 586.3 314.02 584.66 308.17 582.52 302.29 580.15 296.51 577.3 290.85 573.98 285.17 570.46 279.61 566.52 274.2 562.18 268.78 557.67 263.51 552.82 258.41 547.65 253.33 542.36 248.45 536.8 243.78 531.01 239.16 525.13 234.78 519.07 230.67 512.84 226.63 506.57 222.89 500.16 219.47 493.67 216.17 487.15 213.21 480.56 210.63 473.92 208.19 467.27 206.15 460.6 204.54 453.91 203.08 447.23 202.07 440.55 201.51 433.89 201.13 427.24 201.21 420.6 201.77 414.01 202.49 407.42 203.66 401.03 205.26 394.83 206.98 388.63 209.09 382.62 211.56 376.8 214.12 370.98 217 365.33 220.19 359.88 223.41 354.41 226.9 349.1 230.63 343.98 234.35 338.82 238.3 333.82 242.43 328.98 246.52 324.08 250.79 319.33 255.21 314.73 259.56 310.05 264.06 305.49 268.69 301.06 273.24 296.53 277.91 292.12 282.69 287.8 287.39 283.38 292.21 279.05 297.14 274.82 302 270.47 306.97 266.2 312.06 262.03 317.07 257.74 322.22 253.54 327.49 249.46 332.7 245.26 338.06 241.19 343.55 237.26 349 233.26 354.6 229.42 360.35 225.78 366.07 222.1 371.95 218.65 377.99 215.47 384.02 212.31 390.21 209.46 396.58 206.96 402.93 204.55 409.47 202.53 416.17 200.94" stroke-dasharray="4 7" transform="rotate(36.36, 400, 400)" opacity="0.67"></path><path d="M419.01 211.66C425.36 210.28 431.7 209.37 438.03 208.91 444.35 208.63 450.65 208.81 456.91 209.46 469.4 211.29 481.66 214.92 493.45 220.15 505.1 226 516.11 233.29 526.19 241.75 535.88 250.61 544.4 260.45 551.44 271.02 557.85 281.76 562.57 293.1 565.44 304.83 567.64 316.6 568.03 328.71 566.66 340.99 565.03 353.27 562.09 365.73 558.11 378.22 556.33 384.48 554.41 390.74 552.4 396.99 550.66 403.25 548.9 409.5 547.17 415.71 545.8 421.93 544.54 427.97 543.38 433.81 542.61 439.65 541.93 445.29 541.35 450.71 541.21 461.5 541.14 471.37 540.91 480.19 541.42 488.87 541.21 496.43 540.05 502.77 537.75 511.5 525.79 523.21 515.98 526.75 508.65 529.29 500.04 531.36 490.33 533.13 480.42 535.88 469.58 538.7 457.99 541.67 452.17 543.63 446.19 545.64 440.07 547.7 433.94 550.06 427.67 552.44 421.29 554.82 414.9 557.44 408.55 559.92 402.26 562.25 395.96 564.72 389.71 566.94 383.53 568.9 371.15 572.86 359 575.34 347.17 576.17 335.29 576.48 323.69 574.88 312.48 571.45 301.21 567.29 290.34 561.35 280.02 553.89 269.72 545.85 260.05 536.5 251.21 526.16 242.57 515.49 234.9 504.06 228.44 492.15 222.41 480.12 217.73 467.75 214.63 455.26 213.3 449.01 212.38 442.75 211.9 436.48 211.57 430.22 211.68 423.96 212.23 417.72 212.94 411.49 214.07 405.42 215.6 399.52 217.24 393.62 219.25 387.88 221.61 382.32 226.54 371.15 232.69 360.62 239.81 350.72 246.95 340.68 254.9 331.18 263.47 322.21 271.85 312.97 280.79 304.13 290.16 295.72 299.26 286.93 308.83 278.47 318.8 270.4 328.52 261.93 338.74 253.86 349.41 246.35 359.93 238.61 371.01 231.57 382.61 225.5 388.39 222.5 394.31 219.79 400.38 217.41 406.44 215.12 412.65 213.19 419 211.67" stroke-dasharray="2 7" transform="rotate(40.400000000000006, 400, 400)" opacity="0.64"></path><path d="M421.05 222.39C433.01 219.87 444.86 219.1 456.46 220.01 468.03 221.56 479.27 224.77 489.98 229.47 500.55 234.73 510.42 241.34 519.35 249.07 527.93 257.18 535.37 266.25 541.43 276.04 546.95 286.03 550.95 296.61 553.28 307.59 555.1 318.63 555.33 330.02 554.03 341.57 552.58 353.14 549.98 364.87 546.46 376.61 543.5 388.35 540.17 400.11 536.71 411.7 534.49 423.29 532.55 434.14 530.9 444.15 530.45 454.12 530.02 463.19 529.43 471.26 529.54 479.24 529.04 486.19 527.73 492.05 525.42 500.21 514.57 511.64 505.8 515.43 499.28 518.18 491.56 520.53 482.8 522.61 473.87 525.56 464 528.53 453.36 531.57 442.67 535.68 431.3 539.92 419.38 544.1 407.46 549.11 395.59 553.47 383.9 556.97 372.21 560.61 360.67 562.91 349.41 563.77 338.12 564.22 327.07 562.99 316.4 560.12 305.71 556.65 295.4 551.57 285.64 545.07 275.93 538.06 266.85 529.81 258.57 520.58 250.51 511.04 243.38 500.72 237.41 489.85 231.84 478.86 227.55 467.47 224.73 455.88 222.46 444.27 221.74 432.52 222.7 420.77 224.21 409.03 227.25 397.83 231.62 387.23 236.3 376.58 242.13 366.46 248.89 356.89 255.71 347.2 263.31 337.96 271.53 329.18 279.61 320.17 288.24 311.52 297.29 303.26 306.13 294.68 315.41 286.41 325.05 278.54 334.5 270.35 344.39 262.56 354.67 255.34 364.83 247.95 375.46 241.26 386.53 235.5 397.55 229.87 409.08 225.41 421.04 222.39" stroke-dasharray="3 0" transform="rotate(44.44, 400, 400)" opacity="0.15"></path><path d="M422.22 233.11C433.41 230.69 444.41 229.87 455.08 230.6 465.72 231.88 475.95 234.69 485.6 238.87 495.11 243.55 503.9 249.5 511.76 256.5 519.32 263.86 525.78 272.14 530.97 281.12 535.72 290.31 539.1 300.09 541 310.27 542.52 320.54 542.66 331.14 541.47 341.91 540.22 352.72 537.97 363.67 534.89 374.61 532.32 385.56 529.38 396.49 526.24 407.24 524.17 417.99 522.25 428.02 520.51 437.23 519.8 446.42 519.06 454.76 518.16 462.17 517.5 472.74 513.25 489.11 508.86 495.03 505.5 498.83 500.97 501.93 495.33 504.42 489.51 507.35 482.59 509.94 474.68 512.27 466.64 515.37 457.69 518.44 447.97 521.51 438.19 525.49 427.72 529.49 416.67 533.37 405.61 537.97 394.53 541.93 383.56 545.08 372.59 548.39 361.73 550.51 351.1 551.35 340.46 551.9 330.05 550.96 319.97 548.56 309.92 545.69 300.24 541.37 291.08 535.74 282.02 529.68 273.56 522.45 265.88 514.27 258.42 505.81 251.86 496.56 246.38 486.72 241.28 476.77 237.38 466.36 234.85 455.68 232.82 444.98 232.21 434.05 233.17 423.05 234.62 412.05 237.49 401.49 241.61 391.41 246.02 381.3 251.51 371.62 257.89 362.41 264.34 353.09 271.56 344.15 279.38 335.61 287.11 326.88 295.38 318.46 304.06 310.41 312.58 302.09 321.52 294.07 330.79 286.45 339.92 278.59 349.44 271.13 359.28 264.24 369.03 257.23 379.19 250.9 389.69 245.47 400.15 240.18 411.02 235.98 422.22 233.11" stroke-dasharray="7 10" transform="rotate(48.48, 400, 400)" opacity="0.96"></path><path d="M422.47 243.84C432.87 241.52 443 240.67 452.74 241.22 462.44 242.26 471.69 244.69 480.32 248.37 488.83 252.5 496.6 257.79 503.47 264.07 510.09 270.68 515.69 278.17 520.12 286.33 524.21 294.69 527.07 303.63 528.65 312.97 529.95 322.42 530.05 332.19 529 342.14 527.96 352.13 526.04 362.26 523.37 372.38 521.18 382.51 518.6 392.61 515.77 402.52 513.85 412.43 511.97 421.65 510.17 430.12 509.26 438.57 508.26 446.23 507.08 453.06 505.96 462.85 501.29 478.27 497.07 484.07 493.95 487.85 489.82 491.05 484.7 493.72 479.47 496.8 473.24 499.58 466.11 502.11 458.87 505.3 450.78 508.42 441.93 511.48 433.04 515.3 423.45 519.07 413.26 522.65 403.08 526.84 392.81 530.41 382.6 533.23 372.41 536.21 362.28 538.14 352.33 538.94 342.41 539.53 332.68 538.82 323.27 536.82 313.91 534.45 304.91 530.79 296.41 525.93 288.03 520.73 280.23 514.44 273.17 507.24 266.34 499.8 260.35 491.57 255.37 482.74 250.75 473.8 247.24 464.36 244.99 454.59 243.18 444.79 242.69 434.71 243.63 424.48 245.02 414.24 247.72 404.33 251.57 394.82 255.68 385.27 260.82 376.06 266.79 367.24 272.86 358.33 279.67 349.73 287.04 341.49 294.38 333.08 302.24 324.95 310.49 317.16 318.63 309.17 327.18 301.46 336.02 294.15 344.76 286.66 353.85 279.57 363.21 273.04 372.5 266.45 382.13 260.51 392.02 255.42 401.89 250.48 412.07 246.54 422.47 243.84" stroke-dasharray="5 6" transform="rotate(52.52, 400, 400)" opacity="0.07"></path><path d="M421.79 254.56C431.38 252.36 440.64 251.49 449.46 251.89 458.24 252.7 466.54 254.77 474.2 257.97 481.76 261.57 488.59 266.23 494.57 271.8 500.35 277.67 505.19 284.36 508.97 291.69 512.5 299.22 514.95 307.31 516.27 315.78 517.41 324.37 517.52 333.29 516.63 342.38 515.8 351.52 514.2 360.8 511.93 370.07 510.07 379.36 507.83 388.62 505.3 397.7 503.54 406.78 501.72 415.24 499.89 423 498.81 430.75 497.6 437.8 496.21 444.1 494.68 453.18 489.6 467.8 485.49 473.5 480.63 478.9 466.5 488 457.26 492.12 450.74 495.36 443.44 498.48 435.42 501.48 427.36 505.12 418.63 508.64 409.31 511.93 400 515.72 390.57 518.92 381.15 521.42 371.76 524.08 362.4 525.81 353.21 526.54 344.04 527.14 335.05 526.6 326.37 524.92 317.75 522.98 309.47 519.88 301.67 515.71 294.01 511.28 286.89 505.84 280.47 499.53 274.28 493.04 268.87 485.78 264.4 477.91 260.25 469.94 257.12 461.45 255.14 452.58 253.56 443.68 253.18 434.45 254.1 424.99 255.42 415.54 257.93 406.31 261.5 397.38 265.32 388.42 270.08 379.73 275.62 371.35 281.28 362.89 287.63 354.69 294.53 346.8 301.42 338.77 308.82 331 316.59 323.54 324.3 315.92 332.38 308.59 340.74 301.64 349.03 294.57 357.62 287.89 366.45 281.77 375.23 275.61 384.27 270.08 393.52 265.35 402.75 260.76 412.2 257.1 421.79 254.56" stroke-dasharray="8 2" transform="rotate(56.56, 400, 400)" opacity="0.61"></path><path d="M420.21 265.28C428.97 263.21 437.35 262.34 445.28 262.59 453.17 263.2 460.55 264.93 467.31 267.69 473.98 270.77 479.96 274.83 485.15 279.71 490.18 284.86 494.35 290.77 497.59 297.28 500.65 303.97 502.77 311.19 503.91 318.8 504.94 326.51 505.09 334.54 504.38 342.76 503.76 351.03 502.46 359.44 500.55 367.85 499.01 376.29 497.08 384.71 494.84 392.97 493.22 401.24 491.48 408.94 489.67 416.03 488.47 423.12 487.1 429.59 485.53 435.41 483.67 443.85 478.21 457.74 474.18 463.35 469.57 468.74 456.63 478.06 448.27 482.31 442.41 485.53 435.83 488.61 428.59 491.52 421.33 494.95 413.43 498.21 404.98 501.2 396.53 504.62 387.94 507.46 379.36 509.65 370.79 512 362.25 513.52 353.84 514.17 345.47 514.74 337.27 514.31 329.35 512.91 321.5 511.3 313.98 508.69 306.92 505.12 299.99 501.35 293.58 496.67 287.82 491.19 282.26 485.56 277.44 479.2 273.47 472.24 269.79 465.2 267.03 457.63 265.32 449.64 263.96 441.63 263.68 433.24 264.57 424.58 265.8 415.92 268.13 407.39 271.4 399.08 274.91 390.76 279.29 382.62 284.39 374.73 289.6 366.78 295.47 359.04 301.85 351.55 308.26 343.97 315.14 336.62 322.38 329.55 329.6 322.38 337.16 315.47 344.97 308.95 352.75 302.33 360.79 296.11 369.03 290.42 377.23 284.72 385.65 279.61 394.21 275.25 402.75 271.02 411.46 267.65 420.21 265.28" stroke-dasharray="8 6" transform="rotate(60.599999999999994, 400, 400)" opacity="0.15"></path><path d="M417.8 276.01C425.71 274.07 433.24 273.2 440.29 273.33 447.32 273.76 453.84 275.18 459.77 277.52 465.62 280.13 470.83 283.6 475.31 287.83 479.68 292.29 483.29 297.43 486.07 303.14 488.74 309 490.59 315.37 491.61 322.1 492.58 328.93 492.79 336.08 492.26 343.41 491.83 350.79 490.81 358.33 489.24 365.89 487.98 373.46 486.34 381.04 484.37 388.51 482.9 395.97 481.26 402.95 479.49 409.4 477.48 418.82 472.94 434.99 470.12 441.78 467.18 448.18 458.82 458.99 453.18 463.62 449.21 466.87 444.59 469.88 439.34 472.65 434.06 475.81 428.15 478.8 421.65 481.58 415.13 484.78 408.04 487.78 400.44 490.48 392.83 493.52 385.1 496.02 377.36 497.93 369.64 499.98 361.93 501.29 354.35 501.84 346.81 502.35 339.42 502.01 332.3 500.81 325.26 499.48 318.52 497.27 312.22 494.23 306.04 491.03 300.33 487.03 295.23 482.3 290.32 477.44 286.07 471.91 282.6 465.81 279.38 459.63 276.99 452.94 275.53 445.81 274.37 438.66 274.18 431.11 275.03 423.25 276.19 415.39 278.31 407.6 281.29 399.95 284.48 392.28 288.46 384.74 293.09 377.39 297.85 370.01 303.2 362.78 309.04 355.77 314.92 348.71 321.25 341.83 327.91 335.23 334.57 328.55 341.55 322.13 348.77 316.07 355.96 309.96 363.4 304.23 370.98 299 378.56 293.78 386.3 289.11 394.13 285.13 401.96 281.28 409.88 278.19 417.8 276.01" stroke-dasharray="10 4" transform="rotate(64.64, 400, 400)" opacity="0.10"></path><path d="M414.65 286.73C421.72 284.94 428.4 284.09 434.62 284.12 443.67 284.96 459.05 291.11 465.17 296.18 470.52 302.18 477.66 317.13 479.42 325.77 480.35 331.73 480.63 337.99 480.28 344.45 480.03 350.95 479.26 357.61 478 364.31 476.99 371.04 475.62 377.79 473.9 384.46 472.59 391.14 471.05 397.41 469.35 403.25 467.28 411.78 462.48 426.67 459.55 433.06 456.54 439.14 448.44 449.67 443.19 454.26 437.45 458.94 423.22 467.62 414.77 471.67 408.96 474.62 402.64 477.34 395.88 479.75 389.11 482.44 382.23 484.62 375.34 486.25 368.47 488.01 361.61 489.12 354.87 489.56 348.18 490 341.63 489.7 335.33 488.67 329.1 487.56 323.16 485.69 317.62 483.09 312.19 480.39 307.2 476.97 302.76 472.91 298.48 468.76 294.79 463.98 291.8 458.67 289.02 453.31 286.98 447.44 285.77 441.14 284.8 434.83 284.69 428.11 285.5 421.07 286.56 414.01 288.48 406.97 291.16 400.01 294.02 393.04 297.59 386.15 301.75 379.4 306.02 372.63 310.85 365.98 316.11 359.51 321.43 353.01 327.16 346.68 333.2 340.6 339.26 334.47 345.61 328.59 352.17 323.04 358.74 317.48 365.51 312.27 372.4 307.52 379.29 302.8 386.31 298.59 393.38 295 400.45 291.52 407.57 288.72 414.65 286.73" stroke-dasharray="6 1" transform="rotate(68.68, 400, 400)" opacity="0.30"></path><path d="M410.89 297.45C423.35 294.38 434.27 294.56 443.22 297.56 452.02 301.26 458.7 307.59 462.95 315.83 467.06 324.53 468.89 334.83 468.44 345.98 468.39 357.28 466.68 369.19 463.44 380.99 461.43 392.8 458.44 403.33 454.69 412.35 451.93 421.47 447.9 429.3 442.55 435.77 437.54 442.73 430.75 448.79 422.24 453.81 413.74 459.78 403.39 465.02 391.49 469.03 379.58 473.9 367.35 476.71 355.55 477.35 343.89 478.06 332.85 476.15 323.19 471.78 313.92 467.15 306.31 460.06 301.09 450.94 296.56 441.67 294.66 430.57 295.97 418.09 298.08 405.61 303.13 392.99 310.37 380.8 318.02 368.57 327.58 356.68 338.31 345.7 349.15 334.64 361.05 324.5 373.35 315.99 385.69 307.64 398.42 301.19 410.89 297.45" stroke-dasharray="2 5" transform="rotate(72.72, 400, 400)" opacity="0.86"></path><path d="M406.68 308.18C417.48 305.39 426.86 305.39 434.51 307.78 442.06 310.71 447.8 315.88 451.5 322.75 455.15 329.96 456.92 338.62 456.76 348.11 456.96 357.71 455.68 367.95 452.97 378.23 451.18 388.51 448.37 397.85 444.78 405.99 441.95 414.22 437.98 421.47 432.92 427.59 428.16 434.1 421.95 439.84 414.37 444.61 406.81 450.08 397.76 454.79 387.45 458.31 377.14 462.47 366.61 464.78 356.51 465.22 346.53 465.76 337.14 464.1 328.98 460.36 321.15 456.48 314.78 450.5 310.47 442.73 306.71 434.85 305.2 425.31 306.43 414.45 308.31 403.59 312.69 392.48 318.97 381.68 325.61 370.87 333.92 360.32 343.28 350.58 352.77 340.81 363.2 331.89 373.96 324.42 384.77 317.12 395.88 311.48 406.68 308.18" stroke-dasharray="3 6" transform="rotate(76.76, 400, 400)" opacity="0.67"></path><path d="M402.2 318.9C411.36 316.43 419.28 316.28 425.73 318.13 432.13 320.37 437.02 324.5 440.24 330.08 443.46 335.91 445.15 343.01 445.25 350.9 445.63 358.87 444.73 367.48 442.5 376.28 440.95 385.06 438.38 393.19 435.05 400.41 432.27 407.71 428.49 414.27 423.81 419.92 419.37 425.86 413.77 431.14 407.11 435.53 400.49 440.42 392.69 444.57 383.93 447.58 375.17 451.07 366.31 452.92 357.87 453.18 349.53 453.54 341.75 452.09 335.05 448.92 328.6 445.68 323.41 440.69 319.96 434.16 316.92 427.57 315.77 419.52 316.9 410.27 318.52 401.01 322.25 391.47 327.57 382.15 333.18 372.83 340.23 363.71 348.18 355.28 356.27 346.88 365.17 339.22 374.34 332.82 383.57 326.58 393.03 321.76 402.2 318.9" stroke-dasharray="1 9" transform="rotate(80.80000000000001, 400, 400)" opacity="0.49"></path><path d="M397.62 329.62C408.44 327.38 424.39 331.86 429.22 337.84 432.03 342.4 433.61 348.05 433.89 354.42 434.4 360.85 433.8 367.89 432.04 375.2 430.72 382.51 428.46 389.4 425.48 395.63 422.88 401.93 419.41 407.69 415.21 412.74 411.19 417.99 406.27 422.68 400.55 426.58 394.88 430.81 388.33 434.35 381.08 436.86 373.82 439.69 366.59 441.12 359.77 441.23 349.89 440.8 334.27 432.78 329.57 425.38 327.2 419.99 326.36 413.37 327.37 405.71 328.73 398.05 331.79 390.11 336.16 382.31 340.75 374.54 346.54 366.92 353.08 359.88 359.73 352.88 367.07 346.51 374.64 341.21 382.26 336.03 390.07 332.02 397.62 329.62" stroke-dasharray="2 6" transform="rotate(84.84, 400, 400)" opacity="0.38"></path><path d="M393.14 340.35C405.1 337.04 413.89 339.53 418.51 346.04 423.31 352.98 424.53 363.35 421.57 375.05 419.74 386.74 414.47 397.57 407.14 406.04 400.31 415.02 390.54 422.36 379 426.14 367.46 430.73 356.4 430.54 348.23 426.21 340.52 421.88 336.35 413.1 337.83 400.93 340.23 388.76 347.85 375.66 358.03 364.41 368.55 353.33 381.19 344.37 393.14 340.35" stroke-dasharray="5 9" transform="rotate(88.88, 400, 400)" opacity="0.83"></path><path d="M388.95 351.07C401.15 349.28 412.58 363.28 411.1 375.82 409.65 384.6 405.41 393.02 399.58 399.78 394.03 406.81 386.43 412.54 377.8 415.41 369.17 418.74 361.16 418.43 355.42 415.07 349.93 411.75 347.06 405.18 348.3 396.13 350.07 387.06 355.64 377.31 363.1 368.96 370.78 360.73 380.08 354.08 388.95 351.07" stroke-dasharray="8 10" transform="rotate(92.92, 400, 400)" opacity="0.74"></path><path d="M385.21 361.8C396.93 358.37 403.46 365.74 400.63 377.49 398.89 389.23 389.01 401.03 377.51 404.69 366.01 409.14 357.2 403.45 358.77 391.46 361.31 379.46 373.48 365.96 385.21 361.8" stroke-dasharray="3 11" transform="rotate(96.96, 400, 400)" opacity="0.95"></path></g></svg>