<svg xmlns="http://www.w3.org/2000/svg" version="1.1" xmlns:xlink="http://www.w3.org/1999/xlink" xmlns:svgjs="http://svgjs.dev/svgjs" viewBox="0 0 800 800"><defs><linearGradient x1="50%" y1="0%" x2="50%" y2="100%" id="ssscribble-grad"><stop stop-color="hsl(206, 75%, 49%)" stop-opacity="1" offset="0%"></stop><stop stop-color="hsl(331, 90%, 56%)" stop-opacity="1" offset="100%"></stop></linearGradient></defs><g fill="none" stroke-width="1.5" stroke="url(#ssscribble-grad)" stroke-linecap="round"><path d="M860.87 531.35C1061.98 564.21 1082.44 582.24 913.74 584.77 703.94 585.54 625.3 568.93 718.04 537.02 900.1 508.55 1021.31 476.5 1004.12 455.43 862.49 464.45 679.46 508.87 542.35 597.3 489.92 717.03 523.47 853.77 599.38 973.21 693.92 1037.6 759.4 1025.94 784.72 935.23 782.13 807.09 750.61 688.36 707.65 639.39 656.4 693.82 610.62 832.15 577.76 991.89 544.9 1092.53 526.52 1080.99 515.79 969.91 496.77 811.61 468.52 675.83 414.17 611.98 331.9 635.86 212.3 724.25 67.11 832.38 -59.43 928.89 -140.16 973.79 -130.8 960.62 -36.76 897.11 107.3 799.85 214.71 692.78 197.68 581.9 47.01 487.46 -159.13 413.6 -275.96 351.96 -216.02 306.29 -18.91 269.98 137.1 238.15 109.98 207.43 -91.12 174.57 -277.63 141.71 -269.06 108.26 -83.82 78.12 116.56 52.45 169.05 38.34 55.33 43.03 -127.96 59.94 -231.06 100.26 -190.65 160.49 -33.8 216.92 148.09 267 271.51 287.45 304.2 257.57 254.77 173.71 171.23 43 42.17 -162.59 185.55 138.1 242.52 39.95 275.38 -119.79 291.33 -251.48 296.92 -293.25 310.3 -231.61 329.81 -94.19 373.2 58.02 446.27 172.83 558.87 213.98 703.49 183.82 837.68 98.61 934.29 0.83 944.67 -75.82 864.32 -121.2 721.38 -118.46 598.75 -76.84 592.55 -5.13 725.12 81.03 932.52 166.44 1070.32 255.29 1036.54 331.69 848.82 392.9 676.27 452.35 674.36 498.48 860.87 531.35Q860.87 531.35 860.87 531.35" opacity="0.91"></path><path d="M826.87 368.66C1017.94 399.17 1059.01 413.6 926.52 413.79 660.38 410.67 840.19 394.19 989.07 426.9 945.68 483.05 810.25 569.92 650.79 683.95 514.67 803.54 444.89 914.23 437.27 986.81 480.33 1000.59 541.11 947.99 593.34 840.2 643 721.36 666.64 629.24 666.72 607.84 660.8 675.39 640.35 809.82 609.83 957.89 579.32 1054.69 540.2 1055.4 488.57 966.04 430.94 824.12 351.79 684.7 249.25 594.27 144.14 575.27 33.11 623.03 -56.96 709.09 -96.38 810.48 -70.4 887.86 25.72 923.93 145.18 918.95 244.44 872.65 256.05 800.89 152.8 710.16 -29.36 618.23 -194.94 535.56 -239.52 455.13 -130.86 389.13 60.49 337.06 181.2 287.58 133.94 248.08 -57.12 217.57 -235.45 187.05 -249.68 166.97 -98.21 158.89 102.5 153.41 207.51 163.91 161.8 191.45 7.09 221.24 -140.6 262.92 -193.03 306.62 -128.55 331.36 18.73 333.87 177.63 298.87 302.46 222.81 356.26 109.26 349.37 -23.89 295.03 -141.73 229.23 -216.87 176.85 -220.25 130.64 -152.2 111.91 -30.16 116.08 99.98 126.83 177.58 150 170.71 180.52 73.95 211.03 -74.11 247.44 -202.38 294.24 -258.18 347.61 -225.02 421.85 -115.54 520.93 25.65 626.19 155.82 742.25 235.8 843.61 253.8 897.54 213 887.54 138.49 802.71 58.91 683.8 -15.13 572.68 -58.2 539.98 -67.33 624.18 -49.29 799.25 -6.51 976.32 48.66 1044.4 114.86 956.76 179.55 767.82 235.62 628.12 292.98 648.54 338.14 826.87 368.66Q826.87 368.66 826.87 368.66" opacity="0.33"></path><path d="M792.87 223.02C972.96 251.19 1030.96 270.03 935.02 282.2 751.09 297.28 596.23 311.64 552.76 331.95 632.94 364.14 775.77 412.38 897.78 482.02 949.19 567.03 904.15 669.53 792.46 778.55 647.13 872.63 517.39 940.28 427.79 961.68 379.52 932.11 371.02 852.75 383.13 742.37 413.36 641.63 439.12 578.13 450.08 581.5 461.96 658.7 454.65 787.58 426.48 923.89 398.31 1016.27 350.63 1027.51 285.62 959.08 221.54 836.73 144.55 701.81 65.51 594.84 4.59 539.85 -33.29 544.82 -28.43 595.92 17.75 679.51 107.05 763.9 215.47 828.34 290.23 869.58 301.88 875.02 221.14 850.58 69.81 802.72 -98.27 740.28 -199.1 674.49 -176.28 602.65 -37.45 537.59 135.6 483.68 220.67 429.76 156.96 388.02 -23.12 359.84 -192.23 331.68 -225.88 318.42 -109.6 319.22 148.34 326.9 67.93 381.86 -117.82 394.34 -150.61 375.38 -87.49 329.52 35.22 251.37 182.61 150.01 305.88 32.22 384.59 -80.68 419.41 -161.12 416.38 -191.36 396.23 -157.03 360.07 -70.72 331.59 48.15 319.81 159.65 307.97 217.22 315.66 200.29 343.82 107.95 371.99 -28.36 419.31 -151.55 484.26 -217.89 549.16 -210.41 628.89 -130.89 713.85 -9.51 782.82 121.51 832.23 226.13 840.83 285.04 805.53 292.98 722.7 258.73 612.22 201.56 526.42 129.46 496.69 67.39 558.82 25.79 700.4 -0.43 872.65 -2.29 991.62 14.32 991.09 42.83 866.67 79.71 689.81 117.75 584.4 158.7 623.76 194.85 792.87 223.02Q792.87 223.02 792.87 223.02" opacity="0.96"></path><path d="M758.87 173.69C927.09 199.51 998.17 226.14 937.35 255.28 782.26 287.13 618.15 326.38 523.57 376.7 532.7 434.46 627.5 506.83 751.83 592.63 860.55 679.88 904.5 769.31 878.17 848.06 793.48 901.17 678.54 920.8 563.99 897.27 457.29 837.75 379.18 747.54 328.26 647.4 296.2 570.79 278.8 535.76 265.22 560.22 256.73 643.56 241.76 765.39 215.94 889.89 190.12 977.27 154.67 997.26 114.48 948.45 79.36 847.63 49.79 724.13 37.1 610.97 43.28 530.16 78.87 496.65 145.78 507.77 220.53 557.8 298.4 625.99 349.26 693.78 341.74 757.47 267.19 798.89 131.58 815.77 -19.63 814.35 -137.59 793.03 -165.64 759.58 -89.99 716.69 59.42 671.34 204.55 629.53 255.4 585.83 179.09 549.78 10.87 523.96 -148.01 498.14 -197.45 483.77 -116 478.77 47.95 471.89 204.79 470.27 281.33 468.41 251.85 457.13 144.32 435.93 18.88 397.57 -79.98 340.9 -108.08 262.41 -66.13 164.89 30.9 63.26 151.32 -35.54 265.15 -112.47 366.07 -150.48 435.88 -140.13 478.51 -78.26 501.69 15.95 512.27 124.76 521.48 215.62 525.92 254.48 538.92 229.29 564.74 141.94 590.56 17.44 627.97 -99.16 672.23 -172.56 711.72 -187.07 748.1 -137.36 769.67 -41.83 771.79 77.23 744.5 190.6 683.37 277.01 609.33 327.42 525.98 338.41 462.78 319.15 454.68 274.23 513.39 221.88 639.14 174.42 856.8 113.49 841.86 83.83 616.8 104.54 545.31 124.08 599.98 147.87 758.87 173.69Q758.87 173.69 758.87 173.69" opacity="0.09"></path><path d="M724.94 247.52C880.44 270.99 960.63 303.01 931.85 343.55 811.72 385.36 656.51 437.61 531.62 500.05 477.68 563.67 506.34 635.25 591.63 709.5 705.01 775 799 830.78 848.83 866.4 851.42 875.87 806.5 854.19 732.96 799.96 638.85 726.92 545.86 640.93 465.5 560.79 389.94 511.26 331.58 502.52 288.19 543.71 248.41 629.8 217.79 743.24 194.32 855.9 170.85 937.74 155.63 964.61 151.15 933.61 150.27 855.06 165.93 748.3 200.82 638.58 240.5 543.86 294.83 481.23 352.77 455.19 390.13 465.29 401.35 501.64 368 551.03 287.4 610.77 165.58 663.54 27.76 702.47 -81.96 733.17 -131.67 746.5 -94.93 745.08 12.74 735.91 154.59 717.62 265.67 694.72 285.39 669.53 200.44 644.1 44.94 620.62 -102.82 597.15 -164.28 576.75 -115.58 557.67 16.98 536.31 171.7 511.9 284.8 480.39 320.54 441.14 275.1 389.15 179.97 322.28 65.58 247.17 -21.07 160.7 -58.91 70.2 -47.23 -9.94 9.86 -74.12 91.64 -108.67 190.46 -107.07 284.11 -65.49 362.62 12.02 434.31 104.54 488.45 197.94 528.46 267.42 564.54 289.37 593.1 257.74 616.57 175.9 640.05 63.24 657.32 -45.44 665.51 -122.47 669.77 -154.6 658.34 -132.5 627.33 -65.77 589.5 31.57 534.51 138.61 471.86 236.09 426.25 314.76 402.84 364.27 421.9 385.57 490.49 380.71 604.97 358.62 743.8 329.3 863.38 291.23 929.89 258.3 911.38 235.36 815.51 213.59 674.15 204.04 550.62 206.5 510.95 210.22 577.13 224.04 724.87 247.51Q724.94 247.52 724.94 247.52" opacity="0.99"></path><path d="M690.16 404.21C832.35 425.34 918.17 456.75 917.52 497.1 835.19 537.16 703.59 585.19 570.98 638.32 473.7 687.92 438.08 737.48 461.93 780.9 534.35 811.84 624.79 827.43 706.59 821.64 771.76 796.56 801.51 748.68 798.07 681.79 768.09 611.24 718.76 541.48 662.46 487.15 597.81 464.6 538.56 478.31 490.27 531.47 441.51 617.06 405.71 720.96 384.59 821.79 363.47 897.55 358.01 929.44 366.93 914.01 375.39 857.26 396.21 770.73 424.25 672.49 443.94 575.78 458.48 496.43 455.9 442.36 426.78 415.65 366.7 414.93 273.84 433.08 164.35 468.44 48.87 508.77 -45.54 546.36 -91.38 585.42 -74.71 614.34 7.07 631.46 183.98 646.65 265.4 625.75 78.16 597.09 -57.37 575.97 -126.5 549.78 -106.47 518.07 -8.91 484.89 128.07 443.66 255.48 393.26 339.14 339.54 357.94 275.83 319.3 204.21 236.82 134.06 143.56 63.4 65.29 0.35 8.81 -45.49 -9.91 -69.83 4.29 -65.12 44.77 -33.06 101.99 27.33 163.41 108.56 231.67 191.32 292.55 265.82 341.33 314.43 390.06 321.73 425.63 285.57 446.76 209.84 467.88 109.01 473.55 9.37 464.66 -68.06 455.73 -113.09 433.28 -114.79 401.62 -76.76 376.81 -6.95 354.39 81.75 346.47 174.29 364.81 263.19 413.88 336.11 498.04 388.88 604 422.37 722.31 437.11 826.78 438.72 887.42 427.86 887.57 413.09 819.39 400.1 707.46 383.58 582.5 373.98 493.08 373.76 481.21 373.25 554.62 383.09 690.16 404.21Q690.16 404.21 690.16 404.21" opacity="0.44"></path><path d="M656.93 558.81C784.86 577.58 871.7 602.63 892.81 632.29 846.37 660.81 747.53 691.58 627.81 721.28 513.86 745.94 433.81 764.56 398.61 772.76 409.03 770.59 454.31 753.51 516.8 719.83 590.31 676.68 653.52 621.09 698.09 558.87 733.95 480.42 702.28 447.57 663.27 523.36 634.07 605.48 608.68 698.9 589.91 787.95 571.13 857.09 559.85 892.1 553.63 889.66 544.74 853.1 535.56 788.34 520.23 707.38 494.47 619.08 453.91 536.08 393.93 466.87 320.42 413.92 230.26 381.13 132.13 366.41 11.26 375.05 -5.22 436.86 126.56 465.76 276.59 488.91 286.18 489.83 112.93 466.51 -9.96 447.73 -83.75 420.16 -88.55 384.6 -27.07 348.79 80.84 304.78 201.88 254 309.63 204.17 378.24 150.05 400.15 95.7 376.69 48.51 321.8 8.43 254.15 -18.25 179.71 -28.14 119.45 -17.61 80.15 15.77 56.4 65.43 54.14 131.59 67.34 206.13 90.98 273.33 120.8 327.4 150.43 356.71 182.57 351.91 209.41 313.09 228.19 243.95 246.98 154.9 256.8 65.29 260.08 -9.58 265.86 -62.58 270.2 -82.99 279.09 -70.79 298.42 -30.13 331.6 32.83 384.29 107.77 452.52 189.54 539.74 267.4 638.79 335.16 731.05 393.45 808.22 437.49 851.24 468.6 848.89 489.34 797.15 501.64 703.17 509.52 547.27 514.06 495.2 534.21 656.86 558.8Q656.93 558.81 656.93 558.81" opacity="0.38"></path><path d="M622.86 626.8C823.98 659.66 843.14 689.84 689.22 703.83 483.48 702.79 367.02 663.59 366.94 582.38 454.65 498 549.82 417.94 602.09 392.55 639.04 454.95 633.86 594.19 601 753.94 568.14 854.54 510.71 841.18 416.81 737.32 307.59 587.76 161.14 451.4 30.36 362.56 -12.62 319.95 68.97 314.7 250.62 318.57 380.46 334.82 347.98 332.44 146.86 299.58 -39.64 266.72 -30.44 206.49 140.06 133.29 340.67 72.47 436.76 26.43 417.32 25.98 316.94 71.75 220.48 173.26 172.42 298.73 143.24 378.5 153.87 378.54 186.73 277.94 219.59 118.19 271.58 -7.72 357.7 -46.04 462.71 3.43 610.45 118.35 753.9 245.8 816.41 370.07 755.18 460.56 578.65 518.55 432.23 561.51 436.35 593.94 622.86 626.8Q622.86 626.8 622.86 626.8" opacity="0.78"></path><path d="M588.94 571.41C769 599.57 824.53 606.2 738.77 588.14 569.45 564.39 412.52 511.77 325.53 441.04 309.32 387.43 341.25 355.17 375.47 374.12 420.41 454.45 433.94 583.59 405.77 719.9 377.6 812.28 310.41 821.31 216.66 757.16 133.63 644.45 57.73 519.9 37.03 416.09 87.11 333.55 214.16 282.72 362.83 252.4 427.95 233.97 361 215.46 180.94 187.29 11.8 159.13 -20.09 123.97 85.03 93.59 260.52 75.1 408.69 81.96 480.58 127.59 479.71 194.47 436.31 289.14 396.88 381.21 349.57 424.73 336.06 404.29 364.23 311.95 392.38 175.63 459.54 57.88 555.66 -1.8 643.91 -0.12 731.28 62 769.08 152.53 734.13 260.18 615.85 356.76 461 429.33 376.49 496.2 419.77 543.23 588.87 571.4Q588.94 571.41 588.94 571.41" opacity="0.50"></path><path d="M554.94 422.72C710.44 446.19 787.49 444.59 762.91 421.82 657.78 400.66 520.22 364.85 401.85 328.42 310.31 314.19 262.14 324.88 240.69 374.06 235.45 459.9 228.04 573.25 204.57 685.9 181.1 767.74 143.78 792.21 108.35 762.44 89.12 691.34 100.66 597.49 161.44 505.32 249.04 414.87 361.71 343.05 449.63 291.9 457 247.1 370.44 214.27 214.94 190.8 67.17 167.33 8.34 155.43 51.45 159.56 169.5 170.03 309.64 205.22 422.75 264.9 503.46 326.3 540.44 395.25 553.82 449.15 551.39 461.72 554.94 427.76 578.41 345.95 601.87 233.28 643.05 129.44 686.15 60.78 713.45 28.8 713.12 43 663.19 88 580.85 155.19 465.61 227.64 364.75 289.47 338.82 352.92 407.14 399.24 554.87 422.71Q554.94 422.72 554.94 422.72" opacity="0.33"></path><path d="M520.59 261.62C690.37 281.99 674.76 269.97 542.22 269.22 443.17 288.09 362.09 327.11 305.57 389.6 255.85 469.64 222.95 562.81 204.17 651.85 185.39 721.01 182.51 753.67 199.69 749.99 223.67 717.24 275.44 661.82 349.89 598.63 417.6 527.82 478.1 463.22 501.65 412.46 467.78 362.63 376.56 326.88 248.59 308.11 125.76 289.33 55.12 289.3 50.28 306.58 102.22 324.81 192.17 360.1 288.3 406.3 386.69 444.88 464.02 480.38 516.44 499.36 561.06 489.28 590.78 449.01 609.56 379.85 628.34 290.81 634.4 205.25 622.32 138.98 602.44 90.25 554.42 71.15 480.63 76.88 409.11 99.48 339.08 134.32 300.9 170.22 319.51 210.24 397.76 242.84 520.59 261.62Q520.59 261.62 520.59 261.62" opacity="0.20"></path><path d="M486.94 175.89C667 204.06 717.4 227.66 657.3 273.34 537.28 352 432.8 481.59 404.64 617.9 376.47 710.28 429.95 714.76 513.05 663.48 536.23 580.46 463 503.66 282.94 475.49 113.79 447.32 85.79 473.13 161.71 519.23 291.39 533.59 397.26 506.28 425.43 413.9 453.59 277.59 398.72 170.83 305.96 129.09 266.96 120.32 317.79 147.72 486.94 175.89Q486.94 175.89 486.94 175.89" opacity="0.16"></path><path d="M452.87 212.07C671.02 249.63 638.1 401.22 600.55 583.89 562.99 690.45 535.02 639.29 316.87 601.73 117.29 564.18 177.8 554.45 215.36 447.89 252.91 265.22 253.29 174.52 452.87 212.07Q452.87 212.07 452.87 212.07" opacity="0.10"></path></g></svg>