<svg xmlns="http://www.w3.org/2000/svg" version="1.1" xmlns:xlink="http://www.w3.org/1999/xlink" xmlns:svgjs="http://svgjs.dev/svgjs" viewBox="0 0 800 800"><defs><linearGradient x1="50%" y1="0%" x2="50%" y2="100%" id="ssscribble-grad"><stop stop-color="hsl(206, 75%, 49%)" stop-opacity="1" offset="0%"></stop><stop stop-color="hsl(331, 90%, 56%)" stop-opacity="1" offset="100%"></stop></linearGradient></defs><g fill="none" stroke-width="1" stroke="url(#ssscribble-grad)" stroke-linecap="round"><path d="M732.89 326.7C810.06 350.18 874.1 361.27 917.36 361.76 938.81 363.62 933.6 358.11 904.66 350.26 856.56 350.79 794.33 358.6 725.4 381.75 653.02 424.19 584.15 489.31 522.83 576.68 468.26 673.36 423.68 772.94 388.37 856.69 360.39 905.31 338.7 907.8 320.72 857.91 306.56 771.43 292.57 665.31 276.66 571.84 261.72 526.49 242.95 543.63 219.47 623.57 196 742.48 168.94 855.7 139.62 927.34 111.26 941.01 82.55 891.7 56.04 798.22 33.34 683.25 16.37 576.25 8.17 497.84 7.31 456.44 18.2 453.92 42 479.92 72.56 529.37 113.59 583.5 161.53 630.49 206.02 673.74 247.21 699.88 278.1 709.3 289.83 710.56 281.68 699.72 251.18 681.41 198.86 660.37 130.06 636.93 52.89 613.46 -23.32 589.99 -84.74 567.59 -124.18 544.36 -140.99 518.41 -131.07 486.56 -97.89 444.61 -46.22 394.52 18.44 329.73 88.6 250.3 161.1 167.14 229.06 79.3 288.77 -0.9 341.04 -57.67 383.09 -82.97 415.91 -66.01 441.25 -12.04 460.6 73.89 476.69 171.66 489 247.94 501.6 283.88 516.61 261.16 530.69 180.46 549.02 62.48 572.5 -56.42 595.97 -136.36 623.47 -148.74 653.65 -94.34 682.91 8.18 713 127.66 741.37 231.34 765.96 298.43 785.26 317 796.11 292.82 799.47 233.51 791.12 161.76 769.61 95.84 740.67 39.24 700.54 7.81 652.48 1.55 606.76 14.58 563.14 45.43 528.67 85.57 512.69 134.1 516.12 182.31 541.99 224.71 590.48 268.49 656.64 303.22 732.86 326.69Q732.89 326.7 732.89 326.7" opacity="0.54"></path><path d="M698.53 200.46C768.25 221.59 827.75 238.35 871.16 252.52 898.09 268.86 903.59 286.83 889.01 310.63 857.6 342.21 811.79 385.68 756.94 443.95 695.45 511.76 632.77 592.27 572.94 679.23 515.13 758.72 463.65 825.41 419.34 865.53 379.49 871.04 345.91 837.51 317.48 767.39 291.99 679.66 269.3 588.02 248.09 516.79 227.74 489.99 207.24 514.85 186.12 589.46 164.99 695.81 144.25 800.38 124.75 875.77 106.13 908.38 90.39 888.78 79.26 825.99 71.09 733.54 69.87 631.92 77.16 539.88 88.92 466.42 110.07 421.47 140.19 403.84 172.33 411.41 209.97 435.26 249.46 465.59 282.32 503.84 309.18 536.63 325.1 559.5 324.2 580.86 306.68 590.45 271.59 588.7 220.03 585.63 156.25 573.27 86.53 552.14 17.61 531.02 -39.62 502.14 -79.68 465.37 -102.46 427.28 -103.53 379.27 -84.74 321.3 -49.47 261.83 -0.59 194.24 56.37 123.44 119.13 60.54 182.15 6.36 241.56 -28.89 298.26 -38.97 348.21 -19.07 390.8 32.38 428.63 102.42 460.27 185.09 487.01 262.06 510.75 309.38 532.05 316.97 552.31 276.23 571.71 192.7 591.71 83.86 612.83 -22.48 633.96 -97.12 655.21 -117.72 675.65 -82.78 695.23 -3.42 712.36 100.25 725.23 203.46 736.67 315.31 713.13 319.11 674.31 246.49 642.58 187.21 604.62 137.03 563.85 101.78 513.91 71.72 482.4 95.45 519.88 129.18 568.09 154.85 629.61 179.34 698.53 200.46Q698.53 200.46 698.53 200.46" opacity="0.54"></path><path d="M664.88 210.08C727.04 228.86 781.33 252.1 823.41 280.29 853.55 309.91 867.06 346.97 864.34 392.66 847.88 441.69 818.18 500.36 778.84 566.93 731.68 632.62 680.39 699.47 628.44 759.93 575.16 804.66 524.73 829.69 478.81 827.62 434.6 799.39 395.42 743.91 361.37 667.79 328.99 588.88 300.68 516.44 276.03 467.31 251.95 456.59 230.51 486.96 211.73 555.62 192.95 649.45 177.73 744.03 166.39 819.3 155.63 865.11 149.78 870.55 149.62 838.31 151.12 775.44 159.38 693.72 174.65 607.3 191.63 523.24 215.1 453.51 243.77 402.42 271.11 369.16 300.14 353.76 327.74 351.14 353.97 367.23 339.95 407.1 290.46 413.07 241.13 414.52 183.04 406.33 120.88 387.56 59.33 368.78 6.76 340.3 -32.74 303.43 -59.6 266.91 -69.49 223.03 -63.17 174.6 -43.19 129.71 -10.42 85.24 31.39 46.98 80.49 20.66 133.04 9.1 185.62 17.75 239 44.23 289.08 91.69 334.35 156.2 377.6 223.07 415.72 287.95 448.76 337.06 480.01 355.54 507.38 339.41 531.35 286.36 554.73 203.84 575.8 105.45 594.57 11.62 613.36 -57.03 628.96 -83.6 641 -65.63 652.44 -9.26 659.23 73.86 660.52 166.54 660.03 256.41 652.83 328.74 638.52 376.52 622.2 398.14 599.08 395.38 570.3 375.26 542.34 339.41 512.04 299.51 482.5 262.77 452.26 211.27 455.8 166.31 500.19 170.64 546.93 177.86 603.3 191.29 664.85 210.07Q664.88 210.08 664.88 210.08" opacity="0.77"></path><path d="M630.85 348.75C736.83 381.61 807.77 448.05 830.66 540.53 812.41 628.7 755 722.36 679.28 781.76 591.12 780.76 507.54 702.5 439.35 566.22 373.05 455.72 322.12 427.23 289.26 521.61 250.56 752.45 281.46 671.63 342.7 467.44 375.35 363.39 397.9 308.3 392.07 282.69 345.09 275.96 260.83 264.14 154.85 231.27 50.72 198.41 -15.46 147.62 -32.44 97.4 -7.92 66.07 54.4 69.87 133.12 130.85 222.89 220.36 306.63 328.75 374.31 391.6 439.62 352.01 489.81 214.21 522.67 45.61 555.53 -48.76 567.96 -6.95 559.59 127.63 548.86 287.99 516.41 401.11 469.7 445.17 434.05 428.84 406.58 386.47 406.15 355.25 447.21 319.72 526.72 315.89 630.85 348.75Q630.85 348.75 630.85 348.75" opacity="0.74"></path><path d="M596.89 522.23C688.69 550.4 755.65 600.97 787.99 660.48 791.6 708 762.87 739.27 714.62 728.78 652.29 679.68 586.96 583.82 529.81 470.46 471.34 399.5 425.44 399.02 397.27 487.57 365.22 691.64 390.02 724.47 426.12 567.85 437.46 452.22 436.31 362 412.06 301.38 359.06 252.56 280.69 217.92 188.89 189.75 98.45 161.58 35.06 142.56 7.39 142.57 9.11 154.37 42.58 200.63 94.34 279.34 159.43 353.12 226.29 415.1 284.09 423.27 342.83 355.21 388.73 223.56 416.89 79.62 445.07 -8.96 452.84 2.9 442.91 94.5 433.93 228.5 411.02 354.25 382.85 440.27 368 487.68 364.4 500.37 383.32 501.66 431.63 490.96 506.43 494.06 596.86 522.22Q596.89 522.23 596.89 522.23" opacity="0.71"></path><path d="M562.89 612.63C640.06 636.1 700.28 659.82 736.79 674.95 755.26 680.46 749.46 661.77 726.2 611.11 691.11 547.17 648.92 463.96 608.44 387.4 565.4 353.65 529.52 373.63 506.05 453.57 482.58 572.48 473.73 680.83 476.1 745.28 475.9 762 481.46 725.93 485.79 659.95 478.28 573.56 459.18 489.89 423.51 423.81 369.8 359.69 300.06 314.69 222.89 291.22 146.67 267.75 88.98 268.02 55.93 291.47 41.64 316.87 51.48 363.91 78.08 419.53 116.28 454.74 160.67 465.93 202.46 432.01 246.62 350.37 283.02 232.52 306.49 113.62 329.97 33.64 338.3 23.15 334.81 74.1 333.7 167.87 325.94 275.98 318.5 370.68 322.66 452.11 337.71 507.43 369.2 542.6 419.46 568.15 486.65 589.15 562.86 612.62Q562.89 612.63 562.89 612.63" opacity="1.00"></path><path d="M528.73 558.39C590.89 577.16 642.02 580.67 677.8 567.72 703.78 551.38 713.26 514.82 709.05 461.55 696.99 411.53 676.78 359.57 653.72 322.66 628.34 318.81 604.46 350.89 585.68 419.52 566.9 513.36 555.01 603.81 547.84 670.86 538.35 714.15 529.26 722.16 516.71 703.02 496.31 664.45 466.91 615.96 427.17 570.87 377.63 522.29 318.89 485.39 256.73 466.61 195.18 447.84 145.75 448.96 112.35 464.99 86.18 487.14 116.01 491.25 151.76 420.24 178.54 339.43 203.18 241.36 221.96 147.52 240.73 78.89 251.88 54.42 257.63 72.03 265.64 122.71 272.52 194.58 282.29 269.22 299.93 347.1 326.24 412.97 362.97 461.85 410.14 507.34 467.18 539.61 528.73 558.39Q528.73 558.39 528.73 558.39" opacity="0.21"></path><path d="M494.89 396.49C586.69 424.66 644.88 390.05 662.23 324.18 663.86 289.26 642.15 297.02 613.98 385.57 585.81 529.53 556.53 639.02 517.98 673.67 463.72 666.16 382.69 624.93 290.89 596.77 200.44 568.6 145.6 558.82 131.66 529.41 133.92 457.85 158.16 325.53 186.33 181.57 214.5 93.02 241.26 108.1 275.91 179.93 326.77 282.71 404.44 368.32 494.89 396.49Q494.89 396.49 494.89 396.49" opacity="0.11"></path><path d="M460.86 236.92C580.49 274.48 620.91 254.33 583.36 351.56 545.8 544.13 444.49 630.61 324.86 593.05 207.64 555.5 172.12 408.13 209.68 215.56 247.23 118.33 343.64 199.37 460.86 236.92Q460.86 236.92 460.86 236.92" opacity="0.13"></path></g></svg>