<svg xmlns="http://www.w3.org/2000/svg" version="1.1" xmlns:xlink="http://www.w3.org/1999/xlink" xmlns:svgjs="http://svgjs.dev/svgjs" viewBox="0 0 800 800"><defs><linearGradient x1="50%" y1="0%" x2="50%" y2="100%" id="ffflurry-grad" gradientTransform="rotate(270)"><stop stop-color="hsl(238, 82%, 13%)" stop-opacity="1" offset="0%"></stop><stop stop-color="hsl(1.4, 100%, 67%)" stop-opacity="1" offset="45%"></stop><stop stop-color="hsl(167, 52%, 78%)" stop-opacity="1" offset="100%"></stop></linearGradient></defs><rect width="100%" height="100%" fill="hsl(238, 82%, 13%)"></rect><g fill="url(#ffflurry-grad)"><rect width="710" height="3" x="259" y="453.5" rx="1.5" transform="rotate(45, 614, 455)" opacity="0.58"></rect><rect width="54" height="3" x="292" y="30.5" rx="1.5" transform="rotate(45, 319, 32)" opacity="0.62"></rect><rect width="219" height="3" x="205.5" y="700.5" rx="1.5" transform="rotate(45, 315, 702)" opacity="0.29"></rect><rect width="479" height="3" x="152.5" y="647.5" rx="1.5" transform="rotate(45, 392, 649)" opacity="0.58"></rect><rect width="364" height="3" x="250" y="575.5" rx="1.5" transform="rotate(45, 432, 577)" opacity="0.53"></rect><rect width="589" height="3" x="458.5" y="667.5" rx="1.5" transform="rotate(45, 753, 669)" opacity="0.27"></rect><rect width="200" height="3" x="422" y="36.5" rx="1.5" transform="rotate(45, 522, 38)" opacity="0.38"></rect><rect width="572" height="3" x="428" y="455.5" rx="1.5" transform="rotate(45, 714, 457)" opacity="0.50"></rect><rect width="149" height="3" x="349.5" y="397.5" rx="1.5" transform="rotate(45, 424, 399)" opacity="0.49"></rect><rect width="317" height="3" x="227.5" y="766.5" rx="1.5" transform="rotate(45, 386, 768)" opacity="0.65"></rect><rect width="219" height="3" x="665.5" y="497.5" rx="1.5" transform="rotate(45, 775, 499)" opacity="0.96"></rect><rect width="376" height="3" x="137" y="143.5" rx="1.5" transform="rotate(45, 325, 145)" opacity="0.70"></rect><rect width="618" height="3" x="230" y="228.5" rx="1.5" transform="rotate(45, 539, 230)" opacity="0.09"></rect><rect width="204" height="3" x="-40" y="220.5" rx="1.5" transform="rotate(45, 62, 222)" opacity="0.45"></rect><rect width="501" height="3" x="412.5" y="37.5" rx="1.5" transform="rotate(45, 663, 39)" opacity="0.31"></rect><rect width="214" height="3" x="135" y="755.5" rx="1.5" transform="rotate(45, 242, 757)" opacity="0.10"></rect><rect width="551" height="3" x="413.5" y="366.5" rx="1.5" transform="rotate(45, 689, 368)" opacity="0.76"></rect><rect width="446" height="3" x="-58" y="168.5" rx="1.5" transform="rotate(45, 165, 170)" opacity="0.79"></rect><rect width="484" height="3" x="520" y="303.5" rx="1.5" transform="rotate(45, 762, 305)" opacity="0.70"></rect><rect width="208" height="3" x="241" y="339.5" rx="1.5" transform="rotate(45, 345, 341)" opacity="0.62"></rect><rect width="153" height="3" x="404.5" y="670.5" rx="1.5" transform="rotate(45, 481, 672)" opacity="0.26"></rect><rect width="266" height="3" x="156" y="88.5" rx="1.5" transform="rotate(45, 289, 90)" opacity="0.31"></rect><rect width="421" height="3" x="164.5" y="503.5" rx="1.5" transform="rotate(45, 375, 505)" opacity="0.71"></rect><rect width="74" height="3" x="403" y="208.5" rx="1.5" transform="rotate(45, 440, 210)" opacity="0.26"></rect><rect width="138" height="3" x="155" y="44.5" rx="1.5" transform="rotate(45, 224, 46)" opacity="0.81"></rect><rect width="561" height="3" x="85.5" y="253.5" rx="1.5" transform="rotate(45, 366, 255)" opacity="0.39"></rect><rect width="248" height="3" x="157" y="444.5" rx="1.5" transform="rotate(45, 281, 446)" opacity="0.18"></rect><rect width="484" height="3" x="455" y="758.5" rx="1.5" transform="rotate(45, 697, 760)" opacity="0.54"></rect><rect width="509" height="3" x="240.5" y="122.5" rx="1.5" transform="rotate(45, 495, 124)" opacity="0.58"></rect><rect width="710" height="3" x="-179" y="289.5" rx="1.5" transform="rotate(45, 176, 291)" opacity="0.52"></rect><rect width="232" height="3" x="31" y="55.5" rx="1.5" transform="rotate(45, 147, 57)" opacity="0.94"></rect><rect width="304" height="3" x="155" y="770.5" rx="1.5" transform="rotate(45, 307, 772)" opacity="0.12"></rect><rect width="304" height="3" x="-86" y="130.5" rx="1.5" transform="rotate(45, 66, 132)" opacity="0.58"></rect><rect width="672" height="3" x="-194" y="493.5" rx="1.5" transform="rotate(45, 142, 495)" opacity="0.48"></rect><rect width="78" height="3" x="291" y="547.5" rx="1.5" transform="rotate(45, 330, 549)" opacity="0.84"></rect><rect width="442" height="3" x="189" y="712.5" rx="1.5" transform="rotate(45, 410, 714)" opacity="0.72"></rect><rect width="42" height="3" x="313" y="403.5" rx="1.5" transform="rotate(45, 334, 405)" opacity="0.61"></rect><rect width="174" height="3" x="-55" y="17.5" rx="1.5" transform="rotate(45, 32, 19)" opacity="0.93"></rect><rect width="69" height="3" x="499.5" y="608.5" rx="1.5" transform="rotate(45, 534, 610)" opacity="0.11"></rect><rect width="415" height="3" x="-179.5" y="739.5" rx="1.5" transform="rotate(45, 28, 741)" opacity="0.25"></rect><rect width="463" height="3" x="363.5" y="319.5" rx="1.5" transform="rotate(45, 595, 321)" opacity="0.57"></rect><rect width="575" height="3" x="374.5" y="606.5" rx="1.5" transform="rotate(45, 662, 608)" opacity="0.61"></rect><rect width="170" height="3" x="537" y="150.5" rx="1.5" transform="rotate(45, 622, 152)" opacity="0.22"></rect><rect width="301" height="3" x="222.5" y="449.5" rx="1.5" transform="rotate(45, 373, 451)" opacity="0.90"></rect><rect width="642" height="3" x="91" y="50.5" rx="1.5" transform="rotate(45, 412, 52)" opacity="0.52"></rect><rect width="690" height="3" x="405" y="132.5" rx="1.5" transform="rotate(45, 750, 134)" opacity="0.55"></rect><rect width="259" height="3" x="164.5" y="246.5" rx="1.5" transform="rotate(45, 294, 248)" opacity="0.24"></rect><rect width="173" height="3" x="143.5" y="221.5" rx="1.5" transform="rotate(45, 230, 223)" opacity="0.35"></rect><rect width="733" height="3" x="-318.5" y="548.5" rx="1.5" transform="rotate(45, 48, 550)" opacity="0.47"></rect><rect width="376" height="3" x="62" y="148.5" rx="1.5" transform="rotate(45, 250, 150)" opacity="0.48"></rect><rect width="406" height="3" x="319" y="391.5" rx="1.5" transform="rotate(45, 522, 393)" opacity="0.59"></rect><rect width="498" height="3" x="355" y="71.5" rx="1.5" transform="rotate(45, 604, 73)" opacity="0.99"></rect><rect width="573" height="3" x="-76.5" y="376.5" rx="1.5" transform="rotate(45, 210, 378)" opacity="0.54"></rect><rect width="262" height="3" x="-77" y="56.5" rx="1.5" transform="rotate(45, 54, 58)" opacity="0.07"></rect><rect width="272" height="3" x="377" y="757.5" rx="1.5" transform="rotate(45, 513, 759)" opacity="0.52"></rect><rect width="533" height="3" x="187.5" y="313.5" rx="1.5" transform="rotate(45, 454, 315)" opacity="0.09"></rect><rect width="607" height="3" x="384.5" y="224.5" rx="1.5" transform="rotate(45, 688, 226)" opacity="0.80"></rect><rect width="556" height="3" x="-209" y="320.5" rx="1.5" transform="rotate(45, 69, 322)" opacity="0.13"></rect><rect width="37" height="3" x="166.5" y="729.5" rx="1.5" transform="rotate(45, 185, 731)" opacity="0.65"></rect><rect width="167" height="3" x="186.5" y="318.5" rx="1.5" transform="rotate(45, 270, 320)" opacity="0.59"></rect><rect width="360" height="3" x="-45" y="746.5" rx="1.5" transform="rotate(45, 135, 748)" opacity="0.13"></rect><rect width="222" height="3" x="70" y="574.5" rx="1.5" transform="rotate(45, 181, 576)" opacity="0.61"></rect><rect width="386" height="3" x="19" y="461.5" rx="1.5" transform="rotate(45, 212, 463)" opacity="0.33"></rect><rect width="416" height="3" x="120" y="621.5" rx="1.5" transform="rotate(45, 328, 623)" opacity="0.20"></rect><rect width="515" height="3" x="0.5" y="552.5" rx="1.5" transform="rotate(45, 258, 554)" opacity="0.66"></rect><rect width="441" height="3" x="389.5" y="690.5" rx="1.5" transform="rotate(45, 610, 692)" opacity="0.57"></rect><rect width="242" height="3" x="600" y="558.5" rx="1.5" transform="rotate(45, 721, 560)" opacity="0.46"></rect><rect width="351" height="3" x="64.5" y="656.5" rx="1.5" transform="rotate(45, 240, 658)" opacity="0.56"></rect><rect width="484" height="3" x="-103" y="634.5" rx="1.5" transform="rotate(45, 139, 636)" opacity="0.82"></rect><rect width="254" height="3" x="-45" y="760.5" rx="1.5" transform="rotate(45, 82, 762)" opacity="0.65"></rect><rect width="143" height="3" x="313.5" y="148.5" rx="1.5" transform="rotate(45, 385, 150)" opacity="0.69"></rect><rect width="136" height="3" x="-11" y="655.5" rx="1.5" transform="rotate(45, 57, 657)" opacity="0.32"></rect><rect width="469" height="3" x="370.5" y="552.5" rx="1.5" transform="rotate(45, 605, 554)" opacity="0.36"></rect><rect width="218" height="3" x="-41" y="422.5" rx="1.5" transform="rotate(45, 68, 424)" opacity="0.41"></rect><rect width="179" height="3" x="662.5" y="36.5" rx="1.5" transform="rotate(45, 752, 38)" opacity="0.76"></rect><rect width="243" height="3" x="339.5" y="490.5" rx="1.5" transform="rotate(45, 461, 492)" opacity="0.83"></rect><rect width="370" height="3" x="348" y="496.5" rx="1.5" transform="rotate(45, 533, 498)" opacity="0.97"></rect></g></svg>