<svg xmlns="http://www.w3.org/2000/svg" version="1.1" xmlns:xlink="http://www.w3.org/1999/xlink" xmlns:svgjs="http://svgjs.dev/svgjs" viewBox="0 0 800 800"><defs><filter id="llleaves-blur-2" x="-100%" y="-100%" width="400%" height="400%"><feGaussianBlur in="SourceGraphic" stdDeviation="2"></feGaussianBlur></filter><filter id="llleaves-blur-3" x="-100%" y="-100%" width="400%" height="400%"><feGaussianBlur in="SourceGraphic" stdDeviation="4"></feGaussianBlur></filter><filter id="llleaves-blur-4" x="-100%" y="-100%" width="400%" height="400%"><feGaussianBlur in="SourceGraphic" stdDeviation="12"></feGaussianBlur></filter></defs><g fill="hsl(335, 77%, 50%)"><path d="M276 735H326C354 735 376 757 376 785H326C298 785 276 763 276 735Z " transform="matrix(-0.22062091928307465,-0.4149276017047155,0.4149276017047155,-0.22062091928307465,82.57744239069856,1062.938296810874)" opacity="0.72"></path><path d="M604 331H654C682 331 704 353 704 381H654C626 381 604 359 604 331Z " transform="matrix(-0.3845457334088762,-0.074748118537608,0.074748118537608,-0.3845457334088762,878.8825794500166,541.7835506171556)" filter="url(#llleaves-blur-2)" opacity="0.60"></path><path d="M304 355H354C382 355 404 377 404 405H354C326 405 304 383 304 355Z " transform="matrix(-0.24534184075121845,-0.3926290191726655,0.3926290191726655,-0.24534184075121845,291.65198434031845,612.2205722725867)" opacity="0.71"></path><path d="M103 579H153C181 579 203 601 203 629H153C125 629 103 607 103 579Z " transform="matrix(-0.05258292718423454,-0.5002931333006562,0.5002931333006562,-0.05258292718423454,-141.1318646544084,712.304937414278)" opacity="0.77"></path><path d="M265 450H315C343 450 365 472 365 500H315C287 500 265 478 265 450Z " transform="matrix(-0.20754546214339273,-0.4255312583349481,0.4255312583349481,-0.20754546214339273,178.24947286606834,707.6264408936202)" opacity="0.73"></path><path d="M376 35H426C454 35 476 57 476 85H426C398 85 376 63 376 35Z " transform="matrix(-0.38223217086068073,-0.1316130911149858,0.1316130911149858,-0.38223217086068073,580.9341193197508,139.0011070666248)" opacity="0.62"></path><path d="M342 155H392C420 155 442 177 442 205H392C364 205 342 183 342 155Z " transform="matrix(-0.29514676301192794,-0.339527511662468,0.339527511662468,-0.29514676301192794,446.5825790014315,366.2212019138345)" opacity="0.69"></path><path d="M205 319H255C283 319 305 341 305 369H255C227 369 205 347 205 319Z " transform="matrix(-0.15755986393116683,-0.4575870707140173,0.4575870707140173,-0.15755986393116683,137.7678129768256,514.8852962243958)" opacity="0.74"></path><path d="M196 528H246C274 528 296 550 296 578H246C218 578 196 556 196 528Z " transform="matrix(-0.1343406430917446,-0.4685014991130271,0.4685014991130271,-0.1343406430917446,19.966469191065244,742.5417444115394)" opacity="0.75"></path><path d="M591 432H641C669 432 691 454 691 482H641C613 482 591 460 591 432Z " transform="matrix(-0.3837194371186922,-0.10281731329607838,0.10281731329607838,-0.3837194371186922,839.9766470167739,698.2656805860287)" filter="url(#llleaves-blur-2)" opacity="0.61"></path><path d="M305 556H355C383 556 405 578 405 606H355C327 606 305 584 305 556Z " transform="matrix(-0.24534184075121845,-0.3926290191726655,0.3926290191726655,-0.24534184075121845,213.97889332736386,862.9269112827543)" opacity="0.71"></path><path d="M219 26H269C297 26 319 48 319 76H269C241 76 219 54 219 26Z " transform="matrix(-0.3804592091321999,-0.14604460718386944,0.14604460718386944,-0.3804592091321999,363.89525229018443,109.68941899820308)" opacity="0.63"></path><path d="M367 467H417C445 467 467 489 467 517H417C389 517 367 495 367 467Z " transform="matrix(-0.29485161956227024,-0.3391879879623836,0.3391879879623836,-0.29485161956227024,373.07263527997395,778.5083878049509)" opacity="0.69"></path><path d="M699 397H749C777 397 799 419 799 447H749C721 447 699 425 699 397Z " transform="matrix(-0.3542185504132941,0.062458287505305306,-0.062458287505305306,-0.3542185504132941,1040.6670915867962,524.6989709329365)" filter="url(#llleaves-blur-2)" opacity="0.55"></path><path d="M699 295H749C777 295 799 317 799 345H749C721 345 699 323 699 295Z " transform="matrix(-0.3542185504132941,0.062458287505305306,-0.062458287505305306,-0.3542185504132941,1034.2963462612552,386.56867879078044)" filter="url(#llleaves-blur-2)" opacity="0.55"></path><path d="M256 130H306C334 130 356 152 356 180H306C278 180 256 158 256 130Z " transform="matrix(-0.26290454486816883,-0.3754666017169178,0.3754666017169178,-0.26290454486816883,328.2514674635374,310.642984579943)" opacity="0.70"></path><path d="M155 734H205C233 734 255 756 255 784H205C177 784 155 762 155 734Z " transform="matrix(-0.10271023864389431,-0.48321368127578157,0.48321368127578157,-0.10271023864389431,-140.70358516631984,936.015875792251)" opacity="0.76"></path><path d="M520 128H570C598 128 620 150 620 178H570C542 178 520 156 520 128Z " transform="matrix(-0.3758120639012704,-0.16732231113385002,0.16732231113385002,-0.3758120639012704,758.6125628202451,305.87296312318887)" opacity="0.63"></path><path d="M11 733H61C89 733 111 755 111 783H61C33 783 11 761 11 733Z " transform="matrix(0.01797819046047583,-0.5148280155946784,0.5148280155946784,0.01797819046047583,-330.3363054388553,775.7770405822347)" opacity="0.79"></path><path d="M139 22H189C217 22 239 44 239 72H189C161 72 139 50 139 22Z " transform="matrix(-0.38314158727788483,-0.11713813857362038,0.11713813857362038,-0.38314158727788483,255.90826748256006,87.14676279247485)" opacity="0.61"></path><path d="M-1 239H49C77 239 99 261 99 289H49C21 289 -1 267 -1 239Z " transform="matrix(0.018010076783796368,-0.5157411204255463,0.5157411204255463,0.018010076783796368,-88.03814955475022,284.5166546299295)" opacity="0.79"></path><path d="M96 481H146C174 481 196 503 196 531H146C118 531 96 509 96 481Z " transform="matrix(-0.03527706809846801,-0.5044855773914882,0.5044855773914882,-0.03527706809846801,-104.11925021771674,597.5050907569821)" opacity="0.78"></path><path d="M-3 334H47C75 334 97 356 97 384H47C19 384 -3 362 -3 334Z " transform="matrix(0.018010076783796368,-0.5157411204255463,0.5157411204255463,0.018010076783796368,-138.99753584160956,376.7742150946178)" opacity="0.79"></path><path d="M622 30H672C700 30 722 52 722 80H672C644 80 622 58 622 30Z " transform="matrix(-0.38520450753856966,-0.07487617125658974,0.07487617125658974,-0.38520450753856966,926.7392396468063,126.50303499904965)" filter="url(#llleaves-blur-2)" opacity="0.60"></path><path d="M457 28H507C535 28 557 50 557 78H507C479 78 457 56 457 28Z " transform="matrix(-0.3815580534470779,-0.13887577409928906,0.13887577409928906,-0.3815580534470779,693.0895170704061,143.63259430103466)" opacity="0.62"></path><path d="M689 723H739C767 723 789 745 789 773H739C711 773 689 751 689 723Z " transform="matrix(-0.3542185504132941,0.062458287505305306,-0.062458287505305306,-0.3542185504132941,1047.4863078093929,966.7988012427232)" filter="url(#llleaves-blur-2)" opacity="0.55"></path><path d="M478 229H528C556 229 578 251 578 279H528C500 279 478 257 478 229Z " transform="matrix(-0.3510569529260324,-0.24581272477973895,0.24581272477973895,-0.3510569529260324,650.9216390508914,472.95758472691443)" opacity="0.66"></path><path d="M417 728H467C495 728 517 750 517 778H467C439 778 417 756 417 728Z " transform="matrix(-0.3264570935921235,-0.2939432873600664,0.2939432873600664,-0.3264570935921235,398.11616732539164,1136.0937066720198)" opacity="0.67"></path><path d="M541 25H591C619 25 641 47 641 75H591C563 75 541 53 541 25Z " transform="matrix(-0.3821815348445071,-0.1315956557363902,0.1315956557363902,-0.3821815348445071,810.289504306284,146.88210928243197)" opacity="0.62"></path><path d="M696 204H746C774 204 796 226 796 254H746C718 254 696 232 696 204Z " transform="matrix(-0.3542185504132941,0.062458287505305306,-0.062458287505305306,-0.3542185504132941,1024.5499864470323,263.52216556568663)" filter="url(#llleaves-blur-2)" opacity="0.55"></path><path d="M103 289H153C181 289 203 311 203 339H153C125 339 103 317 103 289Z " transform="matrix(-0.05258292718423454,-0.5002931333006562,0.5002931333006562,-0.05258292718423454,3.953144002781869,407.05588853085004)" opacity="0.77"></path><path d="M426 137H476C504 137 526 159 526 187H476C448 187 426 165 426 137Z " transform="matrix(-0.3477417229967379,-0.2526491505189898,0.2526491505189898,-0.3477417229967379,600.5958977623709,338.5951547725107)" opacity="0.66"></path><path d="M-3 634H47C75 634 97 656 97 684H47C19 684 -3 662 -3 634Z " transform="matrix(0.018010076783796368,-0.5157411204255463,0.5157411204255463,0.018010076783796368,-293.7198719692734,671.3711920594789)" opacity="0.79"></path><path d="M574 539H624C652 539 674 561 674 589H624C596 589 574 567 574 539Z " transform="matrix(-0.3827771105130054,-0.12437182247279545,0.12437182247279545,-0.3827771105130054,792.7072090854585,857.4943075523594)" opacity="0.62"></path><path d="M1 536H51C79 536 101 558 101 586H51C23 586 1 564 1 536Z " transform="matrix(0.01797819046047583,-0.5148280155946784,0.5148280155946784,0.01797819046047583,-238.73540446209893,577.1704639470017)" opacity="0.79"></path><path d="M612 135H662C690 135 712 157 712 185H662C634 185 612 163 612 135Z " transform="matrix(-0.38376558492523055,-0.06766822688968395,0.06766822688968395,-0.38376558492523055,905.225900918153,266.19885978900766)" filter="url(#llleaves-blur-2)" opacity="0.60"></path><path d="M609 643H659C687 643 709 665 709 693H659C631 693 609 671 609 643Z " transform="matrix(-0.3845457334088762,-0.074748118537608,0.074748118537608,-0.3845457334088762,862.4838951333271,974.135560033413)" filter="url(#llleaves-blur-2)" opacity="0.60"></path></g><g fill="none" stroke-width="3" stroke="hsl(335, 77%, 50%)"><path d="M314 659H364C392 659 414 681 414 709H364C336 709 314 687 314 659Z " transform="matrix(-0.24534184075121845,-0.3926290191726655,0.3926290191726655,-0.24534184075121845,184.74618091934028,994.7307820526837)" opacity="0.71"></path><path d="M551 731H601C629 731 651 753 651 781H601C573 781 551 759 551 731Z " transform="matrix(-0.38035489422379215,-0.14600456444221369,0.14600456444221369,-0.38035489422379215,719.2138407101855,1131.2970432629572)" opacity="0.63"></path><path d="M-14 33H36C64 33 86 55 86 83H36C8 83 -14 61 -14 33Z " transform="matrix(-0.36680543722958775,-0.2033235739784509,0.2033235739784509,-0.36680543722958775,37.412228449515005,86.59436402254032)" opacity="0.64"></path><path d="M398 622H448C476 622 498 644 498 672H448C420 672 398 650 398 622Z " transform="matrix(-0.30422230617423784,-0.3262384820328011,0.3262384820328011,-0.30422230617423784,373.21529529083625,989.9866720454268)" opacity="0.68"></path><path d="M176 411H226C254 411 276 433 276 461H226C198 461 176 439 176 411Z " transform="matrix(-0.118720770444145,-0.4761630025120625,0.4761630025120625,-0.118720770444145,45.22382502511752,595.3750944813734)" opacity="0.75"></path><path d="M386 266H436C464 266 486 288 486 316H436C408 316 386 294 386 266Z " transform="matrix(-0.30422230617423784,-0.3262384820328011,0.3262384820328011,-0.30422230617423784,473.7055272204226,521.7686692630044)" opacity="0.68"></path><path d="M583 234H633C661 234 683 256 683 284H633C605 284 583 262 583 234Z " transform="matrix(-0.3827771105130054,-0.12437182247279545,0.12437182247279545,-0.3827771105130054,843.0856089342783,436.86663524814793)" opacity="0.62"></path><path d="M71 100H121C149 100 171 122 171 150H121C93 150 71 128 71 100Z " transform="matrix(-0.22687121218057804,-0.409286501070079,0.409286501070079,-0.22687121218057804,97.29060404009007,202.88256815205182)" opacity="0.72"></path><path d="M407 372H457C485 372 507 394 507 422H457C429 422 407 400 407 372Z " transform="matrix(-0.31845399072931724,-0.30752744413981775,0.30752744413981775,-0.31845399072931724,480.44507843979034,663.9662762914356)" opacity="0.68"></path><path d="M704 109H754C782 109 804 131 804 159H754C726 159 704 137 704 109Z " transform="matrix(-0.342678392799325,0.08543931929416669,-0.08543931929416669,-0.342678392799325,1023.8283769561094,115.49765788730787)" filter="url(#llleaves-blur-2)" opacity="0.54"></path><path d="M83 381H133C161 381 183 403 183 431H133C105 431 83 409 83 381Z " transform="matrix(-0.026595279353044357,-0.5074681605837507,0.5074681605837507,-0.026595279353044357,-69.49490104304786,484.2909487749748)" opacity="0.78"></path><path d="M501 635H551C579 635 601 657 601 685H551C523 685 501 663 501 635Z " transform="matrix(-0.364357523299368,-0.21036191415815553,0.21036191415815553,-0.364357523299368,612.9221319935691,1016.3853800787265)" opacity="0.65"></path><path d="M488 448H538C566 448 588 470 588 498H538C510 498 488 476 488 448Z " transform="matrix(-0.3562079759936054,-0.2313241643677639,0.2313241643677639,-0.3562079759936054,620.2235613386074,765.9387730748324)" opacity="0.65"></path><path d="M285 245H335C363 245 385 267 385 295H335C307 295 285 273 285 245Z " transform="matrix(-0.23322124145511378,-0.4039510396045455,0.4039510396045455,-0.23322124145511378,304.06233519423586,468.29333346040346)" opacity="0.72"></path><path d="M-8 140H42C70 140 92 162 92 190H42C14 190 -8 168 -8 140Z " transform="matrix(-0.08622211600352746,-0.48898991893977445,0.48898991893977445,-0.08622211600352746,-35.06200775291464,199.76422573605257)" opacity="0.76"></path><path d="M88 193H138C166 193 188 215 188 243H138C110 243 88 221 88 193Z " transform="matrix(-0.03527706809846801,-0.5044855773914882,0.5044855773914882,-0.03527706809846801,32.890379526244146,295.3094105254914)" opacity="0.78"></path><path d="M188 217H238C266 217 288 239 288 267H238C210 267 188 245 188 217Z " transform="matrix(-0.1343406430917446,-0.4685014991130271,0.4685014991130271,-0.1343406430917446,156.59571027048264,386.01379241710265)" opacity="0.75"></path><path d="M691 500H741C769 500 791 522 791 550H741C713 550 691 528 691 500Z " transform="matrix(-0.3542185504132941,0.062458287505305306,-0.062458287505305306,-0.3542185504132941,1036.2665467965362,664.6831479255482)" filter="url(#llleaves-blur-2)" opacity="0.55"></path><path d="M300 31H350C378 31 400 53 400 81H350C322 81 300 59 300 31Z " transform="matrix(-0.3824108684313601,-0.13167462162299845,0.13167462162299845,-0.3824108684313601,476.4700251400881,123.50112620020562)" opacity="0.62"></path><path d="M59 13H109C137 13 159 35 159 63H109C81 63 59 41 59 13Z " transform="matrix(-0.3816133609342017,-0.13140001776992127,0.13140001776992127,-0.3816133609342017,145.60265566657097,66.82390965242108)" opacity="0.62"></path><path d="M707 18H757C785 18 807 40 807 68H757C729 68 707 46 707 18Z " transform="matrix(-0.37106335633765714,0.012957817933501472,-0.012957817933501472,-0.37106335633765714,1038.452146918747,49.14665614685864)" filter="url(#llleaves-blur-2)" opacity="0.57"></path><path d="M164 119H214C242 119 264 141 264 169H214C186 169 164 147 164 119Z " transform="matrix(-0.22663841419197486,-0.4088665223813077,0.4088665223813077,-0.22663841419197486,203.6238414141743,264.13336743324425)" opacity="0.72"></path><path d="M207 636H257C285 636 307 658 307 686H257C229 686 207 664 207 636Z " transform="matrix(-0.15755986393116683,-0.4575870707140173,0.4575870707140173,-0.15755986393116683,-4.97216871165557,882.7469472320035)" opacity="0.74"></path><path d="M502 333H552C580 333 602 355 602 383H552C524 383 502 361 502 333Z " transform="matrix(-0.364357523299368,-0.21036191415815553,0.21036191415815553,-0.364357523299368,677.8157875926314,604.5597699564756)" opacity="0.65"></path><path d="M92 672H142C170 672 192 694 192 722H142C114 722 92 700 92 672Z " transform="matrix(-0.03527706809846801,-0.5044855773914882,0.5044855773914882,-0.03527706809846801,-204.61710377188484,793.2250684542236)" opacity="0.78"></path><path d="M-4 437H46C74 437 96 459 96 487H46C18 487 -4 465 -4 437Z " transform="matrix(0.018010076783796368,-0.5157411204255463,0.5157411204255463,0.018010076783796368,-193.10086116865702,477.4034360654612)" opacity="0.79"></path><path d="M701 605H751C779 605 801 627 801 655H751C723 655 701 633 701 605Z " transform="matrix(-0.34040528417256866,0.09121132099332671,-0.09121132099332671,-0.34040528417256866,1064.1075006393949,775.9556269627298)" filter="url(#llleaves-blur-2)" opacity="0.54"></path><path d="M447 539H497C525 539 547 561 547 589H497C469 589 447 567 447 539Z " transform="matrix(-0.3338535651233252,-0.2801364033622022,0.2801364033622022,-0.3338535651233252,504.9282903700106,891.52120320057)" opacity="0.67"></path></g></svg>