<svg xmlns="http://www.w3.org/2000/svg" version="1.1" xmlns:xlink="http://www.w3.org/1999/xlink" xmlns:svgjs="http://svgjs.dev/svgjs" viewBox="0 0 800 800"><defs><linearGradient x1="50%" y1="0%" x2="50%" y2="100%" id="ffflurry-grad" gradientTransform="rotate(270)"><stop stop-color="hsl(238, 82%, 13%)" stop-opacity="1" offset="0%"></stop><stop stop-color="hsl(265, 55%, 30%)" stop-opacity="1" offset="45%"></stop><stop stop-color="hsl(265, 55%, 60%)" stop-opacity="1" offset="100%"></stop></linearGradient></defs><rect width="100%" height="100%" fill="hsl(238, 82%, 13%)"></rect><g fill="url(#ffflurry-grad)"><rect width="242" height="3" x="176" y="35.5" rx="1.5" transform="rotate(45, 297, 37)" opacity="0.64"></rect><rect width="360" height="3" x="584" y="692.5" rx="1.5" transform="rotate(45, 764, 694)" opacity="0.94"></rect><rect width="145" height="3" x="313.5" y="760.5" rx="1.5" transform="rotate(45, 386, 762)" opacity="0.07"></rect><rect width="196" height="3" x="63" y="700.5" rx="1.5" transform="rotate(45, 161, 702)" opacity="0.61"></rect><rect width="443" height="3" x="17.5" y="575.5" rx="1.5" transform="rotate(45, 239, 577)" opacity="0.21"></rect><rect width="516" height="3" x="-229" y="150.5" rx="1.5" transform="rotate(45, 29, 152)" opacity="0.86"></rect><rect width="322" height="3" x="295" y="168.5" rx="1.5" transform="rotate(45, 456, 170)" opacity="0.46"></rect><rect width="96" height="3" x="618" y="683.5" rx="1.5" transform="rotate(45, 666, 685)" opacity="0.44"></rect><rect width="228" height="3" x="71" y="112.5" rx="1.5" transform="rotate(45, 185, 114)" opacity="0.34"></rect><rect width="440" height="3" x="-19" y="442.5" rx="1.5" transform="rotate(45, 201, 444)" opacity="0.96"></rect><rect width="202" height="3" x="217" y="727.5" rx="1.5" transform="rotate(45, 318, 729)" opacity="0.86"></rect><rect width="100" height="3" x="649" y="213.5" rx="1.5" transform="rotate(45, 699, 215)" opacity="0.16"></rect><rect width="351" height="3" x="429.5" y="568.5" rx="1.5" transform="rotate(45, 605, 570)" opacity="0.58"></rect><rect width="314" height="3" x="87" y="755.5" rx="1.5" transform="rotate(45, 244, 757)" opacity="0.97"></rect><rect width="634" height="3" x="298" y="136.5" rx="1.5" transform="rotate(45, 615, 138)" opacity="0.70"></rect><rect width="232" height="3" x="-58" y="755.5" rx="1.5" transform="rotate(45, 58, 757)" opacity="0.48"></rect><rect width="512" height="3" x="-135" y="53.5" rx="1.5" transform="rotate(45, 121, 55)" opacity="0.95"></rect><rect width="49" height="3" x="375.5" y="222.5" rx="1.5" transform="rotate(45, 400, 224)" opacity="0.38"></rect><rect width="307" height="3" x="10.5" y="542.5" rx="1.5" transform="rotate(45, 164, 544)" opacity="0.55"></rect><rect width="459" height="3" x="115.5" y="369.5" rx="1.5" transform="rotate(45, 345, 371)" opacity="0.90"></rect><rect width="153" height="3" x="269.5" y="624.5" rx="1.5" transform="rotate(45, 346, 626)" opacity="0.51"></rect><rect width="595" height="3" x="-262.5" y="466.5" rx="1.5" transform="rotate(45, 35, 468)" opacity="0.29"></rect><rect width="125" height="3" x="690.5" y="265.5" rx="1.5" transform="rotate(45, 753, 267)" opacity="0.87"></rect><rect width="242" height="3" x="345" y="557.5" rx="1.5" transform="rotate(45, 466, 559)" opacity="0.12"></rect><rect width="442" height="3" x="347" y="43.5" rx="1.5" transform="rotate(45, 568, 45)" opacity="0.51"></rect><rect width="179" height="3" x="470.5" y="345.5" rx="1.5" transform="rotate(45, 560, 347)" opacity="0.24"></rect><rect width="522" height="3" x="-85" y="275.5" rx="1.5" transform="rotate(45, 176, 277)" opacity="0.98"></rect><rect width="49" height="3" x="82.5" y="325.5" rx="1.5" transform="rotate(45, 107, 327)" opacity="0.08"></rect><rect width="458" height="3" x="401" y="236.5" rx="1.5" transform="rotate(45, 630, 238)" opacity="0.61"></rect><rect width="514" height="3" x="118" y="466.5" rx="1.5" transform="rotate(45, 375, 468)" opacity="0.95"></rect><rect width="309" height="3" x="603.5" y="328.5" rx="1.5" transform="rotate(45, 758, 330)" opacity="0.63"></rect><rect width="461" height="3" x="495.5" y="765.5" rx="1.5" transform="rotate(45, 726, 767)" opacity="0.68"></rect><rect width="480" height="3" x="26" y="465.5" rx="1.5" transform="rotate(45, 266, 467)" opacity="0.16"></rect><rect width="274" height="3" x="-94" y="46.5" rx="1.5" transform="rotate(45, 43, 48)" opacity="0.59"></rect><rect width="207" height="3" x="669.5" y="517.5" rx="1.5" transform="rotate(45, 773, 519)" opacity="1.00"></rect><rect width="195" height="3" x="676.5" y="187.5" rx="1.5" transform="rotate(45, 774, 189)" opacity="0.47"></rect><rect width="56" height="3" x="70" y="418.5" rx="1.5" transform="rotate(45, 98, 420)" opacity="0.24"></rect><rect width="58" height="3" x="492" y="125.5" rx="1.5" transform="rotate(45, 521, 127)" opacity="0.68"></rect><rect width="446" height="3" x="506" y="132.5" rx="1.5" transform="rotate(45, 729, 134)" opacity="0.80"></rect><rect width="361" height="3" x="513.5" y="445.5" rx="1.5" transform="rotate(45, 694, 447)" opacity="0.52"></rect><rect width="326" height="3" x="426" y="750.5" rx="1.5" transform="rotate(45, 589, 752)" opacity="0.69"></rect><rect width="224" height="3" x="134" y="56.5" rx="1.5" transform="rotate(45, 246, 58)" opacity="0.75"></rect><rect width="98" height="3" x="-6" y="561.5" rx="1.5" transform="rotate(45, 43, 563)" opacity="0.75"></rect><rect width="207" height="3" x="591.5" y="536.5" rx="1.5" transform="rotate(45, 695, 538)" opacity="0.33"></rect><rect width="427" height="3" x="148.5" y="43.5" rx="1.5" transform="rotate(45, 362, 45)" opacity="0.12"></rect><rect width="176" height="3" x="-57" y="283.5" rx="1.5" transform="rotate(45, 31, 285)" opacity="0.11"></rect><rect width="462" height="3" x="208" y="674.5" rx="1.5" transform="rotate(45, 439, 676)" opacity="0.69"></rect><rect width="159" height="3" x="472.5" y="651.5" rx="1.5" transform="rotate(45, 552, 653)" opacity="0.19"></rect><rect width="396" height="3" x="-61" y="610.5" rx="1.5" transform="rotate(45, 137, 612)" opacity="0.40"></rect><rect width="465" height="3" x="507.5" y="612.5" rx="1.5" transform="rotate(45, 740, 614)" opacity="0.63"></rect><rect width="734" height="3" x="104" y="293.5" rx="1.5" transform="rotate(45, 471, 295)" opacity="0.20"></rect><rect width="211" height="3" x="358.5" y="418.5" rx="1.5" transform="rotate(45, 464, 420)" opacity="0.71"></rect><rect width="429" height="3" x="329.5" y="226.5" rx="1.5" transform="rotate(45, 544, 228)" opacity="0.53"></rect><rect width="342" height="3" x="172" y="152.5" rx="1.5" transform="rotate(45, 343, 154)" opacity="0.77"></rect><rect width="173" height="3" x="25.5" y="499.5" rx="1.5" transform="rotate(45, 112, 501)" opacity="0.52"></rect><rect width="497" height="3" x="-13.5" y="211.5" rx="1.5" transform="rotate(45, 235, 213)" opacity="0.45"></rect><rect width="488" height="3" x="11" y="327.5" rx="1.5" transform="rotate(45, 255, 329)" opacity="0.42"></rect><rect width="320" height="3" x="7" y="382.5" rx="1.5" transform="rotate(45, 167, 384)" opacity="0.71"></rect><rect width="353" height="3" x="-143.5" y="375.5" rx="1.5" transform="rotate(45, 33, 377)" opacity="0.84"></rect><rect width="128" height="3" x="124" y="23.5" rx="1.5" transform="rotate(45, 188, 25)" opacity="0.15"></rect><rect width="544" height="3" x="308" y="460.5" rx="1.5" transform="rotate(45, 580, 462)" opacity="0.64"></rect><rect width="323" height="3" x="107.5" y="137.5" rx="1.5" transform="rotate(45, 269, 139)" opacity="0.92"></rect><rect width="300" height="3" x="262" y="99.5" rx="1.5" transform="rotate(45, 412, 101)" opacity="0.65"></rect><rect width="544" height="3" x="79" y="278.5" rx="1.5" transform="rotate(45, 351, 280)" opacity="0.79"></rect><rect width="243" height="3" x="638.5" y="50.5" rx="1.5" transform="rotate(45, 760, 52)" opacity="0.30"></rect><rect width="327" height="3" x="-0.5" y="768.5" rx="1.5" transform="rotate(45, 163, 770)" opacity="0.37"></rect><rect width="455" height="3" x="-128.5" y="667.5" rx="1.5" transform="rotate(45, 99, 669)" opacity="0.46"></rect><rect width="466" height="3" x="427" y="340.5" rx="1.5" transform="rotate(45, 660, 342)" opacity="0.09"></rect><rect width="163" height="3" x="-48.5" y="660.5" rx="1.5" transform="rotate(45, 33, 662)" opacity="0.77"></rect><rect width="189" height="3" x="144.5" y="661.5" rx="1.5" transform="rotate(45, 239, 663)" opacity="0.30"></rect><rect width="315" height="3" x="602.5" y="402.5" rx="1.5" transform="rotate(45, 760, 404)" opacity="0.99"></rect><rect width="233" height="3" x="348.5" y="37.5" rx="1.5" transform="rotate(45, 465, 39)" opacity="0.30"></rect><rect width="458" height="3" x="-143" y="230.5" rx="1.5" transform="rotate(45, 86, 232)" opacity="0.19"></rect><rect width="353" height="3" x="-64.5" y="153.5" rx="1.5" transform="rotate(45, 112, 155)" opacity="0.24"></rect><rect width="313" height="3" x="171.5" y="538.5" rx="1.5" transform="rotate(45, 328, 540)" opacity="0.96"></rect><rect width="184" height="3" x="393" y="756.5" rx="1.5" transform="rotate(45, 485, 758)" opacity="0.17"></rect><rect width="644" height="3" x="347" y="47.5" rx="1.5" transform="rotate(45, 669, 49)" opacity="0.21"></rect></g></svg>