<svg xmlns="http://www.w3.org/2000/svg" version="1.1" xmlns:xlink="http://www.w3.org/1999/xlink" xmlns:svgjs="http://svgjs.dev/svgjs" viewBox="0 0 800 800"><circle r="8.5" cx="645" cy="626" fill="hsl(65, 75%, 70%)" opacity="0.20"></circle><circle r="10.5" cx="518" cy="458" fill="hsl(95, 75%, 70%)" opacity="0.85"></circle><circle r="11" cx="234" cy="558" fill="hsl(233, 75%, 70%)" opacity="0.59"></circle><circle r="10" cx="59" cy="676" fill="hsl(97, 75%, 70%)" opacity="0.99"></circle><circle r="8" cx="395" cy="750" fill="hsl(137, 75%, 70%)" opacity="0.29"></circle><circle r="10" cx="112" cy="654" fill="hsl(144, 75%, 70%)" opacity="0.70"></circle><circle r="6.5" cx="576" cy="529" fill="hsl(71, 75%, 70%)" opacity="0.49"></circle><circle r="6.5" cx="663" cy="745" fill="hsl(74, 75%, 70%)" opacity="0.27"></circle><circle r="9.5" cx="155" cy="196" fill="hsl(196, 75%, 70%)" opacity="0.59"></circle><circle r="6.5" cx="559" cy="304" fill="hsl(80, 75%, 70%)" opacity="0.57"></circle><circle r="8.5" cx="142" cy="37" fill="hsl(159, 75%, 70%)" opacity="0.88"></circle><circle r="5.5" cx="283" cy="245" fill="hsl(216, 75%, 70%)" opacity="0.54"></circle><circle r="7.5" cx="394" cy="619" fill="hsl(137, 75%, 70%)" opacity="0.20"></circle><circle r="10.5" cx="102" cy="72" fill="hsl(121, 75%, 70%)" opacity="0.74"></circle><circle r="7.5" cx="704" cy="753" fill="hsl(104, 75%, 70%)" opacity="0.32"></circle><circle r="8.5" cx="144" cy="431" fill="hsl(184, 75%, 70%)" opacity="0.73"></circle><circle r="8.5" cx="162" cy="782" fill="hsl(196, 75%, 70%)" opacity="0.32"></circle><circle r="5.5" cx="646" cy="474" fill="hsl(65, 75%, 70%)" opacity="0.89"></circle><circle r="7" cx="55" cy="143" fill="hsl(75, 75%, 70%)" opacity="0.65"></circle><circle r="4.5" cx="385" cy="8" fill="hsl(226, 75%, 70%)" opacity="0.14"></circle><circle r="9" cx="694" cy="58" fill="hsl(153, 75%, 70%)" opacity="0.94"></circle><circle r="8" cx="87" cy="360" fill="hsl(119, 75%, 70%)" opacity="0.74"></circle><circle r="5.5" cx="498" cy="697" fill="hsl(104, 75%, 70%)" opacity="0.98"></circle><circle r="7" cx="744" cy="325" fill="hsl(150, 75%, 70%)" opacity="0.17"></circle><circle r="8.5" cx="110" cy="181" fill="hsl(134, 75%, 70%)" opacity="0.23"></circle><circle r="8" cx="169" cy="468" fill="hsl(206, 75%, 70%)" opacity="0.70"></circle><circle r="8.5" cx="750" cy="150" fill="hsl(152, 75%, 70%)" opacity="0.33"></circle><circle r="11" cx="199" cy="516" fill="hsl(223, 75%, 70%)" opacity="0.55"></circle><circle r="5.5" cx="14" cy="281" fill="hsl(78, 75%, 70%)" opacity="0.28"></circle><circle r="7.5" cx="342" cy="473" fill="hsl(169, 75%, 70%)" opacity="0.46"></circle><circle r="10.5" cx="511" cy="18" fill="hsl(328, 75%, 70%)" opacity="0.29"></circle><circle r="7" cx="529" cy="203" fill="hsl(90, 75%, 70%)" opacity="0.85"></circle><circle r="13" cx="343" cy="769" fill="hsl(169, 75%, 70%)" opacity="0.75"></circle><circle r="10" cx="299" cy="157" fill="hsl(201, 75%, 70%)" opacity="0.42"></circle><circle r="10.5" cx="657" cy="19" fill="hsl(208, 75%, 70%)" opacity="0.99"></circle><circle r="8.5" cx="405" cy="244" fill="hsl(131, 75%, 70%)" opacity="0.24"></circle><circle r="10" cx="162" cy="732" fill="hsl(196, 75%, 70%)" opacity="0.74"></circle><circle r="4.5" cx="493" cy="788" fill="hsl(104, 75%, 70%)" opacity="0.39"></circle><circle r="13" cx="475" cy="24" fill="hsl(314, 75%, 70%)" opacity="0.11"></circle><circle r="11.5" cx="340" cy="112" fill="hsl(200, 75%, 70%)" opacity="0.22"></circle><circle r="8.5" cx="728" cy="79" fill="hsl(152, 75%, 70%)" opacity="0.71"></circle><circle r="7.5" cx="200" cy="580" fill="hsl(223, 75%, 70%)" opacity="0.43"></circle><circle r="7" cx="592" cy="262" fill="hsl(67, 75%, 70%)" opacity="0.78"></circle><circle r="11.5" cx="344" cy="193" fill="hsl(169, 75%, 70%)" opacity="0.76"></circle><circle r="10" cx="215" cy="85" fill="hsl(169, 75%, 70%)" opacity="0.54"></circle><circle r="8.5" cx="276" cy="710" fill="hsl(216, 75%, 70%)" opacity="0.52"></circle><circle r="6.5" cx="224" cy="14" fill="hsl(164, 75%, 70%)" opacity="0.15"></circle><circle r="10" cx="260" cy="326" fill="hsl(228, 75%, 70%)" opacity="0.81"></circle><circle r="7" cx="699" cy="417" fill="hsl(92, 75%, 70%)" opacity="0.13"></circle><circle r="9.5" cx="32" cy="400" fill="hsl(83, 75%, 70%)" opacity="0.67"></circle><circle r="10" cx="138" cy="701" fill="hsl(184, 75%, 70%)" opacity="0.68"></circle><circle r="9" cx="97" cy="706" fill="hsl(131, 75%, 70%)" opacity="0.34"></circle><circle r="10" cx="245" cy="357" fill="hsl(232, 75%, 70%)" opacity="0.57"></circle><circle r="9.5" cx="717" cy="642" fill="hsl(118, 75%, 70%)" opacity="0.95"></circle><circle r="9" cx="351" cy="507" fill="hsl(160, 75%, 70%)" opacity="0.25"></circle><circle r="11.5" cx="777" cy="537" fill="hsl(203, 75%, 70%)" opacity="0.15"></circle><circle r="7" cx="280" cy="66" fill="hsl(185, 75%, 70%)" opacity="0.72"></circle><circle r="7" cx="635" cy="678" fill="hsl(63, 75%, 70%)" opacity="0.52"></circle><circle r="8" cx="290" cy="124" fill="hsl(196, 75%, 70%)" opacity="0.30"></circle><circle r="11" cx="157" cy="506" fill="hsl(196, 75%, 70%)" opacity="0.37"></circle><circle r="6" cx="400" cy="390" fill="hsl(131, 75%, 70%)" opacity="0.44"></circle><circle r="6.5" cx="16" cy="458" fill="hsl(78, 75%, 70%)" opacity="0.68"></circle><circle r="10" cx="223" cy="780" fill="hsl(232, 75%, 70%)" opacity="0.36"></circle><circle r="5.5" cx="15" cy="123" fill="hsl(67, 75%, 70%)" opacity="0.87"></circle><circle r="9.5" cx="782" cy="407" fill="hsl(203, 75%, 70%)" opacity="0.24"></circle><circle r="11" cx="173" cy="298" fill="hsl(206, 75%, 70%)" opacity="0.44"></circle><circle r="5.5" cx="17" cy="175" fill="hsl(68, 75%, 70%)" opacity="0.40"></circle><circle r="7" cx="648" cy="262" fill="hsl(65, 75%, 70%)" opacity="0.14"></circle><circle r="6.5" cx="788" cy="721" fill="hsl(219, 75%, 70%)" opacity="0.74"></circle><circle r="7.5" cx="541" cy="532" fill="hsl(85, 75%, 70%)" opacity="0.49"></circle><circle r="8.5" cx="784" cy="580" fill="hsl(203, 75%, 70%)" opacity="0.58"></circle><circle r="7" cx="571" cy="436" fill="hsl(75, 75%, 70%)" opacity="0.52"></circle><circle r="7" cx="407" cy="541" fill="hsl(131, 75%, 70%)" opacity="0.78"></circle><circle r="7.5" cx="383" cy="202" fill="hsl(143, 75%, 70%)" opacity="0.69"></circle><circle r="9" cx="82" cy="212" fill="hsl(119, 75%, 70%)" opacity="0.82"></circle><circle r="11" cx="159" cy="388" fill="hsl(196, 75%, 70%)" opacity="0.76"></circle><circle r="7.5" cx="729" cy="208" fill="hsl(134, 75%, 70%)" opacity="0.24"></circle><circle r="9" cx="316" cy="636" fill="hsl(189, 75%, 70%)" opacity="0.74"></circle><circle r="9.5" cx="500" cy="281" fill="hsl(100, 75%, 70%)" opacity="0.50"></circle><circle r="7.5" cx="63" cy="321" fill="hsl(107, 75%, 70%)" opacity="0.15"></circle><circle r="6" cx="541" cy="762" fill="hsl(85, 75%, 70%)" opacity="0.26"></circle><circle r="8.5" cx="392" cy="686" fill="hsl(137, 75%, 70%)" opacity="0.32"></circle><circle r="9" cx="423" cy="435" fill="hsl(126, 75%, 70%)" opacity="0.50"></circle><circle r="11" cx="437" cy="367" fill="hsl(122, 75%, 70%)" opacity="0.36"></circle><circle r="8.5" cx="740" cy="423" fill="hsl(150, 75%, 70%)" opacity="0.15"></circle><circle r="9" cx="466" cy="445" fill="hsl(112, 75%, 70%)" opacity="0.32"></circle><circle r="3.5" cx="581" cy="364" fill="hsl(71, 75%, 70%)" opacity="0.85"></circle><circle r="7" cx="636" cy="190" fill="hsl(63, 75%, 70%)" opacity="0.29"></circle><circle r="8" cx="435" cy="715" fill="hsl(122, 75%, 70%)" opacity="0.50"></circle><circle r="9" cx="774" cy="668" fill="hsl(185, 75%, 70%)" opacity="0.72"></circle><circle r="5.5" cx="363" cy="687" fill="hsl(151, 75%, 70%)" opacity="0.69"></circle><circle r="11" cx="95" cy="608" fill="hsl(131, 75%, 70%)" opacity="0.14"></circle><circle r="11" cx="777" cy="493" fill="hsl(203, 75%, 70%)" opacity="0.67"></circle><circle r="11" cx="378" cy="83" fill="hsl(224, 75%, 70%)" opacity="0.54"></circle><circle r="6.5" cx="771" cy="347" fill="hsl(185, 75%, 70%)" opacity="0.97"></circle><circle r="7" cx="402" cy="506" fill="hsl(131, 75%, 70%)" opacity="0.68"></circle><circle r="10" cx="683" cy="519" fill="hsl(82, 75%, 70%)" opacity="0.99"></circle><circle r="10.5" cx="748" cy="594" fill="hsl(150, 75%, 70%)" opacity="0.85"></circle><circle r="7.5" cx="779" cy="320" fill="hsl(203, 75%, 70%)" opacity="0.63"></circle><circle r="9.5" cx="460" cy="88" fill="hsl(247, 75%, 70%)" opacity="0.29"></circle><circle r="12" cx="126" cy="763" fill="hsl(171, 75%, 70%)" opacity="0.71"></circle><circle r="10" cx="175" cy="69" fill="hsl(153, 75%, 70%)" opacity="0.92"></circle><circle r="10" cx="773" cy="630" fill="hsl(185, 75%, 70%)" opacity="0.30"></circle><circle r="14" cx="219" cy="665" fill="hsl(232, 75%, 70%)" opacity="0.15"></circle><circle r="7" cx="64" cy="103" fill="hsl(84, 75%, 70%)" opacity="0.20"></circle><circle r="5.5" cx="689" cy="342" fill="hsl(92, 75%, 70%)" opacity="0.84"></circle><circle r="11" cx="306" cy="352" fill="hsl(199, 75%, 70%)" opacity="0.58"></circle><circle r="9" cx="733" cy="461" fill="hsl(134, 75%, 70%)" opacity="0.60"></circle><circle r="11" cx="212" cy="736" fill="hsl(228, 75%, 70%)" opacity="0.32"></circle><circle r="11.5" cx="479" cy="61" fill="hsl(296, 75%, 70%)" opacity="0.59"></circle><circle r="10.5" cx="156" cy="340" fill="hsl(196, 75%, 70%)" opacity="0.94"></circle><circle r="5.5" cx="323" cy="670" fill="hsl(189, 75%, 70%)" opacity="0.98"></circle><circle r="8" cx="591" cy="662" fill="hsl(67, 75%, 70%)" opacity="0.46"></circle><circle r="8" cx="574" cy="198" fill="hsl(75, 75%, 70%)" opacity="0.45"></circle><circle r="9.5" cx="306" cy="86" fill="hsl(194, 75%, 70%)" opacity="0.85"></circle><circle r="9" cx="206" cy="425" fill="hsl(228, 75%, 70%)" opacity="0.78"></circle><circle r="7" cx="436" cy="200" fill="hsl(122, 75%, 70%)" opacity="0.60"></circle><circle r="11" cx="216" cy="204" fill="hsl(232, 75%, 70%)" opacity="0.64"></circle><circle r="11.5" cx="433" cy="18" fill="hsl(282, 75%, 70%)" opacity="0.25"></circle><circle r="11.5" cx="477" cy="127" fill="hsl(192, 75%, 70%)" opacity="0.61"></circle><circle r="6" cx="718" cy="355" fill="hsl(118, 75%, 70%)" opacity="0.62"></circle><circle r="10.5" cx="454" cy="759" fill="hsl(115, 75%, 70%)" opacity="0.39"></circle><circle r="8" cx="45" cy="245" fill="hsl(89, 75%, 70%)" opacity="1.00"></circle><circle r="6" cx="486" cy="486" fill="hsl(108, 75%, 70%)" opacity="0.61"></circle><circle r="10" cx="590" cy="607" fill="hsl(67, 75%, 70%)" opacity="0.62"></circle><circle r="4" cx="559" cy="789" fill="hsl(80, 75%, 70%)" opacity="0.70"></circle><circle r="7" cx="474" cy="600" fill="hsl(112, 75%, 70%)" opacity="0.80"></circle><circle r="6" cx="715" cy="786" fill="hsl(118, 75%, 70%)" opacity="0.99"></circle><circle r="7.5" cx="246" cy="244" fill="hsl(232, 75%, 70%)" opacity="0.70"></circle><circle r="7" cx="511" cy="726" fill="hsl(100, 75%, 70%)" opacity="0.83"></circle><circle r="5.5" cx="504" cy="222" fill="hsl(100, 75%, 70%)" opacity="0.80"></circle><circle r="6" cx="543" cy="271" fill="hsl(85, 75%, 70%)" opacity="0.55"></circle><circle r="10" cx="239" cy="169" fill="hsl(216, 75%, 70%)" opacity="0.36"></circle><circle r="9.5" cx="91" cy="264" fill="hsl(131, 75%, 70%)" opacity="0.90"></circle><circle r="10" cx="735" cy="508" fill="hsl(134, 75%, 70%)" opacity="0.25"></circle><circle r="12" cx="727" cy="25" fill="hsl(165, 75%, 70%)" opacity="0.93"></circle><circle r="5.5" cx="672" cy="667" fill="hsl(74, 75%, 70%)" opacity="0.55"></circle><circle r="11.5" cx="113" cy="305" fill="hsl(158, 75%, 70%)" opacity="0.95"></circle><circle r="8.5" cx="506" cy="164" fill="hsl(128, 75%, 70%)" opacity="0.98"></circle><circle r="14.5" cx="373" cy="144" fill="hsl(181, 75%, 70%)" opacity="0.95"></circle><circle r="13" cx="245" cy="603" fill="hsl(232, 75%, 70%)" opacity="0.60"></circle><circle r="8.5" cx="470" cy="181" fill="hsl(126, 75%, 70%)" opacity="0.78"></circle><circle r="9" cx="739" cy="382" fill="hsl(150, 75%, 70%)" opacity="0.76"></circle><circle r="7" cx="197" cy="461" fill="hsl(223, 75%, 70%)" opacity="0.53"></circle><circle r="10.5" cx="269" cy="646" fill="hsl(223, 75%, 70%)" opacity="0.50"></circle><circle r="8.5" cx="508" cy="647" fill="hsl(100, 75%, 70%)" opacity="0.94"></circle><circle r="7.5" cx="786" cy="281" fill="hsl(203, 75%, 70%)" opacity="0.28"></circle><circle r="8.5" cx="111" cy="21" fill="hsl(166, 75%, 70%)" opacity="0.58"></circle><circle r="10.5" cx="26" cy="611" fill="hsl(83, 75%, 70%)" opacity="0.40"></circle><circle r="11" cx="283" cy="451" fill="hsl(216, 75%, 70%)" opacity="0.84"></circle><circle r="11.5" cx="168" cy="657" fill="hsl(206, 75%, 70%)" opacity="0.22"></circle><circle r="7.5" cx="567" cy="480" fill="hsl(75, 75%, 70%)" opacity="0.58"></circle><circle r="9" cx="434" cy="583" fill="hsl(122, 75%, 70%)" opacity="0.17"></circle><circle r="11" cx="26" cy="55" fill="hsl(115, 75%, 70%)" opacity="0.16"></circle><circle r="8" cx="616" cy="314" fill="hsl(63, 75%, 70%)" opacity="0.96"></circle><circle r="10.5" cx="192" cy="612" fill="hsl(223, 75%, 70%)" opacity="0.45"></circle><circle r="5" cx="672" cy="186" fill="hsl(76, 75%, 70%)" opacity="0.64"></circle><circle r="10.5" cx="148" cy="619" fill="hsl(184, 75%, 70%)" opacity="0.52"></circle><circle r="10" cx="239" cy="437" fill="hsl(232, 75%, 70%)" opacity="0.36"></circle><circle r="8.5" cx="294" cy="311" fill="hsl(208, 75%, 70%)" opacity="0.36"></circle><circle r="8.5" cx="117" cy="555" fill="hsl(158, 75%, 70%)" opacity="0.29"></circle><circle r="16.5" cx="596" cy="27" fill="hsl(261, 75%, 70%)" opacity="0.81"></circle><circle r="5.5" cx="439" cy="682" fill="hsl(119, 75%, 70%)" opacity="0.45"></circle><circle r="10.5" cx="353" cy="596" fill="hsl(160, 75%, 70%)" opacity="0.22"></circle><circle r="6.5" cx="57" cy="494" fill="hsl(97, 75%, 70%)" opacity="0.63"></circle><circle r="7.5" cx="583" cy="152" fill="hsl(100, 75%, 70%)" opacity="0.28"></circle><circle r="6" cx="408" cy="190" fill="hsl(131, 75%, 70%)" opacity="0.63"></circle><circle r="6.5" cx="353" cy="418" fill="hsl(160, 75%, 70%)" opacity="0.35"></circle><circle r="8.5" cx="295" cy="411" fill="hsl(208, 75%, 70%)" opacity="0.58"></circle><circle r="9" cx="258" cy="683" fill="hsl(228, 75%, 70%)" opacity="0.16"></circle><circle r="6" cx="380" cy="721" fill="hsl(143, 75%, 70%)" opacity="0.49"></circle><circle r="10" cx="424" cy="85" fill="hsl(245, 75%, 70%)" opacity="0.23"></circle><circle r="7.5" cx="337" cy="444" fill="hsl(179, 75%, 70%)" opacity="0.45"></circle><circle r="15" cx="770" cy="768" fill="hsl(185, 75%, 70%)" opacity="0.79"></circle><circle r="10" cx="266" cy="188" fill="hsl(223, 75%, 70%)" opacity="0.67"></circle><circle r="8" cx="544" cy="155" fill="hsl(125, 75%, 70%)" opacity="0.11"></circle><circle r="6.5" cx="46" cy="290" fill="hsl(89, 75%, 70%)" opacity="0.23"></circle><circle r="8" cx="275" cy="23" fill="hsl(165, 75%, 70%)" opacity="0.49"></circle><circle r="8" cx="352" cy="381" fill="hsl(160, 75%, 70%)" opacity="0.84"></circle><circle r="8" cx="692" cy="603" fill="hsl(92, 75%, 70%)" opacity="0.69"></circle><circle r="10.5" cx="60" cy="22" fill="hsl(163, 75%, 70%)" opacity="0.70"></circle><circle r="6" cx="666" cy="67" fill="hsl(147, 75%, 70%)" opacity="0.12"></circle><circle r="8.5" cx="318" cy="390" fill="hsl(189, 75%, 70%)" opacity="0.96"></circle><circle r="6" cx="612" cy="466" fill="hsl(64, 75%, 70%)" opacity="0.29"></circle><circle r="5" cx="715" cy="183" fill="hsl(119, 75%, 70%)" opacity="0.42"></circle><circle r="6" cx="702" cy="291" fill="hsl(104, 75%, 70%)" opacity="0.13"></circle><circle r="7" cx="432" cy="481" fill="hsl(122, 75%, 70%)" opacity="0.58"></circle><circle r="8.5" cx="722" cy="717" fill="hsl(118, 75%, 70%)" opacity="0.92"></circle><circle r="9.5" cx="357" cy="642" fill="hsl(160, 75%, 70%)" opacity="0.54"></circle><circle r="11" cx="217" cy="308" fill="hsl(232, 75%, 70%)" opacity="0.84"></circle><circle r="8.5" cx="20" cy="521" fill="hsl(78, 75%, 70%)" opacity="0.24"></circle><circle r="8" cx="264" cy="94" fill="hsl(188, 75%, 70%)" opacity="0.62"></circle><circle r="13" cx="212" cy="258" fill="hsl(228, 75%, 70%)" opacity="0.47"></circle><circle r="14.5" cx="542" cy="31" fill="hsl(307, 75%, 70%)" opacity="0.90"></circle><circle r="6.5" cx="714" cy="324" fill="hsl(118, 75%, 70%)" opacity="0.93"></circle><circle r="7.5" cx="317" cy="290" fill="hsl(189, 75%, 70%)" opacity="0.32"></circle><circle r="7" cx="617" cy="227" fill="hsl(63, 75%, 70%)" opacity="0.26"></circle><circle r="7" cx="474" cy="234" fill="hsl(112, 75%, 70%)" opacity="0.31"></circle><circle r="8.5" cx="550" cy="682" fill="hsl(85, 75%, 70%)" opacity="0.82"></circle><circle r="11.5" cx="777" cy="39" fill="hsl(180, 75%, 70%)" opacity="0.75"></circle><circle r="6.5" cx="629" cy="424" fill="hsl(63, 75%, 70%)" opacity="0.61"></circle><circle r="5.5" cx="571" cy="748" fill="hsl(75, 75%, 70%)" opacity="0.51"></circle><circle r="7" cx="118" cy="466" fill="hsl(158, 75%, 70%)" opacity="0.42"></circle><circle r="6.5" cx="551" cy="238" fill="hsl(80, 75%, 70%)" opacity="0.12"></circle><circle r="6" cx="110" cy="525" fill="hsl(144, 75%, 70%)" opacity="0.30"></circle><circle r="7.5" cx="111" cy="431" fill="hsl(144, 75%, 70%)" opacity="0.90"></circle><circle r="10.5" cx="164" cy="115" fill="hsl(152, 75%, 70%)" opacity="0.49"></circle><circle r="8.5" cx="396" cy="55" fill="hsl(243, 75%, 70%)" opacity="0.74"></circle><circle r="7.5" cx="211" cy="131" fill="hsl(182, 75%, 70%)" opacity="0.14"></circle><circle r="7" cx="406" cy="784" fill="hsl(131, 75%, 70%)" opacity="0.28"></circle><circle r="9" cx="366" cy="551" fill="hsl(151, 75%, 70%)" opacity="0.27"></circle><circle r="12" cx="228" cy="474" fill="hsl(233, 75%, 70%)" opacity="0.64"></circle><circle r="11.5" cx="563" cy="69" fill="hsl(236, 75%, 70%)" opacity="0.57"></circle><circle r="7.5" cx="537" cy="348" fill="hsl(90, 75%, 70%)" opacity="0.24"></circle><circle r="8.5" cx="311" cy="25" fill="hsl(176, 75%, 70%)" opacity="0.96"></circle><circle r="6.5" cx="290" cy="266" fill="hsl(208, 75%, 70%)" opacity="0.92"></circle><circle r="7.5" cx="466" cy="555" fill="hsl(112, 75%, 70%)" opacity="0.92"></circle><circle r="6" cx="506" cy="761" fill="hsl(100, 75%, 70%)" opacity="0.73"></circle><circle r="8" cx="396" cy="575" fill="hsl(137, 75%, 70%)" opacity="0.59"></circle><circle r="6.5" cx="605" cy="779" fill="hsl(64, 75%, 70%)" opacity="0.55"></circle><circle r="7.5" cx="228" cy="45" fill="hsl(166, 75%, 70%)" opacity="0.23"></circle><circle r="10" cx="525" cy="82" fill="hsl(250, 75%, 70%)" opacity="0.20"></circle><circle r="10.5" cx="184" cy="221" fill="hsl(216, 75%, 70%)" opacity="0.91"></circle><circle r="10.5" cx="780" cy="450" fill="hsl(203, 75%, 70%)" opacity="0.28"></circle><circle r="6" cx="15" cy="227" fill="hsl(78, 75%, 70%)" opacity="0.53"></circle><circle r="9.5" cx="396" cy="301" fill="hsl(137, 75%, 70%)" opacity="0.17"></circle><circle r="8.5" cx="176" cy="424" fill="hsl(216, 75%, 70%)" opacity="0.72"></circle><circle r="6" cx="553" cy="403" fill="hsl(80, 75%, 70%)" opacity="0.90"></circle><circle r="11" cx="440" cy="286" fill="hsl(119, 75%, 70%)" opacity="0.11"></circle><circle r="8" cx="712" cy="123" fill="hsl(121, 75%, 70%)" opacity="1.00"></circle><circle r="9" cx="428" cy="50" fill="hsl(277, 75%, 70%)" opacity="0.90"></circle><circle r="6.5" cx="388" cy="358" fill="hsl(137, 75%, 70%)" opacity="0.75"></circle><circle r="8.5" cx="518" cy="114" fill="hsl(197, 75%, 70%)" opacity="0.45"></circle><circle r="9" cx="140" cy="154" fill="hsl(151, 75%, 70%)" opacity="0.52"></circle><circle r="8.5" cx="86" cy="410" fill="hsl(119, 75%, 70%)" opacity="0.87"></circle><circle r="8.5" cx="514" cy="384" fill="hsl(95, 75%, 70%)" opacity="0.94"></circle><circle r="10" cx="179" cy="24" fill="hsl(166, 75%, 70%)" opacity="0.73"></circle><circle r="12.5" cx="151" cy="572" fill="hsl(196, 75%, 70%)" opacity="0.15"></circle><circle r="6" cx="699" cy="687" fill="hsl(92, 75%, 70%)" opacity="0.79"></circle><circle r="10.5" cx="60" cy="772" fill="hsl(97, 75%, 70%)" opacity="0.44"></circle><circle r="5.5" cx="68" cy="551" fill="hsl(107, 75%, 70%)" opacity="0.30"></circle><circle r="11.5" cx="295" cy="603" fill="hsl(208, 75%, 70%)" opacity="0.23"></circle><circle r="7" cx="44" cy="356" fill="hsl(89, 75%, 70%)" opacity="0.57"></circle><circle r="10.5" cx="422" cy="121" fill="hsl(207, 75%, 70%)" opacity="0.49"></circle><circle r="10" cx="129" cy="229" fill="hsl(171, 75%, 70%)" opacity="0.16"></circle><circle r="10" cx="759" cy="704" fill="hsl(167, 75%, 70%)" opacity="0.15"></circle><circle r="7.5" cx="373" cy="27" fill="hsl(223, 75%, 70%)" opacity="0.75"></circle><circle r="7" cx="645" cy="89" fill="hsl(131, 75%, 70%)" opacity="0.53"></circle><circle r="9" cx="202" cy="340" fill="hsl(228, 75%, 70%)" opacity="0.47"></circle><circle r="5.5" cx="447" cy="655" fill="hsl(119, 75%, 70%)" opacity="0.61"></circle><circle r="9" cx="257" cy="783" fill="hsl(228, 75%, 70%)" opacity="0.46"></circle><circle r="3.5" cx="688" cy="170" fill="hsl(95, 75%, 70%)" opacity="0.15"></circle><circle r="7.5" cx="617" cy="551" fill="hsl(63, 75%, 70%)" opacity="0.59"></circle><circle r="9" cx="55" cy="452" fill="hsl(97, 75%, 70%)" opacity="0.37"></circle><circle r="9.5" cx="365" cy="248" fill="hsl(151, 75%, 70%)" opacity="0.10"></circle><circle r="5.5" cx="650" cy="783" fill="hsl(68, 75%, 70%)" opacity="0.53"></circle><circle r="12.5" cx="769" cy="105" fill="hsl(183, 75%, 70%)" opacity="0.55"></circle><circle r="6.5" cx="88" cy="478" fill="hsl(131, 75%, 70%)" opacity="0.12"></circle><circle r="12" cx="285" cy="493" fill="hsl(216, 75%, 70%)" opacity="0.55"></circle><circle r="9.5" cx="123" cy="363" fill="hsl(158, 75%, 70%)" opacity="0.96"></circle><circle r="10" cx="781" cy="178" fill="hsl(202, 75%, 70%)" opacity="0.64"></circle><circle r="7.5" cx="779" cy="373" fill="hsl(203, 75%, 70%)" opacity="0.55"></circle><circle r="11.5" cx="293" cy="777" fill="hsl(208, 75%, 70%)" opacity="0.77"></circle><circle r="9" cx="478" cy="400" fill="hsl(108, 75%, 70%)" opacity="0.50"></circle><circle r="6" cx="476" cy="517" fill="hsl(108, 75%, 70%)" opacity="0.24"></circle><circle r="6" cx="633" cy="726" fill="hsl(63, 75%, 70%)" opacity="0.47"></circle><circle r="12.5" cx="339" cy="51" fill="hsl(208, 75%, 70%)" opacity="0.56"></circle><circle r="8.5" cx="432" cy="157" fill="hsl(163, 75%, 70%)" opacity="0.63"></circle><circle r="6" cx="636" cy="358" fill="hsl(63, 75%, 70%)" opacity="0.98"></circle><circle r="6.5" cx="191" cy="152" fill="hsl(192, 75%, 70%)" opacity="0.88"></circle><circle r="10.5" cx="587" cy="103" fill="hsl(165, 75%, 70%)" opacity="0.27"></circle><circle r="5.5" cx="14" cy="343" fill="hsl(78, 75%, 70%)" opacity="0.41"></circle><circle r="4.5" cx="456" cy="493" fill="hsl(115, 75%, 70%)" opacity="0.47"></circle><circle r="9" cx="683" cy="462" fill="hsl(82, 75%, 70%)" opacity="0.64"></circle><circle r="9.5" cx="190" cy="771" fill="hsl(223, 75%, 70%)" opacity="0.19"></circle><circle r="4.5" cx="668" cy="355" fill="hsl(74, 75%, 70%)" opacity="0.93"></circle><circle r="4.5" cx="693" cy="150" fill="hsl(98, 75%, 70%)" opacity="0.61"></circle><circle r="7" cx="389" cy="420" fill="hsl(137, 75%, 70%)" opacity="0.40"></circle><circle r="12.5" cx="323" cy="544" fill="hsl(189, 75%, 70%)" opacity="0.50"></circle><circle r="11.5" cx="250" cy="517" fill="hsl(232, 75%, 70%)" opacity="0.93"></circle><circle r="10" cx="257" cy="399" fill="hsl(228, 75%, 70%)" opacity="0.43"></circle><circle r="8.5" cx="664" cy="123" fill="hsl(103, 75%, 70%)" opacity="0.61"></circle><circle r="11" cx="360" cy="328" fill="hsl(160, 75%, 70%)" opacity="0.18"></circle><circle r="11" cx="482" cy="329" fill="hsl(108, 75%, 70%)" opacity="0.13"></circle><circle r="6" cx="664" cy="401" fill="hsl(74, 75%, 70%)" opacity="0.69"></circle><circle r="7" cx="336" cy="697" fill="hsl(179, 75%, 70%)" opacity="0.82"></circle><circle r="10" cx="720" cy="560" fill="hsl(118, 75%, 70%)" opacity="0.38"></circle><circle r="12" cx="251" cy="281" fill="hsl(228, 75%, 70%)" opacity="0.42"></circle><circle r="8" cx="623" cy="143" fill="hsl(92, 75%, 70%)" opacity="0.81"></circle><circle r="5.5" cx="67" cy="523" fill="hsl(107, 75%, 70%)" opacity="0.89"></circle><circle r="5.5" cx="697" cy="381" fill="hsl(92, 75%, 70%)" opacity="0.33"></circle><circle r="8.5" cx="621" cy="69" fill="hsl(182, 75%, 70%)" opacity="0.54"></circle><circle r="6" cx="611" cy="508" fill="hsl(64, 75%, 70%)" opacity="0.79"></circle><circle r="5.5" cx="621" cy="389" fill="hsl(63, 75%, 70%)" opacity="0.59"></circle><circle r="7.5" cx="592" cy="718" fill="hsl(67, 75%, 70%)" opacity="0.86"></circle><circle r="8" cx="336" cy="264" fill="hsl(179, 75%, 70%)" opacity="0.75"></circle><circle r="6.5" cx="442" cy="238" fill="hsl(119, 75%, 70%)" opacity="0.25"></circle><circle r="7" cx="198" cy="550" fill="hsl(223, 75%, 70%)" opacity="0.64"></circle><circle r="8" cx="662" cy="305" fill="hsl(68, 75%, 70%)" opacity="0.35"></circle><circle r="9" cx="307" cy="205" fill="hsl(199, 75%, 70%)" opacity="0.90"></circle><circle r="6.5" cx="282" cy="220" fill="hsl(216, 75%, 70%)" opacity="0.24"></circle><circle r="7.5" cx="544" cy="609" fill="hsl(85, 75%, 70%)" opacity="0.46"></circle><circle r="7" cx="47" cy="191" fill="hsl(89, 75%, 70%)" opacity="0.80"></circle><circle r="5.5" cx="476" cy="678" fill="hsl(108, 75%, 70%)" opacity="0.15"></circle><circle r="7.5" cx="504" cy="545" fill="hsl(100, 75%, 70%)" opacity="0.94"></circle><circle r="6.5" cx="118" cy="499" fill="hsl(158, 75%, 70%)" opacity="0.29"></circle><circle r="5.5" cx="580" cy="337" fill="hsl(71, 75%, 70%)" opacity="0.65"></circle><circle r="7.5" cx="183" cy="176" fill="hsl(204, 75%, 70%)" opacity="0.71"></circle><circle r="10.5" cx="251" cy="736" fill="hsl(228, 75%, 70%)" opacity="0.77"></circle><circle r="7" cx="712" cy="260" fill="hsl(104, 75%, 70%)" opacity="0.35"></circle><circle r="8" cx="682" cy="229" fill="hsl(82, 75%, 70%)" opacity="0.12"></circle><circle r="9.5" cx="220" cy="394" fill="hsl(232, 75%, 70%)" opacity="0.47"></circle><circle r="11.5" cx="308" cy="731" fill="hsl(199, 75%, 70%)" opacity="0.85"></circle><circle r="6.5" cx="299" cy="681" fill="hsl(208, 75%, 70%)" opacity="0.74"></circle><circle r="10" cx="243" cy="123" fill="hsl(191, 75%, 70%)" opacity="0.64"></circle><circle r="5.5" cx="586" cy="388" fill="hsl(71, 75%, 70%)" opacity="0.96"></circle><circle r="7.5" cx="248" cy="218" fill="hsl(232, 75%, 70%)" opacity="0.50"></circle><circle r="7" cx="438" cy="528" fill="hsl(119, 75%, 70%)" opacity="0.96"></circle><circle r="6" cx="52" cy="574" fill="hsl(97, 75%, 70%)" opacity="0.11"></circle><circle r="7" cx="254" cy="52" fill="hsl(174, 75%, 70%)" opacity="0.61"></circle><circle r="7.5" cx="416" cy="643" fill="hsl(126, 75%, 70%)" opacity="0.38"></circle><circle r="9" cx="196" cy="373" fill="hsl(223, 75%, 70%)" opacity="0.33"></circle><circle r="8" cx="656" cy="573" fill="hsl(68, 75%, 70%)" opacity="0.48"></circle><circle r="13.5" cx="763" cy="239" fill="hsl(185, 75%, 70%)" opacity="0.81"></circle><circle r="10" cx="23" cy="715" fill="hsl(78, 75%, 70%)" opacity="0.33"></circle><circle r="6.5" cx="513" cy="586" fill="hsl(95, 75%, 70%)" opacity="0.55"></circle><circle r="8.5" cx="111" cy="123" fill="hsl(104, 75%, 70%)" opacity="0.28"></circle><circle r="9.5" cx="389" cy="469" fill="hsl(137, 75%, 70%)" opacity="0.64"></circle><circle r="6" cx="461" cy="629" fill="hsl(115, 75%, 70%)" opacity="0.46"></circle><circle r="11" cx="156" cy="261" fill="hsl(196, 75%, 70%)" opacity="0.97"></circle><circle r="11" cx="187" cy="701" fill="hsl(216, 75%, 70%)" opacity="0.98"></circle><circle r="12.5" cx="281" cy="556" fill="hsl(216, 75%, 70%)" opacity="0.38"></circle><circle r="8.5" cx="749" cy="289" fill="hsl(150, 75%, 70%)" opacity="0.96"></circle></svg>