<svg xmlns="http://www.w3.org/2000/svg" version="1.1" xmlns:xlink="http://www.w3.org/1999/xlink" xmlns:svgjs="http://svgjs.dev/svgjs" viewBox="0 0 800 800"><circle r="7" cx="626" cy="337" fill="hsl(173, 75%, 70%)" opacity="0.55"></circle><circle r="8.5" cx="325" cy="78" fill="hsl(209, 75%, 70%)" opacity="0.11"></circle><circle r="8" cx="543" cy="101" fill="hsl(185, 75%, 70%)" opacity="0.30"></circle><circle r="6.5" cx="347" cy="577" fill="hsl(235, 75%, 70%)" opacity="0.15"></circle><circle r="4.5" cx="453" cy="14" fill="hsl(174, 75%, 70%)" opacity="0.12"></circle><circle r="8.5" cx="239" cy="355" fill="hsl(278, 75%, 70%)" opacity="0.41"></circle><circle r="9" cx="203" cy="385" fill="hsl(277, 75%, 70%)" opacity="0.85"></circle><circle r="17" cx="290" cy="667" fill="hsl(263, 75%, 70%)" opacity="0.42"></circle><circle r="9.5" cx="244" cy="303" fill="hsl(278, 75%, 70%)" opacity="0.86"></circle><circle r="7" cx="542" cy="370" fill="hsl(179, 75%, 70%)" opacity="0.61"></circle><circle r="13.5" cx="162" cy="490" fill="hsl(262, 75%, 70%)" opacity="0.18"></circle><circle r="9.5" cx="739" cy="503" fill="hsl(228, 75%, 70%)" opacity="0.16"></circle><circle r="8.5" cx="82" cy="344" fill="hsl(243, 75%, 70%)" opacity="0.69"></circle><circle r="8" cx="513" cy="330" fill="hsl(183, 75%, 70%)" opacity="0.35"></circle><circle r="6.5" cx="556" cy="46" fill="hsl(184, 75%, 70%)" opacity="0.70"></circle><circle r="7.5" cx="786" cy="374" fill="hsl(261, 75%, 70%)" opacity="0.67"></circle><circle r="6" cx="113" cy="82" fill="hsl(189, 75%, 70%)" opacity="0.62"></circle><circle r="3" cx="685" cy="642" fill="hsl(185, 75%, 70%)" opacity="0.64"></circle><circle r="8" cx="236" cy="389" fill="hsl(279, 75%, 70%)" opacity="0.85"></circle><circle r="8" cx="192" cy="39" fill="hsl(187, 75%, 70%)" opacity="0.82"></circle><circle r="9.5" cx="205" cy="584" fill="hsl(277, 75%, 70%)" opacity="0.64"></circle><circle r="7" cx="98" cy="579" fill="hsl(244, 75%, 70%)" opacity="0.40"></circle><circle r="10.5" cx="19" cy="713" fill="hsl(251, 75%, 70%)" opacity="0.71"></circle><circle r="9" cx="299" cy="148" fill="hsl(246, 75%, 70%)" opacity="0.47"></circle><circle r="10" cx="382" cy="355" fill="hsl(215, 75%, 70%)" opacity="0.47"></circle><circle r="6.5" cx="637" cy="129" fill="hsl(181, 75%, 70%)" opacity="0.60"></circle><circle r="6.5" cx="482" cy="271" fill="hsl(189, 75%, 70%)" opacity="0.96"></circle><circle r="5.5" cx="676" cy="740" fill="hsl(185, 75%, 70%)" opacity="0.14"></circle><circle r="5.5" cx="514" cy="273" fill="hsl(183, 75%, 70%)" opacity="0.34"></circle><circle r="4.5" cx="21" cy="380" fill="hsl(251, 75%, 70%)" opacity="0.56"></circle><circle r="8" cx="664" cy="164" fill="hsl(183, 75%, 70%)" opacity="0.38"></circle><circle r="7" cx="578" cy="736" fill="hsl(174, 75%, 70%)" opacity="0.58"></circle><circle r="7" cx="71" cy="565" fill="hsl(243, 75%, 70%)" opacity="0.50"></circle><circle r="8.5" cx="80" cy="438" fill="hsl(243, 75%, 70%)" opacity="0.58"></circle><circle r="12.5" cx="763" cy="722" fill="hsl(250, 75%, 70%)" opacity="0.18"></circle><circle r="14.5" cx="81" cy="176" fill="hsl(237, 75%, 70%)" opacity="0.59"></circle><circle r="10" cx="181" cy="304" fill="hsl(271, 75%, 70%)" opacity="0.76"></circle><circle r="10.5" cx="170" cy="650" fill="hsl(267, 75%, 70%)" opacity="0.36"></circle><circle r="4.5" cx="58" cy="11" fill="hsl(205, 75%, 70%)" opacity="0.62"></circle><circle r="11" cx="188" cy="745" fill="hsl(274, 75%, 70%)" opacity="0.37"></circle><circle r="6" cx="462" cy="214" fill="hsl(193, 75%, 70%)" opacity="0.81"></circle><circle r="12.5" cx="333" cy="347" fill="hsl(242, 75%, 70%)" opacity="0.13"></circle><circle r="6" cx="32" cy="25" fill="hsl(225, 75%, 70%)" opacity="0.53"></circle><circle r="9.5" cx="152" cy="86" fill="hsl(192, 75%, 70%)" opacity="0.49"></circle><circle r="7.5" cx="503" cy="549" fill="hsl(185, 75%, 70%)" opacity="0.11"></circle><circle r="8.5" cx="425" cy="333" fill="hsl(201, 75%, 70%)" opacity="0.75"></circle><circle r="5.5" cx="408" cy="573" fill="hsl(205, 75%, 70%)" opacity="0.43"></circle><circle r="6" cx="179" cy="589" fill="hsl(271, 75%, 70%)" opacity="0.95"></circle><circle r="5.5" cx="610" cy="721" fill="hsl(172, 75%, 70%)" opacity="0.57"></circle><circle r="10" cx="235" cy="421" fill="hsl(279, 75%, 70%)" opacity="0.55"></circle><circle r="4.5" cx="631" cy="176" fill="hsl(174, 75%, 70%)" opacity="0.58"></circle><circle r="9" cx="154" cy="228" fill="hsl(262, 75%, 70%)" opacity="0.32"></circle><circle r="9.5" cx="184" cy="252" fill="hsl(271, 75%, 70%)" opacity="0.29"></circle><circle r="12.5" cx="275" cy="427" fill="hsl(268, 75%, 70%)" opacity="0.47"></circle><circle r="8.5" cx="333" cy="613" fill="hsl(242, 75%, 70%)" opacity="0.76"></circle><circle r="9" cx="744" cy="219" fill="hsl(228, 75%, 70%)" opacity="0.45"></circle><circle r="8.5" cx="343" cy="152" fill="hsl(229, 75%, 70%)" opacity="0.63"></circle><circle r="8" cx="354" cy="528" fill="hsl(227, 75%, 70%)" opacity="0.12"></circle><circle r="5.5" cx="552" cy="142" fill="hsl(183, 75%, 70%)" opacity="0.76"></circle><circle r="7.5" cx="265" cy="248" fill="hsl(273, 75%, 70%)" opacity="0.64"></circle><circle r="12.5" cx="356" cy="773" fill="hsl(227, 75%, 70%)" opacity="0.45"></circle><circle r="11" cx="779" cy="135" fill="hsl(259, 75%, 70%)" opacity="0.38"></circle><circle r="12.5" cx="269" cy="566" fill="hsl(273, 75%, 70%)" opacity="0.80"></circle><circle r="7" cx="374" cy="574" fill="hsl(221, 75%, 70%)" opacity="0.76"></circle><circle r="9.5" cx="603" cy="502" fill="hsl(172, 75%, 70%)" opacity="0.59"></circle><circle r="10" cx="688" cy="73" fill="hsl(212, 75%, 70%)" opacity="0.35"></circle><circle r="7.5" cx="492" cy="93" fill="hsl(184, 75%, 70%)" opacity="0.48"></circle><circle r="7.5" cx="451" cy="450" fill="hsl(193, 75%, 70%)" opacity="0.40"></circle><circle r="6.5" cx="577" cy="263" fill="hsl(174, 75%, 70%)" opacity="0.13"></circle><circle r="9" cx="57" cy="601" fill="hsl(244, 75%, 70%)" opacity="0.14"></circle><circle r="9.5" cx="224" cy="70" fill="hsl(205, 75%, 70%)" opacity="0.91"></circle><circle r="5.5" cx="214" cy="324" fill="hsl(278, 75%, 70%)" opacity="0.89"></circle><circle r="10.5" cx="418" cy="705" fill="hsl(201, 75%, 70%)" opacity="0.58"></circle><circle r="10.5" cx="739" cy="316" fill="hsl(228, 75%, 70%)" opacity="0.81"></circle><circle r="10" cx="24" cy="134" fill="hsl(240, 75%, 70%)" opacity="0.12"></circle><circle r="6.5" cx="462" cy="68" fill="hsl(179, 75%, 70%)" opacity="0.97"></circle><circle r="4.5" cx="546" cy="251" fill="hsl(179, 75%, 70%)" opacity="0.16"></circle><circle r="6.5" cx="649" cy="91" fill="hsl(190, 75%, 70%)" opacity="0.12"></circle><circle r="7.5" cx="498" cy="187" fill="hsl(189, 75%, 70%)" opacity="0.92"></circle><circle r="7" cx="406" cy="62" fill="hsl(179, 75%, 70%)" opacity="0.57"></circle><circle r="5.5" cx="524" cy="446" fill="hsl(183, 75%, 70%)" opacity="0.85"></circle><circle r="6" cx="662" cy="707" fill="hsl(177, 75%, 70%)" opacity="0.99"></circle><circle r="7" cx="542" cy="292" fill="hsl(179, 75%, 70%)" opacity="0.58"></circle><circle r="7" cx="521" cy="53" fill="hsl(181, 75%, 70%)" opacity="0.48"></circle><circle r="8" cx="123" cy="207" fill="hsl(250, 75%, 70%)" opacity="0.25"></circle><circle r="10" cx="188" cy="352" fill="hsl(274, 75%, 70%)" opacity="0.91"></circle><circle r="9" cx="268" cy="370" fill="hsl(273, 75%, 70%)" opacity="0.21"></circle><circle r="5" cx="227" cy="339" fill="hsl(279, 75%, 70%)" opacity="0.92"></circle><circle r="7" cx="46" cy="786" fill="hsl(245, 75%, 70%)" opacity="0.84"></circle><circle r="11.5" cx="739" cy="440" fill="hsl(228, 75%, 70%)" opacity="0.25"></circle><circle r="9.5" cx="167" cy="386" fill="hsl(267, 75%, 70%)" opacity="0.62"></circle><circle r="13.5" cx="246" cy="726" fill="hsl(278, 75%, 70%)" opacity="0.28"></circle><circle r="9.5" cx="286" cy="220" fill="hsl(268, 75%, 70%)" opacity="0.88"></circle><circle r="8.5" cx="390" cy="537" fill="hsl(209, 75%, 70%)" opacity="0.72"></circle><circle r="8" cx="344" cy="492" fill="hsl(235, 75%, 70%)" opacity="0.31"></circle><circle r="4.5" cx="619" cy="774" fill="hsl(172, 75%, 70%)" opacity="0.86"></circle><circle r="6.5" cx="454" cy="410" fill="hsl(193, 75%, 70%)" opacity="0.69"></circle><circle r="6.5" cx="500" cy="20" fill="hsl(177, 75%, 70%)" opacity="0.77"></circle><circle r="11" cx="154" cy="334" fill="hsl(262, 75%, 70%)" opacity="0.25"></circle><circle r="10.5" cx="780" cy="602" fill="hsl(261, 75%, 70%)" opacity="0.80"></circle><circle r="7.5" cx="19" cy="752" fill="hsl(251, 75%, 70%)" opacity="0.30"></circle><circle r="4.5" cx="645" cy="786" fill="hsl(174, 75%, 70%)" opacity="0.88"></circle><circle r="8" cx="185" cy="428" fill="hsl(271, 75%, 70%)" opacity="0.29"></circle><circle r="11.5" cx="196" cy="116" fill="hsl(224, 75%, 70%)" opacity="0.29"></circle><circle r="11.5" cx="344" cy="715" fill="hsl(235, 75%, 70%)" opacity="0.17"></circle><circle r="9.5" cx="596" cy="388" fill="hsl(173, 75%, 70%)" opacity="0.68"></circle><circle r="5" cx="100" cy="53" fill="hsl(188, 75%, 70%)" opacity="0.63"></circle><circle r="9" cx="31" cy="441" fill="hsl(248, 75%, 70%)" opacity="0.75"></circle><circle r="10.5" cx="153" cy="271" fill="hsl(262, 75%, 70%)" opacity="0.38"></circle><circle r="14" cx="289" cy="316" fill="hsl(263, 75%, 70%)" opacity="0.34"></circle><circle r="6.5" cx="250" cy="137" fill="hsl(246, 75%, 70%)" opacity="0.45"></circle><circle r="8" cx="403" cy="656" fill="hsl(205, 75%, 70%)" opacity="0.50"></circle><circle r="8" cx="248" cy="511" fill="hsl(278, 75%, 70%)" opacity="0.63"></circle><circle r="7" cx="652" cy="292" fill="hsl(177, 75%, 70%)" opacity="0.76"></circle><circle r="9.5" cx="367" cy="236" fill="hsl(221, 75%, 70%)" opacity="0.53"></circle><circle r="6" cx="631" cy="609" fill="hsl(173, 75%, 70%)" opacity="0.24"></circle><circle r="6.5" cx="787" cy="663" fill="hsl(261, 75%, 70%)" opacity="0.25"></circle><circle r="6" cx="551" cy="221" fill="hsl(178, 75%, 70%)" opacity="0.23"></circle><circle r="11" cx="299" cy="37" fill="hsl(202, 75%, 70%)" opacity="0.50"></circle><circle r="6" cx="587" cy="783" fill="hsl(174, 75%, 70%)" opacity="0.96"></circle><circle r="9.5" cx="123" cy="384" fill="hsl(250, 75%, 70%)" opacity="0.86"></circle><circle r="7" cx="488" cy="133" fill="hsl(189, 75%, 70%)" opacity="0.74"></circle><circle r="7.5" cx="388" cy="494" fill="hsl(209, 75%, 70%)" opacity="0.18"></circle><circle r="5.5" cx="352" cy="15" fill="hsl(188, 75%, 70%)" opacity="0.20"></circle><circle r="10" cx="504" cy="598" fill="hsl(185, 75%, 70%)" opacity="0.49"></circle><circle r="9" cx="783" cy="455" fill="hsl(261, 75%, 70%)" opacity="0.70"></circle><circle r="9" cx="379" cy="191" fill="hsl(215, 75%, 70%)" opacity="0.91"></circle><circle r="10.5" cx="312" cy="568" fill="hsl(256, 75%, 70%)" opacity="0.41"></circle><circle r="8.5" cx="535" cy="669" fill="hsl(181, 75%, 70%)" opacity="0.38"></circle><circle r="6" cx="408" cy="603" fill="hsl(205, 75%, 70%)" opacity="0.95"></circle><circle r="6.5" cx="519" cy="148" fill="hsl(188, 75%, 70%)" opacity="0.19"></circle><circle r="6" cx="101" cy="18" fill="hsl(179, 75%, 70%)" opacity="0.31"></circle><circle r="9" cx="19" cy="540" fill="hsl(251, 75%, 70%)" opacity="0.48"></circle><circle r="9.5" cx="289" cy="183" fill="hsl(259, 75%, 70%)" opacity="0.15"></circle><circle r="8" cx="318" cy="117" fill="hsl(228, 75%, 70%)" opacity="0.68"></circle><circle r="7" cx="681" cy="435" fill="hsl(185, 75%, 70%)" opacity="0.46"></circle><circle r="5.5" cx="704" cy="653" fill="hsl(199, 75%, 70%)" opacity="0.64"></circle><circle r="9" cx="24" cy="576" fill="hsl(251, 75%, 70%)" opacity="0.46"></circle><circle r="9" cx="373" cy="686" fill="hsl(221, 75%, 70%)" opacity="0.16"></circle><circle r="4.5" cx="429" cy="531" fill="hsl(198, 75%, 70%)" opacity="0.76"></circle><circle r="8.5" cx="249" cy="169" fill="hsl(266, 75%, 70%)" opacity="0.75"></circle><circle r="7.5" cx="482" cy="383" fill="hsl(189, 75%, 70%)" opacity="0.94"></circle><circle r="4" cx="639" cy="729" fill="hsl(174, 75%, 70%)" opacity="0.95"></circle><circle r="9" cx="236" cy="241" fill="hsl(279, 75%, 70%)" opacity="0.80"></circle><circle r="7.5" cx="206" cy="445" fill="hsl(277, 75%, 70%)" opacity="0.87"></circle><circle r="8" cx="361" cy="102" fill="hsl(208, 75%, 70%)" opacity="0.54"></circle><circle r="11.5" cx="714" cy="265" fill="hsl(208, 75%, 70%)" opacity="0.70"></circle><circle r="7" cx="74" cy="406" fill="hsl(243, 75%, 70%)" opacity="0.48"></circle><circle r="11" cx="90" cy="634" fill="hsl(244, 75%, 70%)" opacity="0.33"></circle><circle r="9.5" cx="707" cy="567" fill="hsl(199, 75%, 70%)" opacity="0.98"></circle><circle r="6.5" cx="646" cy="471" fill="hsl(174, 75%, 70%)" opacity="0.10"></circle><circle r="9" cx="17" cy="293" fill="hsl(251, 75%, 70%)" opacity="0.90"></circle><circle r="8" cx="502" cy="229" fill="hsl(185, 75%, 70%)" opacity="0.96"></circle><circle r="9" cx="15" cy="408" fill="hsl(251, 75%, 70%)" opacity="0.43"></circle><circle r="12.5" cx="740" cy="94" fill="hsl(234, 75%, 70%)" opacity="0.26"></circle><circle r="5" cx="422" cy="508" fill="hsl(201, 75%, 70%)" opacity="0.73"></circle><circle r="7" cx="586" cy="72" fill="hsl(185, 75%, 70%)" opacity="0.23"></circle><circle r="7" cx="720" cy="622" fill="hsl(208, 75%, 70%)" opacity="0.15"></circle><circle r="8" cx="560" cy="524" fill="hsl(178, 75%, 70%)" opacity="0.23"></circle><circle r="11.5" cx="778" cy="768" fill="hsl(261, 75%, 70%)" opacity="0.79"></circle><circle r="9.5" cx="297" cy="259" fill="hsl(263, 75%, 70%)" opacity="0.90"></circle><circle r="11" cx="94" cy="778" fill="hsl(244, 75%, 70%)" opacity="0.29"></circle><circle r="6" cx="762" cy="672" fill="hsl(239, 75%, 70%)" opacity="0.21"></circle><circle r="3" cx="622" cy="751" fill="hsl(172, 75%, 70%)" opacity="0.35"></circle><circle r="6.5" cx="580" cy="23" fill="hsl(192, 75%, 70%)" opacity="0.60"></circle><circle r="6.5" cx="18" cy="636" fill="hsl(251, 75%, 70%)" opacity="0.20"></circle><circle r="7.5" cx="361" cy="51" fill="hsl(193, 75%, 70%)" opacity="0.67"></circle><circle r="9.5" cx="189" cy="783" fill="hsl(274, 75%, 70%)" opacity="0.40"></circle><circle r="12.5" cx="346" cy="409" fill="hsl(235, 75%, 70%)" opacity="0.20"></circle><circle r="8" cx="152" cy="618" fill="hsl(262, 75%, 70%)" opacity="0.10"></circle><circle r="11.5" cx="240" cy="205" fill="hsl(278, 75%, 70%)" opacity="0.73"></circle><circle r="12.5" cx="245" cy="607" fill="hsl(278, 75%, 70%)" opacity="0.17"></circle><circle r="6.5" cx="591" cy="300" fill="hsl(173, 75%, 70%)" opacity="0.71"></circle><circle r="6.5" cx="455" cy="296" fill="hsl(193, 75%, 70%)" opacity="0.78"></circle><circle r="8" cx="61" cy="727" fill="hsl(244, 75%, 70%)" opacity="0.59"></circle><circle r="11" cx="24" cy="228" fill="hsl(251, 75%, 70%)" opacity="0.72"></circle><circle r="6.5" cx="463" cy="167" fill="hsl(193, 75%, 70%)" opacity="0.88"></circle><circle r="7.5" cx="463" cy="573" fill="hsl(191, 75%, 70%)" opacity="0.84"></circle><circle r="11" cx="87" cy="232" fill="hsl(243, 75%, 70%)" opacity="0.96"></circle><circle r="8.5" cx="558" cy="624" fill="hsl(178, 75%, 70%)" opacity="0.45"></circle><circle r="10.5" cx="684" cy="217" fill="hsl(185, 75%, 70%)" opacity="0.34"></circle><circle r="12" cx="374" cy="299" fill="hsl(221, 75%, 70%)" opacity="0.99"></circle><circle r="10" cx="317" cy="519" fill="hsl(249, 75%, 70%)" opacity="0.95"></circle><circle r="5.5" cx="441" cy="189" fill="hsl(195, 75%, 70%)" opacity="0.28"></circle><circle r="11" cx="170" cy="538" fill="hsl(267, 75%, 70%)" opacity="0.97"></circle><circle r="8.5" cx="200" cy="224" fill="hsl(274, 75%, 70%)" opacity="0.41"></circle><circle r="11.5" cx="21" cy="67" fill="hsl(237, 75%, 70%)" opacity="0.58"></circle><circle r="13.5" cx="56" cy="271" fill="hsl(244, 75%, 70%)" opacity="0.16"></circle><circle r="11" cx="780" cy="290" fill="hsl(261, 75%, 70%)" opacity="0.76"></circle><circle r="12" cx="719" cy="25" fill="hsl(236, 75%, 70%)" opacity="0.18"></circle><circle r="9.5" cx="534" cy="723" fill="hsl(181, 75%, 70%)" opacity="0.19"></circle><circle r="6.5" cx="566" cy="434" fill="hsl(176, 75%, 70%)" opacity="0.83"></circle><circle r="5" cx="645" cy="654" fill="hsl(174, 75%, 70%)" opacity="0.56"></circle><circle r="13" cx="435" cy="767" fill="hsl(198, 75%, 70%)" opacity="0.54"></circle><circle r="12.5" cx="115" cy="298" fill="hsl(250, 75%, 70%)" opacity="0.78"></circle><circle r="7" cx="286" cy="787" fill="hsl(268, 75%, 70%)" opacity="0.90"></circle><circle r="7" cx="19" cy="609" fill="hsl(251, 75%, 70%)" opacity="0.26"></circle><circle r="6.5" cx="603" cy="635" fill="hsl(172, 75%, 70%)" opacity="0.44"></circle><circle r="9.5" cx="214" cy="269" fill="hsl(278, 75%, 70%)" opacity="0.89"></circle><circle r="6.5" cx="628" cy="687" fill="hsl(173, 75%, 70%)" opacity="0.24"></circle><circle r="7.5" cx="731" cy="674" fill="hsl(218, 75%, 70%)" opacity="0.77"></circle><circle r="9.5" cx="117" cy="345" fill="hsl(250, 75%, 70%)" opacity="0.28"></circle><circle r="11" cx="147" cy="716" fill="hsl(258, 75%, 70%)" opacity="0.51"></circle><circle r="7.5" cx="419" cy="159" fill="hsl(201, 75%, 70%)" opacity="0.42"></circle><circle r="9.5" cx="122" cy="600" fill="hsl(250, 75%, 70%)" opacity="0.43"></circle><circle r="10" cx="690" cy="321" fill="hsl(192, 75%, 70%)" opacity="0.61"></circle><circle r="7" cx="13" cy="338" fill="hsl(251, 75%, 70%)" opacity="0.33"></circle><circle r="8.5" cx="236" cy="645" fill="hsl(279, 75%, 70%)" opacity="0.46"></circle><circle r="8" cx="741" cy="178" fill="hsl(229, 75%, 70%)" opacity="0.19"></circle><circle r="8.5" cx="151" cy="182" fill="hsl(254, 75%, 70%)" opacity="0.95"></circle><circle r="7" cx="539" cy="779" fill="hsl(179, 75%, 70%)" opacity="0.38"></circle><circle r="13" cx="312" cy="457" fill="hsl(256, 75%, 70%)" opacity="0.86"></circle><circle r="8.5" cx="48" cy="327" fill="hsl(245, 75%, 70%)" opacity="0.52"></circle><circle r="5" cx="390" cy="624" fill="hsl(209, 75%, 70%)" opacity="0.81"></circle><circle r="9" cx="249" cy="23" fill="hsl(196, 75%, 70%)" opacity="0.55"></circle><circle r="8.5" cx="493" cy="655" fill="hsl(187, 75%, 70%)" opacity="0.56"></circle><circle r="9" cx="636" cy="549" fill="hsl(173, 75%, 70%)" opacity="0.86"></circle><circle r="7" cx="398" cy="106" fill="hsl(195, 75%, 70%)" opacity="0.63"></circle><circle r="9.5" cx="200" cy="628" fill="hsl(277, 75%, 70%)" opacity="0.77"></circle><circle r="7.5" cx="62" cy="48" fill="hsl(207, 75%, 70%)" opacity="0.95"></circle><circle r="5" cx="365" cy="619" fill="hsl(221, 75%, 70%)" opacity="0.48"></circle><circle r="5.5" cx="629" cy="266" fill="hsl(173, 75%, 70%)" opacity="0.49"></circle><circle r="9" cx="149" cy="569" fill="hsl(258, 75%, 70%)" opacity="0.35"></circle><circle r="5" cx="13" cy="776" fill="hsl(251, 75%, 70%)" opacity="0.78"></circle><circle r="11.5" cx="67" cy="477" fill="hsl(243, 75%, 70%)" opacity="0.65"></circle><circle r="5" cx="48" cy="400" fill="hsl(245, 75%, 70%)" opacity="0.99"></circle><circle r="6.5" cx="524" cy="404" fill="hsl(183, 75%, 70%)" opacity="0.88"></circle><circle r="10" cx="69" cy="685" fill="hsl(243, 75%, 70%)" opacity="0.86"></circle><circle r="5.5" cx="614" cy="233" fill="hsl(172, 75%, 70%)" opacity="0.26"></circle><circle r="6" cx="32" cy="365" fill="hsl(248, 75%, 70%)" opacity="0.10"></circle><circle r="6.5" cx="491" cy="445" fill="hsl(187, 75%, 70%)" opacity="0.86"></circle><circle r="10" cx="328" cy="207" fill="hsl(242, 75%, 70%)" opacity="0.63"></circle><circle r="5" cx="618" cy="13" fill="hsl(200, 75%, 70%)" opacity="0.48"></circle><circle r="9" cx="229" cy="466" fill="hsl(279, 75%, 70%)" opacity="0.27"></circle><circle r="10" cx="363" cy="455" fill="hsl(221, 75%, 70%)" opacity="0.57"></circle><circle r="12" cx="65" cy="107" fill="hsl(210, 75%, 70%)" opacity="0.87"></circle><circle r="6.5" cx="650" cy="372" fill="hsl(177, 75%, 70%)" opacity="0.49"></circle><circle r="8.5" cx="745" cy="586" fill="hsl(228, 75%, 70%)" opacity="0.50"></circle><circle r="13.5" cx="104" cy="523" fill="hsl(247, 75%, 70%)" opacity="0.82"></circle><circle r="11" cx="188" cy="191" fill="hsl(274, 75%, 70%)" opacity="0.50"></circle><circle r="7.5" cx="683" cy="393" fill="hsl(185, 75%, 70%)" opacity="0.79"></circle><circle r="6.5" cx="537" cy="182" fill="hsl(183, 75%, 70%)" opacity="0.95"></circle><circle r="11.5" cx="196" cy="702" fill="hsl(274, 75%, 70%)" opacity="0.73"></circle><circle r="5.5" cx="432" cy="561" fill="hsl(198, 75%, 70%)" opacity="0.97"></circle><circle r="7" cx="634" cy="428" fill="hsl(173, 75%, 70%)" opacity="0.18"></circle><circle r="10" cx="56" cy="530" fill="hsl(244, 75%, 70%)" opacity="0.70"></circle><circle r="8" cx="706" cy="475" fill="hsl(199, 75%, 70%)" opacity="0.71"></circle><circle r="6.5" cx="621" cy="59" fill="hsl(192, 75%, 70%)" opacity="0.58"></circle><circle r="7" cx="550" cy="473" fill="hsl(178, 75%, 70%)" opacity="0.24"></circle><circle r="10" cx="773" cy="342" fill="hsl(250, 75%, 70%)" opacity="0.61"></circle><circle r="8" cx="420" cy="379" fill="hsl(201, 75%, 70%)" opacity="0.83"></circle><circle r="7" cx="609" cy="103" fill="hsl(183, 75%, 70%)" opacity="0.21"></circle><circle r="8.5" cx="685" cy="121" fill="hsl(196, 75%, 70%)" opacity="0.22"></circle><circle r="8.5" cx="54" cy="648" fill="hsl(244, 75%, 70%)" opacity="0.38"></circle><circle r="14.5" cx="294" cy="743" fill="hsl(263, 75%, 70%)" opacity="0.82"></circle><circle r="13" cx="774" cy="534" fill="hsl(250, 75%, 70%)" opacity="0.82"></circle><circle r="7.5" cx="152" cy="21" fill="hsl(175, 75%, 70%)" opacity="0.24"></circle><circle r="8.5" cx="380" cy="147" fill="hsl(209, 75%, 70%)" opacity="0.60"></circle><circle r="3" cx="12" cy="794" fill="hsl(254, 75%, 70%)" opacity="0.92"></circle><circle r="7" cx="576" cy="186" fill="hsl(176, 75%, 70%)" opacity="0.81"></circle><circle r="4.5" cx="750" cy="781" fill="hsl(228, 75%, 70%)" opacity="0.59"></circle><circle r="12" cx="133" cy="141" fill="hsl(221, 75%, 70%)" opacity="0.32"></circle><circle r="9" cx="705" cy="709" fill="hsl(199, 75%, 70%)" opacity="0.71"></circle><circle r="6" cx="232" cy="493" fill="hsl(279, 75%, 70%)" opacity="0.58"></circle><circle r="11" cx="29" cy="181" fill="hsl(244, 75%, 70%)" opacity="0.32"></circle><circle r="5" cx="437" cy="39" fill="hsl(175, 75%, 70%)" opacity="0.22"></circle><circle r="10" cx="657" cy="34" fill="hsl(208, 75%, 70%)" opacity="0.56"></circle><circle r="9.5" cx="205" cy="508" fill="hsl(277, 75%, 70%)" opacity="0.45"></circle><circle r="2.5" cx="736" cy="795" fill="hsl(218, 75%, 70%)" opacity="0.26"></circle><circle r="11.5" cx="293" cy="612" fill="hsl(263, 75%, 70%)" opacity="0.29"></circle><circle r="13.5" cx="141" cy="768" fill="hsl(258, 75%, 70%)" opacity="0.81"></circle><circle r="6.5" cx="674" cy="774" fill="hsl(180, 75%, 70%)" opacity="0.59"></circle><circle r="6.5" cx="452" cy="246" fill="hsl(193, 75%, 70%)" opacity="0.14"></circle><circle r="5" cx="628" cy="204" fill="hsl(173, 75%, 70%)" opacity="0.30"></circle><circle r="6.5" cx="53" cy="756" fill="hsl(244, 75%, 70%)" opacity="0.63"></circle><circle r="5.5" cx="479" cy="319" fill="hsl(189, 75%, 70%)" opacity="0.63"></circle><circle r="9.5" cx="281" cy="483" fill="hsl(268, 75%, 70%)" opacity="0.18"></circle><circle r="7.5" cx="666" cy="591" fill="hsl(180, 75%, 70%)" opacity="0.56"></circle><circle r="9" cx="771" cy="401" fill="hsl(250, 75%, 70%)" opacity="0.31"></circle><circle r="9.5" cx="231" cy="777" fill="hsl(279, 75%, 70%)" opacity="0.69"></circle><circle r="8.5" cx="580" cy="681" fill="hsl(174, 75%, 70%)" opacity="0.39"></circle><circle r="8.5" cx="713" cy="769" fill="hsl(208, 75%, 70%)" opacity="1.00"></circle><circle r="10" cx="447" cy="625" fill="hsl(195, 75%, 70%)" opacity="0.96"></circle><circle r="10" cx="773" cy="247" fill="hsl(250, 75%, 70%)" opacity="0.71"></circle><circle r="7" cx="16" cy="508" fill="hsl(251, 75%, 70%)" opacity="0.66"></circle><circle r="9" cx="717" cy="152" fill="hsl(211, 75%, 70%)" opacity="0.48"></circle><circle r="6.5" cx="463" cy="350" fill="hsl(191, 75%, 70%)" opacity="0.14"></circle><circle r="9.5" cx="280" cy="527" fill="hsl(268, 75%, 70%)" opacity="0.90"></circle><circle r="11.5" cx="303" cy="385" fill="hsl(256, 75%, 70%)" opacity="0.29"></circle><circle r="8" cx="212" cy="299" fill="hsl(277, 75%, 70%)" opacity="0.30"></circle><circle r="10" cx="418" cy="276" fill="hsl(201, 75%, 70%)" opacity="0.74"></circle><circle r="6.5" cx="582" cy="128" fill="hsl(182, 75%, 70%)" opacity="0.80"></circle><circle r="5.5" cx="440" cy="130" fill="hsl(193, 75%, 70%)" opacity="0.75"></circle><circle r="5.5" cx="257" cy="779" fill="hsl(276, 75%, 70%)" opacity="0.29"></circle><circle r="9" cx="118" cy="252" fill="hsl(250, 75%, 70%)" opacity="0.50"></circle><circle r="11.5" cx="725" cy="380" fill="hsl(218, 75%, 70%)" opacity="0.43"></circle><circle r="9.5" cx="151" cy="423" fill="hsl(262, 75%, 70%)" opacity="0.55"></circle><circle r="6.5" cx="788" cy="192" fill="hsl(272, 75%, 70%)" opacity="0.14"></circle><circle r="9.5" cx="415" cy="219" fill="hsl(201, 75%, 70%)" opacity="0.85"></circle><circle r="8.5" cx="676" cy="508" fill="hsl(185, 75%, 70%)" opacity="0.45"></circle><circle r="9.5" cx="342" cy="652" fill="hsl(235, 75%, 70%)" opacity="0.88"></circle><circle r="9.5" cx="494" cy="761" fill="hsl(187, 75%, 70%)" opacity="0.81"></circle><circle r="9.5" cx="405" cy="420" fill="hsl(205, 75%, 70%)" opacity="0.35"></circle><circle r="7" cx="467" cy="525" fill="hsl(191, 75%, 70%)" opacity="0.10"></circle><circle r="6" cx="437" cy="99" fill="hsl(185, 75%, 70%)" opacity="0.77"></circle><circle r="11" cx="123" cy="472" fill="hsl(250, 75%, 70%)" opacity="0.59"></circle><circle r="7.5" cx="569" cy="335" fill="hsl(176, 75%, 70%)" opacity="0.30"></circle><circle r="9.5" cx="116" cy="429" fill="hsl(250, 75%, 70%)" opacity="0.66"></circle><circle r="9.5" cx="469" cy="699" fill="hsl(191, 75%, 70%)" opacity="0.69"></circle><circle r="5.5" cx="64" cy="373" fill="hsl(243, 75%, 70%)" opacity="0.90"></circle><circle r="10.5" cx="102" cy="722" fill="hsl(247, 75%, 70%)" opacity="0.36"></circle><circle r="7.5" cx="260" cy="277" fill="hsl(276, 75%, 70%)" opacity="0.34"></circle><circle r="5.5" cx="606" cy="156" fill="hsl(177, 75%, 70%)" opacity="0.43"></circle><circle r="7.5" cx="412" cy="467" fill="hsl(205, 75%, 70%)" opacity="0.31"></circle><circle r="11.5" cx="778" cy="50" fill="hsl(257, 75%, 70%)" opacity="0.57"></circle><circle r="10" cx="19" cy="670" fill="hsl(251, 75%, 70%)" opacity="0.39"></circle><circle r="6.5" cx="457" cy="488" fill="hsl(193, 75%, 70%)" opacity="0.31"></circle><circle r="8" cx="272" cy="81" fill="hsl(220, 75%, 70%)" opacity="0.62"></circle><circle r="12" cx="226" cy="553" fill="hsl(279, 75%, 70%)" opacity="0.15"></circle><circle r="9" cx="511" cy="502" fill="hsl(185, 75%, 70%)" opacity="0.13"></circle><circle r="12.5" cx="133" cy="671" fill="hsl(254, 75%, 70%)" opacity="0.37"></circle><circle r="7" cx="750" cy="637" fill="hsl(239, 75%, 70%)" opacity="0.40"></circle><circle r="3.5" cx="670" cy="658" fill="hsl(180, 75%, 70%)" opacity="0.61"></circle><circle r="6" cx="601" cy="448" fill="hsl(172, 75%, 70%)" opacity="0.16"></circle><circle r="11" cx="335" cy="273" fill="hsl(242, 75%, 70%)" opacity="0.45"></circle><circle r="5" cx="767" cy="191" fill="hsl(250, 75%, 70%)" opacity="0.26"></circle><circle r="9" cx="566" cy="573" fill="hsl(176, 75%, 70%)" opacity="0.19"></circle><circle r="10.5" cx="211" cy="159" fill="hsl(253, 75%, 70%)" opacity="0.99"></circle><circle r="9" cx="23" cy="477" fill="hsl(251, 75%, 70%)" opacity="0.25"></circle><circle r="5.5" cx="407" cy="16" fill="hsl(176, 75%, 70%)" opacity="0.37"></circle><circle r="6.5" cx="264" cy="112" fill="hsl(232, 75%, 70%)" opacity="0.43"></circle><circle r="5" cx="11" cy="16" fill="hsl(247, 75%, 70%)" opacity="0.87"></circle><circle r="10" cx="229" cy="677" fill="hsl(279, 75%, 70%)" opacity="0.43"></circle></svg>