<svg xmlns="http://www.w3.org/2000/svg" version="1.1" xmlns:xlink="http://www.w3.org/1999/xlink" xmlns:svgjs="http://svgjs.dev/svgjs" viewBox="0 0 800 800"><defs><linearGradient x1="50%" y1="0%" x2="50%" y2="100%" id="ssscribble-grad"><stop stop-color="hsl(206, 75%, 49%)" stop-opacity="1" offset="0%"></stop><stop stop-color="hsl(331, 90%, 56%)" stop-opacity="1" offset="100%"></stop></linearGradient></defs><g fill="none" stroke-width="1.5" stroke="url(#ssscribble-grad)" stroke-linecap="round"><path d="M810.73 352.39C649.14 385.25 816.03 401.74 1055.76 403.97 913.8 404.89 811.06 405.59 1021.31 454.5 908.8 522.92 685.15 622.03 525.95 744.75 513.61 865.78 621.69 968.12 748.63 1021.55 838.42 1010.69 840.11 933.8 778 812.83 672.03 701.03 562.71 638.22 474.33 661.32 387.34 770.33 327.61 924.41 294.75 1055.78 261.89 1102.78 257.45 1042.54 282.47 908.38 333.65 702 384.7 708.53 216.36 860.34 38.78 945.43 -116.47 978.77 -147.2 958.03 -31.07 891.6 153.61 795.6 231.9 691.65 96.9 584.35 -151.5 492.24 -263 419.13 -113.53 356.88 119.9 309.68 123.11 271.8 -129.3 238 -302.85 206.09 -141.26 173.23 117.75 140.37 95.68 108.11 -155.54 79.94 -202.35 49.55 94.7 83.71 -176.5 159.36 -189.16 212.67 -15.68 261.49 192.52 284.86 310.71 262.55 285.78 190.25 181.55 70.96 21.91 -129.8 79.46 -208.63 197.54 -24.3 282.23 97.19 344.1 150.79 376.96 103.82 409.82 -27.53 412.12 -174.95 389.4 -271.31 373.5 -281.75 352.86 -200.25 358.35 -64.36 415.49 80.69 537.46 187.06 713.82 232.14 868.7 212.95 940.8 149.58 865.68 71.62 700.54 -8.03 566.02 -59.96 612.89 -77.75 830.88 -67.81 1035.23 -30.12 1007.04 22.81 782.96 88.28 633.58 154.03 777.11 212.1 1041.02 271.84 1069.75 319.52 810.73 352.39Q810.73 352.39 810.73 352.39" opacity="0.32"></path><path d="M776.73 217.39C615.38 247.9 742.68 269.22 981.53 284.18 1044.43 302.34 856.24 320.66 630.82 346.23 585.03 384.53 739.82 440.44 921.56 518.79 975.94 611.66 855.59 720.18 661.46 830.71 498.31 920.16 447.28 975.65 491.43 978.25 596.35 928.95 692.48 833.87 746.17 719.84 765.59 632.76 743.75 600.17 703.55 644.35 651.51 757.04 605.16 901.42 574.65 1021.78 544.14 1068.98 530.9 1022.79 525.4 907.03 508.05 764.38 474.38 644.85 402.08 582.4 295.51 589.25 149.13 652.08 -2.81 741.33 -93.98 836.75 -86.77 903.85 36.39 930.04 190.52 917.45 274.69 867.6 188.54 795.52 -24.96 706.65 -207.12 617.39 -183.7 537.1 19.35 458.78 190.17 393.97 115.49 342.39 -135.13 293.12 -268.6 253.59 -107.26 223.07 139.81 192.56 154.65 172.5 -62.39 164.23 -244.64 158.25 -173.3 167.55 61.29 192.99 226.09 220.4 175.98 259.41 -4.54 301.26 -153.84 326.31 -140.33 332.37 8.19 304.97 204.78 238.79 338.07 135.53 373.82 8.34 323.31 -112.67 236.93 -202.89 162.9 -232.12 101.66 -192.04 81.37 -89.89 90.97 40.97 112.71 144.96 143.82 184.99 174.34 137.82 204.85 17.48 233.31 -120.72 269.12 -221.66 317.07 -254.07 392.87 -204.13 506.98 -94.69 633.9 41.69 770.53 164.14 868.06 245.22 879.34 274.4 789.86 255.11 633.26 205.66 524.72 135.13 547.4 70.41 728.47 24.57 940.77 -6.75 1018.25 -12.42 875.81 2.15 663.58 29.45 609.61 66.64 803.64 106.02 1032.46 148.61 1023.81 186.87 776.73 217.39Q776.73 217.39 776.73 217.39" opacity="0.74"></path><path d="M742.73 173.85C583.63 202.02 672.65 231.13 896.23 263.06 1020.73 297.91 917.26 340.85 695.74 395.75 544.77 458.48 578.52 536.51 736.42 627.89 895.66 719.28 932.87 810.34 840.66 886.41 669.2 932.34 508.57 939.74 412.12 900.8 387.87 827.81 421.69 730 474.86 633.76 542.14 575 587.63 570.55 605.12 631.37 616.83 744.53 606.49 878.28 578.33 987.78 550.16 1034.61 505.5 1001.24 440.67 904.1 370.05 774.49 273.33 652.09 157.24 568.58 55.25 539.74 -24.95 564.79 -44.11 626.41 8.92 711.47 129.12 790.41 263.66 846.38 318.95 878.32 248.35 876.48 59.78 847.57 -127.44 797.46 -186.45 734.87 -56.12 670.02 144.74 599.83 232.18 536.37 96.81 483.62 -137.63 430.86 -232.36 389.71 -73.26 361.53 183.62 326.44 -186.17 324.89 -26.01 352.38 189.74 368.42 272.62 384.63 188.33 391.33 14.41 376.84 -107.7 338.25 -108.3 269.41 5.56 176.52 170.11 64.18 313.63 -50.2 409.77 -141.15 439.45 -191.47 427.45 -183.29 384.14 -120.43 342.72 -14.07 320.38 104.66 297.92 190.94 300.41 218.62 328.58 171.82 356.75 62.33 409.26 -65.71 484.84 -168.01 560.29 -217.98 652.96 -197.51 745.08 -118.12 805.89 -1.23 822.6 121.83 769.87 224.15 669.75 292.43 545.64 318.43 468.69 309.41 506.21 270.26 661.73 219.64 864.97 171.66 949.78 107.87 594.36 76.18 832.33 98.6 1017.25 119.8 976.27 145.68 742.73 173.85Q742.73 173.85 742.73 173.85" opacity="0.89"></path><path d="M708.73 243.58C553.85 269.4 607.15 304 803.7 347.48 967.57 392.39 952.45 448.32 782.64 515.06 584.35 583.04 496.57 659.07 552.3 737.06 770.99 832.31 779.91 877.98 579.58 797.11 448.58 716.74 362.53 629.83 318.99 558.85 307.54 529.17 313.82 549.22 318.94 621.97 330.25 732.62 325.79 854.97 299.97 953.78 274.15 999.68 228.2 977.79 168.19 898.97 114.38 785.35 61.12 666.92 27.84 571.09 26.63 513.84 70.16 502.41 161.37 529.52 260.91 588.53 345.83 658.2 360.75 722.31 276.39 779.01 109.46 812.76 -67.94 823 -150.56 815.85 -85.94 790.81 93.42 755.32 244.31 711.36 244.73 665.81 70.89 624.16 -135.6 580.84 -194.14 545.07 -39.26 519.25 215.62 486.1 -130.78 465.65 -99.64 464.16 97.22 454.91 266.63 437.43 311.46 404.79 223.18 354.77 76.85 283.95 -36.76 193.42 -74.42 95.47 -18.87 -4.81 91.53 -90.7 229.98 -144.72 350.27 -156.45 435.88 -118.13 495.8 -41.24 527.18 62.48 545.78 166.14 555.62 235.01 569.89 251.68 595.7 205.81 621.52 107.01 657.68 -10.1 696.52 -110.79 726.62 -173.6 742.21 -178.97 727.04 -130.37 686.17 -40.47 608.4 69.59 509.75 176.85 439.13 268.75 420.65 331.07 492.15 362.53 639.61 364.88 816.55 346.65 931.72 318.85 913.77 280.65 767.51 247.14 589.57 223.91 527.72 201.91 641.7 192.94 858.61 196.73 994.77 201.95 927.24 217.76 708.73 243.58Q708.73 243.58 708.73 243.58" opacity="0.65"></path><path d="M674.64 391.66C525.98 415.13 547.33 449.54 708.45 493.49 887.64 537.22 948.47 589.57 859.08 647.44 678.4 701.47 517.88 755.15 455.13 801.56 506.01 833.75 626.03 848.19 746 838.37 827.24 807.54 834.36 752.57 780.74 679.39 682.47 606.58 572.45 540.69 474.66 498.58 383.64 496.06 317.41 535.77 271.68 615.65 232.4 721.1 203.25 831.47 179.78 919.79 156.31 964.19 139.62 952.34 134.64 891.03 136.1 795.34 159.63 686.69 209.98 587.28 302.77 490.21 397.58 508.82 265.17 583.42 114.44 641.69 -33.41 690.17 -108.73 723.74 -70.41 748.33 69.04 756.35 232.52 750.85 304.71 738.05 230.52 717.35 42.26 693.06 -127.9 666.68 -154.01 640.71 -5.35 617.24 196.8 593.77 289.37 573.9 211.87 556.02 27.98 536.05 -118.4 514.04 -130.84 486.17 -7.05 450.99 174.05 404.32 312.52 343.55 353.55 273.8 293.09 191.63 182.27 102.59 63.12 19.59 -7.5 -52.96 -17.08 -102.07 26.49 -118.98 106.13 -98.24 194.71 -39.27 291.84 42.92 372.97 138.21 433.32 224.85 490.34 277.1 529.85 284.19 553.33 239.79 576.8 151.47 583.13 45.86 570.39 -50.52 554.31 -121.35 515.88 -147.71 459.43 -127.97 411.52 -68.66 370.52 18.27 363.1 115.52 408.84 213.14 513.15 295.94 663.05 357.54 804.65 398.12 892.97 417.38 876.41 421.36 682.37 403.62 605.19 360.73 878.01 356.44 964.61 356.75 876.87 368.18 674.73 391.65Q674.64 391.66 674.64 391.66" opacity="0.56"></path><path d="M641.6 543.8C500.44 564.92 493.63 593.39 614.07 627.37 786.11 660.09 899.42 695.72 895.98 730.43 782.83 759.42 620.35 781.69 483.5 792.11 416.32 790.47 434.92 771.82 511.11 734.51 618.76 687 710.34 626.91 763.61 561.96 780.21 507.9 756.75 468.59 710.19 455.11 645.45 475.59 580.41 529.35 526.01 611.7 469.9 709.62 429.91 807.62 408.79 885.68 387.66 928.03 386.4 924.68 402.67 879.63 417.23 802.72 443.85 708.33 471.97 613.28 481.92 528.51 470.6 465.9 421.44 429.46 335.61 419.64 213.71 432.09 78.37 459 -25.51 499.45 -69.15 541.19 -23.97 577.71 210 644.53 -112.82 635.48 29.6 606.3 214.07 585.17 319.12 560.04 286.48 530.37 141.71 499.26 -18.42 461.09 -102.68 414.52 -73.8 364.33 51.37 304.26 207.39 235.56 338.38 166.48 396.59 94.41 381.35 26.27 307.02 -28.32 213.24 -65.83 132.79 -78.02 70.64 -63.58 46.73 -19.92 53.88 49.35 82.63 128.91 124.29 211.28 165.89 280.04 212.06 316.95 248.08 316.04 269.2 273.71 290.32 195.65 295.56 101.94 289.23 12.17 287.47 -62.03 284.24 -103.78 292.1 -108.78 321.55 -79.83 380.26 -21.57 474.96 54.47 587.98 141.42 712.08 226.56 814.1 301.75 857.02 366.76 823.87 415.73 714.87 449.93 580.85 472.07 474.62 484.59 461.22 492.21 560.96 494.11 733.13 496.91 886.05 504.03 926.84 509.89 826.07 522.67 641.6 543.8Q641.6 543.8 641.6 543.8" opacity="0.39"></path><path d="M606.63 624.08C475.86 642.86 447.87 662.47 527.84 681.6 742.07 706.75 794.05 724.91 604.69 705.63 474.66 682.27 392.25 646.7 367.28 600.57 395.74 553.88 457.32 504.5 526.95 459.55 600.36 430.21 653.47 418.21 682.58 429.72 698.38 467.45 695.45 529.33 681.58 609.86 662.96 698.33 642.24 783.76 623.46 851.82 604.68 891.54 588.73 895.08 571.94 864.6 550.4 806.32 519.17 729.08 470.83 644.85 409.17 561.32 325.15 488.98 222.79 433.5 79.95 386.91 13.04 397.22 153.6 429.58 270.87 457.22 359.09 480.87 372.47 497.61 294.63 514.53 148.79 522.88 -5.09 522.07 -92.32 520.87 -68.13 511 62.63 492.23 228.58 473.45 340.84 446.64 348.27 412.44 252.39 377.83 108.41 335.31 -13.71 285.86 -69.16 236.58 -34.54 182 67.21 125.42 203.91 74.13 328.35 27.15 411.8 -9.58 446.78 -31.52 434.27 -35.46 393.25 -17.59 330.29 18.34 270.36 73.83 225.25 143.6 185.32 214.06 165.06 280.62 161.56 331.65 161.92 354.89 172.81 347.54 191.58 307.82 210.36 239.76 236.13 158.13 271.19 76.91 310.09 3.63 364.5 -47.56 436.96 -71.52 514.61 -69.28 605.47 -40.44 697.37 8.45 767.35 72.95 806.84 144.59 796.49 215.9 737.67 286.64 635.49 349.17 518.35 401.47 436.12 447.15 418.31 483.15 487.5 511.35 623.37 534.91 778.04 554.33 881.19 571.96 881.06 588.24 772.65 605.29 606.72 624.07Q606.63 624.08 606.63 624.08" opacity="0.14"></path><path d="M572.72 591.96C411.13 624.82 567.89 637.1 790.68 622.66 814.15 599.73 617.25 542.87 415.18 464.42 319.85 407.38 351.62 381.2 412.4 421.62 491.44 532.4 518.49 686.45 485.63 817.81 452.77 864.78 363.1 803.66 227.12 676.81 109.39 529.48 26.34 412.68 78.6 346.62 318.62 330.77 20.17 365.39 96.72 331.82 355.74 298.96 341.65 237.76 119.63 160.6 -31.38 93.02 63.12 32.78 267.14 10.04 446.44 33.02 503.51 114.98 491.27 238.21 437.17 340.98 411.43 388.78 444.29 341.81 477.15 210.45 565.5 69.72 676.55 -16.97 745.74 -33.3 739.96 27.73 603.72 127.83 442.77 249.36 383.12 357.5 558.23 437.38 804.33 508.76 831.74 559.1 572.72 591.96Q572.72 591.96 572.72 591.96" opacity="0.58"></path><path d="M538.64 463.75C379.62 491.92 460.97 491.88 660.79 466.6 796.54 441.93 748.61 398.76 594.06 354.88 413.56 339.85 300.02 359.24 252.61 429.08 243.33 540.8 240.56 674.3 212.39 783.79 184.23 830.62 133.33 796 93.8 704.27 92.39 581.87 161.98 464.17 305.56 374.95 423.19 311.5 441.25 276.84 284.85 256.97 64.39 247.79 -28.37 233.71 130.64 205.55 364.22 177.38 415.92 137.79 269.8 98.16 72.85 69.22 10.37 59.92 92.09 86.45 259.04 138.75 411.06 226.57 504.37 328.31 566.79 399.4 598.8 422.62 626.96 375.82 655.13 266.33 676.8 144.24 663.21 53.15 618.72 3.95 510.66 14.43 380.62 66.38 335.79 147.17 428.11 234.3 645.68 307.78 812.48 381.88 772.26 435.58 538.73 463.74Q538.64 463.75 538.64 463.75" opacity="0.55"></path><path d="M504.64 303.57C355.99 327.04 372.24 329.13 510.91 315.97 678.2 307.84 756.74 295.73 730.34 293.8 626.86 315.9 502.31 366.55 404.65 449.06 314.2 551.41 259.23 661.47 235.76 749.79 212.29 794.19 222.53 780.82 272.31 722.53 329.29 633.66 417.21 534.92 489.93 446.6 485.56 366.1 382.13 305.58 197.63 263.31 41.76 227.82 15.99 200.18 164.64 176.71 366.8 153.24 461.65 136.16 404.08 130.97 245.87 132.57 108.11 156.45 57.13 206.18 87.82 263.74 175.44 337.57 264.66 409.24 361.99 450.32 427.11 454.2 450.58 409.82 474.08 321.5 453.68 220.94 397.04 135.8 348.49 70.48 297.49 44.72 297.54 53.38 379.26 86.07 541.9 134.82 717.33 183.63 792.14 237.46 706.86 280.09 504.73 303.56Q504.64 303.57 504.64 303.57" opacity="0.80"></path><path d="M471.08 191.64C340.1 210.42 309.1 221.69 373.24 229.6 499.55 242.29 617.87 260.35 686.57 290.62 710.07 334.9 685.04 398.11 641.54 477.45 583.83 562.47 538.03 647.68 519.25 715.74 500.47 755.48 510.49 757.41 535.66 727.67 546.62 673.91 542.34 605.74 494.23 537.04 400.92 465.55 262.69 403.72 122.61 356.44 44.71 311.22 68.1 278.44 199.08 259.66 421.19 239.39 365.18 281.57 212.3 344.7 137.3 388.8 111.72 437.05 120.07 477.04 145.5 493.02 175.6 483.48 194.38 443.74 213.16 375.68 218.84 298.08 225.94 226.83 250.14 161.25 305.02 117.95 404.63 98.29 525.97 92.63 658.2 103.88 744.87 123.73 741.78 148.36 636.99 172.86 471.08 191.64Q471.08 191.64 471.08 191.64" opacity="0.41"></path><path d="M436.64 184.14C277.62 212.31 343.83 261.05 480.15 340.15 612.29 439.34 642.14 572.3 613.97 681.79 585.8 728.62 504.96 691.37 335.9 617.11 162.66 520.77 73.62 441.15 232.64 412.98 496.78 399.12 269.3 517.41 263.27 477.79 291.44 368.3 410.84 258.17 590.48 195.9 708.49 153.72 670.23 155.97 436.64 184.14Q436.64 184.14 436.64 184.14" opacity="0.13"></path><path d="M402.73 284.71C246.63 322.27 408.13 494.08 370.58 647.78 333.02 692.68 110.63 597.29 266.73 559.73 544.41 522.18 510.96 556.68 548.52 511.78 586.07 358.08 680.41 247.16 402.73 284.71Q402.73 284.71 402.73 284.71" opacity="0.20"></path></g></svg>