<svg xmlns="http://www.w3.org/2000/svg" version="1.1" xmlns:xlink="http://www.w3.org/1999/xlink" xmlns:svgjs="http://svgjs.dev/svgjs" viewBox="0 0 800 800"><defs><linearGradient x1="50%" y1="0%" x2="50%" y2="100%" id="ffflurry-grad" gradientTransform="rotate(270)"><stop stop-color="hsl(238, 82%, 13%)" stop-opacity="1" offset="0%"></stop><stop stop-color="hsl(265, 55%, 30%)" stop-opacity="1" offset="45%"></stop><stop stop-color="hsl(265, 55%, 60%)" stop-opacity="1" offset="100%"></stop></linearGradient></defs><rect width="100%" height="100%" fill="hsl(238, 82%, 13%)"></rect><g fill="url(#ffflurry-grad)"><rect width="370" height="3" x="425" y="78.5" rx="1.5" transform="rotate(45, 610, 80)" opacity="0.46"></rect><rect width="148" height="3" x="-40" y="448.5" rx="1.5" transform="rotate(45, 34, 450)" opacity="0.88"></rect><rect width="340" height="3" x="500" y="481.5" rx="1.5" transform="rotate(45, 670, 483)" opacity="0.77"></rect><rect width="194" height="3" x="457" y="190.5" rx="1.5" transform="rotate(45, 554, 192)" opacity="0.34"></rect><rect width="175" height="3" x="37.5" y="427.5" rx="1.5" transform="rotate(45, 125, 429)" opacity="0.49"></rect><rect width="504" height="3" x="243" y="466.5" rx="1.5" transform="rotate(45, 495, 468)" opacity="0.14"></rect><rect width="298" height="3" x="265" y="413.5" rx="1.5" transform="rotate(45, 414, 415)" opacity="0.89"></rect><rect width="145" height="3" x="-19.5" y="515.5" rx="1.5" transform="rotate(45, 53, 517)" opacity="0.79"></rect><rect width="396" height="3" x="99" y="439.5" rx="1.5" transform="rotate(45, 297, 441)" opacity="0.81"></rect><rect width="214" height="3" x="58" y="769.5" rx="1.5" transform="rotate(45, 165, 771)" opacity="0.48"></rect><rect width="182" height="3" x="682" y="677.5" rx="1.5" transform="rotate(45, 773, 679)" opacity="0.58"></rect><rect width="114" height="3" x="195" y="196.5" rx="1.5" transform="rotate(45, 252, 198)" opacity="0.91"></rect><rect width="448" height="3" x="-106" y="734.5" rx="1.5" transform="rotate(45, 118, 736)" opacity="0.69"></rect><rect width="104" height="3" x="700" y="761.5" rx="1.5" transform="rotate(45, 752, 763)" opacity="0.87"></rect><rect width="372" height="3" x="27" y="235.5" rx="1.5" transform="rotate(45, 213, 237)" opacity="0.50"></rect><rect width="98" height="3" x="60" y="23.5" rx="1.5" transform="rotate(45, 109, 25)" opacity="0.49"></rect><rect width="115" height="3" x="709.5" y="49.5" rx="1.5" transform="rotate(45, 767, 51)" opacity="0.42"></rect><rect width="88" height="3" x="306" y="129.5" rx="1.5" transform="rotate(45, 350, 131)" opacity="0.40"></rect><rect width="83" height="3" x="321.5" y="209.5" rx="1.5" transform="rotate(45, 363, 211)" opacity="0.49"></rect><rect width="116" height="3" x="395" y="195.5" rx="1.5" transform="rotate(45, 453, 197)" opacity="0.97"></rect><rect width="327" height="3" x="420.5" y="756.5" rx="1.5" transform="rotate(45, 584, 758)" opacity="0.83"></rect><rect width="237" height="3" x="128.5" y="342.5" rx="1.5" transform="rotate(45, 247, 344)" opacity="0.89"></rect><rect width="479" height="3" x="263.5" y="749.5" rx="1.5" transform="rotate(45, 503, 751)" opacity="0.21"></rect><rect width="313" height="3" x="412.5" y="137.5" rx="1.5" transform="rotate(45, 569, 139)" opacity="0.65"></rect><rect width="27" height="3" x="501.5" y="173.5" rx="1.5" transform="rotate(45, 515, 175)" opacity="0.20"></rect><rect width="31" height="3" x="343.5" y="313.5" rx="1.5" transform="rotate(45, 359, 315)" opacity="0.43"></rect><rect width="297" height="3" x="452.5" y="182.5" rx="1.5" transform="rotate(45, 601, 184)" opacity="0.26"></rect><rect width="452" height="3" x="364" y="467.5" rx="1.5" transform="rotate(45, 590, 469)" opacity="0.46"></rect><rect width="27" height="3" x="236.5" y="783.5" rx="1.5" transform="rotate(45, 250, 785)" opacity="0.94"></rect><rect width="220" height="3" x="668" y="438.5" rx="1.5" transform="rotate(45, 778, 440)" opacity="0.37"></rect><rect width="38" height="3" x="32" y="267.5" rx="1.5" transform="rotate(45, 51, 269)" opacity="0.39"></rect><rect width="224" height="3" x="288" y="279.5" rx="1.5" transform="rotate(45, 400, 281)" opacity="0.18"></rect><rect width="74" height="3" x="746" y="324.5" rx="1.5" transform="rotate(45, 783, 326)" opacity="0.41"></rect><rect width="259" height="3" x="332.5" y="156.5" rx="1.5" transform="rotate(45, 462, 158)" opacity="0.43"></rect><rect width="235" height="3" x="467.5" y="233.5" rx="1.5" transform="rotate(45, 585, 235)" opacity="0.15"></rect><rect width="151" height="3" x="272.5" y="773.5" rx="1.5" transform="rotate(45, 348, 775)" opacity="0.94"></rect><rect width="52" height="3" x="285" y="247.5" rx="1.5" transform="rotate(45, 311, 249)" opacity="0.57"></rect><rect width="169" height="3" x="-64.5" y="116.5" rx="1.5" transform="rotate(45, 20, 118)" opacity="0.80"></rect><rect width="36" height="3" x="145" y="39.5" rx="1.5" transform="rotate(45, 163, 41)" opacity="0.23"></rect><rect width="277" height="3" x="462.5" y="389.5" rx="1.5" transform="rotate(45, 601, 391)" opacity="0.58"></rect><rect width="224" height="3" x="237" y="368.5" rx="1.5" transform="rotate(45, 349, 370)" opacity="0.56"></rect><rect width="184" height="3" x="-19" y="376.5" rx="1.5" transform="rotate(45, 73, 378)" opacity="0.11"></rect><rect width="355" height="3" x="493.5" y="86.5" rx="1.5" transform="rotate(45, 671, 88)" opacity="0.37"></rect><rect width="78" height="3" x="451" y="132.5" rx="1.5" transform="rotate(45, 490, 134)" opacity="0.91"></rect><rect width="26" height="3" x="49" y="94.5" rx="1.5" transform="rotate(45, 62, 96)" opacity="0.19"></rect><rect width="272" height="3" x="-69" y="140.5" rx="1.5" transform="rotate(45, 67, 142)" opacity="0.47"></rect><rect width="226" height="3" x="319" y="359.5" rx="1.5" transform="rotate(45, 432, 361)" opacity="0.50"></rect><rect width="189" height="3" x="664.5" y="503.5" rx="1.5" transform="rotate(45, 759, 505)" opacity="0.49"></rect><rect width="210" height="3" x="103" y="108.5" rx="1.5" transform="rotate(45, 208, 110)" opacity="0.78"></rect><rect width="207" height="3" x="451.5" y="325.5" rx="1.5" transform="rotate(45, 555, 327)" opacity="0.41"></rect><rect width="181" height="3" x="655.5" y="589.5" rx="1.5" transform="rotate(45, 746, 591)" opacity="0.28"></rect><rect width="324" height="3" x="284" y="68.5" rx="1.5" transform="rotate(45, 446, 70)" opacity="0.87"></rect><rect width="28" height="3" x="69" y="221.5" rx="1.5" transform="rotate(45, 83, 223)" opacity="0.86"></rect><rect width="109" height="3" x="437.5" y="348.5" rx="1.5" transform="rotate(45, 492, 350)" opacity="0.42"></rect><rect width="301" height="3" x="-122.5" y="222.5" rx="1.5" transform="rotate(45, 28, 224)" opacity="0.56"></rect><rect width="207" height="3" x="339.5" y="697.5" rx="1.5" transform="rotate(45, 443, 699)" opacity="0.82"></rect><rect width="251" height="3" x="-75.5" y="766.5" rx="1.5" transform="rotate(45, 50, 768)" opacity="0.53"></rect><rect width="402" height="3" x="12" y="430.5" rx="1.5" transform="rotate(45, 213, 432)" opacity="0.47"></rect><rect width="29" height="3" x="260.5" y="292.5" rx="1.5" transform="rotate(45, 275, 294)" opacity="0.99"></rect><rect width="288" height="3" x="366" y="75.5" rx="1.5" transform="rotate(45, 510, 77)" opacity="0.37"></rect><rect width="229" height="3" x="393.5" y="228.5" rx="1.5" transform="rotate(45, 508, 230)" opacity="0.44"></rect><rect width="260" height="3" x="50" y="171.5" rx="1.5" transform="rotate(45, 180, 173)" opacity="0.18"></rect><rect width="269" height="3" x="519.5" y="429.5" rx="1.5" transform="rotate(45, 654, 431)" opacity="0.91"></rect><rect width="316" height="3" x="367" y="403.5" rx="1.5" transform="rotate(45, 525, 405)" opacity="0.27"></rect><rect width="195" height="3" x="245.5" y="587.5" rx="1.5" transform="rotate(45, 343, 589)" opacity="0.81"></rect><rect width="608" height="3" x="450" y="141.5" rx="1.5" transform="rotate(45, 754, 143)" opacity="0.83"></rect><rect width="186" height="3" x="574" y="744.5" rx="1.5" transform="rotate(45, 667, 746)" opacity="0.90"></rect><rect width="333" height="3" x="-137.5" y="173.5" rx="1.5" transform="rotate(45, 29, 175)" opacity="0.37"></rect><rect width="475" height="3" x="461.5" y="194.5" rx="1.5" transform="rotate(45, 699, 196)" opacity="0.62"></rect><rect width="41" height="3" x="241.5" y="589.5" rx="1.5" transform="rotate(45, 262, 591)" opacity="0.97"></rect><rect width="123" height="3" x="374.5" y="111.5" rx="1.5" transform="rotate(45, 436, 113)" opacity="0.16"></rect><rect width="234" height="3" x="251" y="464.5" rx="1.5" transform="rotate(45, 368, 466)" opacity="0.37"></rect><rect width="156" height="3" x="229" y="338.5" rx="1.5" transform="rotate(45, 307, 340)" opacity="0.48"></rect><rect width="211" height="3" x="303.5" y="775.5" rx="1.5" transform="rotate(45, 409, 777)" opacity="0.72"></rect><rect width="128" height="3" x="129" y="535.5" rx="1.5" transform="rotate(45, 193, 537)" opacity="0.81"></rect><rect width="148" height="3" x="417" y="561.5" rx="1.5" transform="rotate(45, 491, 563)" opacity="0.23"></rect><rect width="334" height="3" x="-11" y="662.5" rx="1.5" transform="rotate(45, 156, 664)" opacity="0.49"></rect><rect width="192" height="3" x="463" y="13.5" rx="1.5" transform="rotate(45, 559, 15)" opacity="0.94"></rect><rect width="206" height="3" x="276" y="660.5" rx="1.5" transform="rotate(45, 379, 662)" opacity="0.81"></rect><rect width="67" height="3" x="81.5" y="260.5" rx="1.5" transform="rotate(45, 115, 262)" opacity="0.95"></rect><rect width="307" height="3" x="-96.5" y="323.5" rx="1.5" transform="rotate(45, 57, 325)" opacity="0.41"></rect><rect width="344" height="3" x="550" y="432.5" rx="1.5" transform="rotate(45, 722, 434)" opacity="0.51"></rect><rect width="268" height="3" x="80" y="695.5" rx="1.5" transform="rotate(45, 214, 697)" opacity="0.49"></rect><rect width="224" height="3" x="26" y="135.5" rx="1.5" transform="rotate(45, 138, 137)" opacity="0.82"></rect><rect width="42" height="3" x="122" y="484.5" rx="1.5" transform="rotate(45, 143, 486)" opacity="0.45"></rect><rect width="60" height="3" x="222" y="490.5" rx="1.5" transform="rotate(45, 252, 492)" opacity="0.75"></rect><rect width="368" height="3" x="-69" y="574.5" rx="1.5" transform="rotate(45, 115, 576)" opacity="0.49"></rect><rect width="98" height="3" x="429" y="290.5" rx="1.5" transform="rotate(45, 478, 292)" opacity="0.20"></rect><rect width="273" height="3" x="-27.5" y="311.5" rx="1.5" transform="rotate(45, 109, 313)" opacity="0.57"></rect><rect width="128" height="3" x="682" y="311.5" rx="1.5" transform="rotate(45, 746, 313)" opacity="0.60"></rect><rect width="50" height="3" x="608" y="21.5" rx="1.5" transform="rotate(45, 633, 23)" opacity="0.35"></rect><rect width="187" height="3" x="466.5" y="270.5" rx="1.5" transform="rotate(45, 560, 272)" opacity="0.57"></rect><rect width="57" height="3" x="596.5" y="317.5" rx="1.5" transform="rotate(45, 625, 319)" opacity="0.13"></rect><rect width="155" height="3" x="1.5" y="285.5" rx="1.5" transform="rotate(45, 79, 287)" opacity="0.27"></rect><rect width="41" height="3" x="10.5" y="698.5" rx="1.5" transform="rotate(45, 31, 700)" opacity="0.18"></rect><rect width="230" height="3" x="-79" y="608.5" rx="1.5" transform="rotate(45, 36, 610)" opacity="0.16"></rect><rect width="363" height="3" x="515.5" y="290.5" rx="1.5" transform="rotate(45, 697, 292)" opacity="0.11"></rect><rect width="235" height="3" x="-37.5" y="58.5" rx="1.5" transform="rotate(45, 80, 60)" opacity="0.13"></rect><rect width="145" height="3" x="405.5" y="670.5" rx="1.5" transform="rotate(45, 478, 672)" opacity="0.73"></rect><rect width="244" height="3" x="322" y="241.5" rx="1.5" transform="rotate(45, 444, 243)" opacity="0.98"></rect><rect width="257" height="3" x="96.5" y="752.5" rx="1.5" transform="rotate(45, 225, 754)" opacity="0.24"></rect><rect width="166" height="3" x="215" y="658.5" rx="1.5" transform="rotate(45, 298, 660)" opacity="0.21"></rect><rect width="117" height="3" x="533.5" y="585.5" rx="1.5" transform="rotate(45, 592, 587)" opacity="0.84"></rect><rect width="204" height="3" x="-6" y="660.5" rx="1.5" transform="rotate(45, 96, 662)" opacity="0.78"></rect><rect width="258" height="3" x="474" y="669.5" rx="1.5" transform="rotate(45, 603, 671)" opacity="0.51"></rect><rect width="96" height="3" x="501" y="42.5" rx="1.5" transform="rotate(45, 549, 44)" opacity="0.52"></rect><rect width="385" height="3" x="-66.5" y="373.5" rx="1.5" transform="rotate(45, 126, 375)" opacity="0.67"></rect><rect width="212" height="3" x="444" y="519.5" rx="1.5" transform="rotate(45, 550, 521)" opacity="0.59"></rect><rect width="106" height="3" x="224" y="728.5" rx="1.5" transform="rotate(45, 277, 730)" opacity="0.15"></rect><rect width="271" height="3" x="86.5" y="32.5" rx="1.5" transform="rotate(45, 222, 34)" opacity="0.88"></rect><rect width="448" height="3" x="115" y="717.5" rx="1.5" transform="rotate(45, 339, 719)" opacity="0.71"></rect><rect width="263" height="3" x="-110.5" y="61.5" rx="1.5" transform="rotate(45, 21, 63)" opacity="0.54"></rect><rect width="38" height="3" x="177" y="369.5" rx="1.5" transform="rotate(45, 196, 371)" opacity="0.83"></rect><rect width="317" height="3" x="393.5" y="622.5" rx="1.5" transform="rotate(45, 552, 624)" opacity="0.81"></rect><rect width="229" height="3" x="-98.5" y="288.5" rx="1.5" transform="rotate(45, 16, 290)" opacity="0.23"></rect><rect width="253" height="3" x="287.5" y="730.5" rx="1.5" transform="rotate(45, 414, 732)" opacity="0.89"></rect><rect width="291" height="3" x="559.5" y="38.5" rx="1.5" transform="rotate(45, 705, 40)" opacity="0.22"></rect><rect width="295" height="3" x="198.5" y="412.5" rx="1.5" transform="rotate(45, 346, 414)" opacity="0.44"></rect><rect width="53" height="3" x="435.5" y="21.5" rx="1.5" transform="rotate(45, 462, 23)" opacity="0.84"></rect><rect width="302" height="3" x="132" y="144.5" rx="1.5" transform="rotate(45, 283, 146)" opacity="0.83"></rect><rect width="509" height="3" x="33.5" y="51.5" rx="1.5" transform="rotate(45, 288, 53)" opacity="0.11"></rect><rect width="391" height="3" x="-43.5" y="229.5" rx="1.5" transform="rotate(45, 152, 231)" opacity="0.33"></rect><rect width="331" height="3" x="598.5" y="236.5" rx="1.5" transform="rotate(45, 764, 238)" opacity="0.70"></rect><rect width="97" height="3" x="56.5" y="175.5" rx="1.5" transform="rotate(45, 105, 177)" opacity="0.30"></rect><rect width="289" height="3" x="489.5" y="560.5" rx="1.5" transform="rotate(45, 634, 562)" opacity="0.48"></rect><rect width="269" height="3" x="-110.5" y="373.5" rx="1.5" transform="rotate(45, 24, 375)" opacity="0.17"></rect><rect width="94" height="3" x="692" y="377.5" rx="1.5" transform="rotate(45, 739, 379)" opacity="0.86"></rect><rect width="220" height="3" x="539" y="258.5" rx="1.5" transform="rotate(45, 649, 260)" opacity="0.28"></rect><rect width="256" height="3" x="-91" y="18.5" rx="1.5" transform="rotate(45, 37, 20)" opacity="0.38"></rect><rect width="250" height="3" x="288" y="547.5" rx="1.5" transform="rotate(45, 413, 549)" opacity="0.30"></rect><rect width="251" height="3" x="372.5" y="631.5" rx="1.5" transform="rotate(45, 498, 633)" opacity="0.92"></rect><rect width="92" height="3" x="595" y="137.5" rx="1.5" transform="rotate(45, 641, 139)" opacity="0.10"></rect><rect width="193" height="3" x="545.5" y="206.5" rx="1.5" transform="rotate(45, 642, 208)" opacity="0.51"></rect><rect width="43" height="3" x="412.5" y="487.5" rx="1.5" transform="rotate(45, 434, 489)" opacity="0.43"></rect><rect width="72" height="3" x="235" y="389.5" rx="1.5" transform="rotate(45, 271, 391)" opacity="0.41"></rect><rect width="149" height="3" x="490.5" y="86.5" rx="1.5" transform="rotate(45, 565, 88)" opacity="0.63"></rect><rect width="70" height="3" x="645" y="367.5" rx="1.5" transform="rotate(45, 680, 369)" opacity="0.34"></rect><rect width="35" height="3" x="402.5" y="610.5" rx="1.5" transform="rotate(45, 420, 612)" opacity="0.12"></rect><rect width="239" height="3" x="661.5" y="380.5" rx="1.5" transform="rotate(45, 781, 382)" opacity="0.10"></rect><rect width="335" height="3" x="238.5" y="161.5" rx="1.5" transform="rotate(45, 406, 163)" opacity="0.75"></rect><rect width="280" height="3" x="-16" y="93.5" rx="1.5" transform="rotate(45, 124, 95)" opacity="0.82"></rect><rect width="27" height="3" x="290.5" y="774.5" rx="1.5" transform="rotate(45, 304, 776)" opacity="0.10"></rect><rect width="279" height="3" x="187.5" y="518.5" rx="1.5" transform="rotate(45, 327, 520)" opacity="0.49"></rect><rect width="174" height="3" x="109" y="615.5" rx="1.5" transform="rotate(45, 196, 617)" opacity="0.46"></rect><rect width="239" height="3" x="405.5" y="122.5" rx="1.5" transform="rotate(45, 525, 124)" opacity="0.40"></rect><rect width="256" height="3" x="560" y="539.5" rx="1.5" transform="rotate(45, 688, 541)" opacity="0.14"></rect><rect width="79" height="3" x="117.5" y="311.5" rx="1.5" transform="rotate(45, 157, 313)" opacity="0.79"></rect><rect width="246" height="3" x="90" y="292.5" rx="1.5" transform="rotate(45, 213, 294)" opacity="0.73"></rect><rect width="630" height="3" x="54" y="44.5" rx="1.5" transform="rotate(45, 369, 46)" opacity="0.61"></rect><rect width="377" height="3" x="511.5" y="664.5" rx="1.5" transform="rotate(45, 700, 666)" opacity="0.70"></rect></g></svg>